<svg width="84" height="73" viewBox="0 0 84 73" fill="none" xmlns="http://www.w3.org/2000/svg">
<mask id="mask0_795_133" style="mask-type:luminance" maskUnits="userSpaceOnUse" x="20" y="0" width="64" height="73">
<path d="M20.4609 0H83.9084V73H20.4609V0Z" fill="white"/>
</mask>
<g mask="url(#mask0_795_133)">
<path fill-rule="evenodd" clip-rule="evenodd" d="M83.9211 11.2382V36.2545C83.9211 45.5165 79.7695 53.4858 72.1259 58.8912L52.2106 72.9771L32.2942 58.8912C24.6516 53.4858 20.5 45.5165 20.5 36.2545V11.2382C44.5366 -3.66142 59.8835 -3.66142 83.9211 11.2382Z" fill="#72D561"/>
</g>
<path fill-rule="evenodd" clip-rule="evenodd" d="M78.5051 14.2073C58.5767 2.44718 45.8113 2.44718 25.8828 14.2073V36.2544C25.8828 43.8053 29.1988 50.1699 35.4293 54.5764L52.1945 66.4341L68.9587 54.5764C75.1891 50.1699 78.5051 43.8063 78.5051 36.2544V14.2073Z" fill="#3CBE52"/>
<path d="M67.8719 33.3497C67.882 33.8557 67.8679 34.3607 67.8274 34.8657C67.7869 35.3697 67.7222 35.8717 67.6322 36.3697C67.5411 36.8677 67.4268 37.3607 67.2872 37.8478C67.1476 38.3348 66.9847 38.8139 66.7976 39.285C66.6094 39.7572 66.4 40.2183 66.1663 40.6695C65.9327 41.1197 65.6777 41.559 65.4006 41.9853C65.1234 42.4116 64.826 42.8239 64.5073 43.2214C64.1897 43.6188 63.8518 44.0002 63.4957 44.3648C63.1396 44.7293 62.7654 45.077 62.3749 45.4056C61.9834 45.7343 61.5777 46.0431 61.1559 46.333C60.7341 46.6228 60.2981 46.8907 59.8499 47.1387C59.4008 47.3858 58.9415 47.6109 58.4701 47.814C57.9987 48.0172 57.5192 48.1975 57.0296 48.3539C56.541 48.5103 56.0453 48.6427 55.5425 48.7513C55.0408 48.8599 54.534 48.9445 54.0231 49.0043C53.5123 49.0641 53.0004 49.0989 52.4855 49.1089C51.9716 49.1188 51.4587 49.1039 50.9458 49.0641C50.433 49.0252 49.9231 48.9605 49.4173 48.8718C48.9105 48.7832 48.4098 48.6706 47.9151 48.5332C47.4194 48.3957 46.9328 48.2354 46.4543 48.0511C45.9748 47.8668 45.5065 47.6597 45.0482 47.4296C44.59 47.2005 44.1439 46.9495 43.7109 46.6766C43.2769 46.4037 42.8581 46.1108 42.4545 45.7981C42.0509 45.4843 41.6634 45.1527 41.2922 44.8021C40.9209 44.4515 40.5689 44.0839 40.235 43.6985C39.9002 43.314 39.5866 42.9146 39.2922 42.4992C38.9979 42.0839 38.7247 41.6556 38.4738 41.2144C38.222 40.7731 37.9933 40.3199 37.787 39.8568C37.5806 39.3926 37.3985 38.9205 37.2387 38.4394C37.0799 37.9583 36.9453 37.4703 36.8351 36.9762C36.7238 36.4812 36.6388 35.9832 36.5781 35.4802C36.5174 34.9782 36.482 34.4732 36.4719 33.9672C36.4618 33.4613 36.4759 32.9563 36.5164 32.4513C36.5569 31.9473 36.6216 31.4453 36.7116 30.9473C36.8027 30.4493 36.917 29.9562 37.0566 29.4692C37.1962 28.9821 37.3591 28.503 37.5462 28.0319C37.7344 27.5598 37.9438 27.0986 38.1774 26.6484C38.4111 26.1972 38.666 25.758 38.9432 25.3317C39.2204 24.9054 39.5178 24.494 39.8365 24.0956C40.1541 23.6982 40.492 23.3167 40.8481 22.9522C41.2042 22.5876 41.5784 22.24 41.9689 21.9113C42.3604 21.5826 42.7661 21.2738 43.1879 20.984C43.6097 20.6942 44.0457 20.4262 44.4939 20.1782C44.943 19.9312 45.4023 19.7061 45.8737 19.5029C46.3451 19.2997 46.8246 19.1204 47.3142 18.9631C47.8028 18.8067 48.2985 18.6742 48.8013 18.5656C49.303 18.4571 49.8098 18.3724 50.3207 18.3126C50.8315 18.2539 51.3434 18.218 51.8583 18.2081C52.3722 18.1981 52.8851 18.213 53.398 18.2529C53.9108 18.2917 54.4207 18.3565 54.9265 18.4451C55.4333 18.5338 55.934 18.6463 56.4287 18.7838C56.9244 18.9212 57.411 19.0816 57.8895 19.2658C58.3689 19.4501 58.8373 19.6573 59.2956 19.8874C59.7538 20.1165 60.1999 20.3675 60.6329 20.6404C61.0669 20.9133 61.4857 21.2061 61.8893 21.5189C62.2929 21.8326 62.6804 22.1643 63.0516 22.5149C63.4229 22.8655 63.7749 23.233 64.1088 23.6185C64.4436 24.003 64.7572 24.4024 65.0516 24.8177C65.3459 25.2331 65.6191 25.6614 65.87 26.1026C66.1218 26.5438 66.3505 26.997 66.5568 27.4602C66.7632 27.9243 66.9453 28.3965 67.1051 28.8775C67.2639 29.3586 67.3985 29.8467 67.5087 30.3417C67.62 30.8357 67.705 31.3337 67.7657 31.8367C67.8264 32.3387 67.8618 32.8437 67.8719 33.3497Z" fill="#64B5F6"/>
<path fill-rule="evenodd" clip-rule="evenodd" d="M57.5657 27.1588C58.4538 26.2843 59.8954 26.2843 60.7846 27.1588C61.6727 28.0333 61.6727 29.4517 60.7846 30.3272L50.2376 40.7058C49.2301 41.6969 47.567 41.5405 46.7588 40.402L42.0872 34.6171C41.3062 33.6499 41.4701 32.2435 42.4524 31.4756C43.4346 30.7067 44.864 30.867 45.645 31.8342L48.8194 35.7655L57.5657 27.1588Z" fill="#EFF4F7"/>
<path d="M43.1963 51.3436C43.1963 51.6912 43.1871 52.0389 43.17 52.3865C43.1528 52.7341 43.1265 53.0807 43.0921 53.4263C43.0577 53.7729 43.0142 54.1176 42.9626 54.4622C42.911 54.8058 42.8503 55.1485 42.7815 55.4901C42.7127 55.8307 42.6348 56.1704 42.5488 56.508C42.4628 56.8447 42.3688 57.1804 42.2666 57.513C42.1634 57.8457 42.0531 58.1764 41.9338 58.5041C41.8144 58.8308 41.688 59.1555 41.5524 59.4772C41.4169 59.7979 41.2742 60.1157 41.1225 60.4304C40.9717 60.7451 40.8129 61.0559 40.646 61.3627C40.4791 61.6695 40.3051 61.9713 40.123 62.2701C39.9419 62.5689 39.7528 62.8627 39.5565 63.1516C39.3603 63.4404 39.1569 63.7253 38.9455 64.0042C38.7351 64.284 38.5176 64.558 38.294 64.8269C38.0695 65.0958 37.8388 65.3588 37.6011 65.6167C37.3644 65.8747 37.1206 66.1267 36.8707 66.3727C36.6209 66.6177 36.3649 66.8578 36.1029 67.0919C35.8409 67.3249 35.5728 67.552 35.2997 67.7731C35.0266 67.9933 34.7484 68.2074 34.4641 68.4146C34.1799 68.6217 33.8916 68.822 33.5972 69.0152C33.3038 69.2084 33.0054 69.3947 32.7019 69.574C32.3985 69.7522 32.0909 69.9236 31.7794 70.0879C31.4678 70.2513 31.1522 70.4076 30.8325 70.557C30.5128 70.7054 30.1901 70.8469 29.8634 70.9794C29.5366 71.1128 29.2069 71.2373 28.874 71.3549C28.5412 71.4724 28.2064 71.581 27.8675 71.6825C27.5296 71.7831 27.1887 71.8758 26.8458 71.9604C26.5029 72.0451 26.1589 72.1208 25.8119 72.1895C25.465 72.2573 25.117 72.316 24.767 72.3678C24.418 72.4186 24.0669 72.4614 23.7149 72.4953C23.3639 72.5292 23.0108 72.5551 22.6578 72.572C22.3047 72.5889 21.9517 72.5979 21.5986 72.5979C21.2446 72.5979 20.8915 72.5889 20.5385 72.572C20.1854 72.5551 19.8334 72.5292 19.4814 72.4953C19.1293 72.4614 18.7783 72.4186 18.4293 72.3678C18.0793 72.316 17.7313 72.2573 17.3843 72.1895C17.0383 72.1208 16.6934 72.0451 16.3505 71.9604C16.0075 71.8758 15.6666 71.7831 15.3287 71.6825C14.9899 71.581 14.655 71.4724 14.3222 71.3549C13.9894 71.2373 13.6596 71.1128 13.3329 70.9794C13.0061 70.8469 12.6834 70.7054 12.3638 70.557C12.0441 70.4076 11.7285 70.2513 11.4169 70.0879C11.1053 69.9236 10.7978 69.7522 10.4943 69.574C10.1908 69.3947 9.89242 69.2084 9.59906 69.0152C9.30468 68.822 9.01637 68.6217 8.73212 68.4146C8.44786 68.2074 8.16967 67.9933 7.89654 67.7731C7.6234 67.552 7.35533 67.3249 7.09333 67.0919C6.83132 66.8578 6.57539 66.6177 6.32552 66.3727C6.07566 66.1267 5.83186 65.8747 5.59515 65.6167C5.35742 65.3588 5.12678 65.0958 4.9022 64.8269C4.67864 64.558 4.46115 64.284 4.25074 64.0042C4.03931 63.7253 3.83598 63.4404 3.63973 63.1516C3.44348 62.8627 3.25431 62.5689 3.07324 62.2701C2.89115 61.9713 2.71715 61.6695 2.55024 61.3627C2.38333 61.0559 2.2245 60.7451 2.07378 60.4304C1.92204 60.1157 1.7794 59.7979 1.64385 59.4772C1.50829 59.1555 1.38184 58.8308 1.26247 58.5041C1.14311 58.1764 1.03284 57.8457 0.929659 57.513C0.827487 57.1804 0.733409 56.8447 0.647423 56.508C0.561437 56.1704 0.483544 55.8307 0.414755 55.4901C0.345967 55.1485 0.28527 54.8058 0.233679 54.4622C0.182088 54.1176 0.138589 53.7729 0.104195 53.4263C0.0698001 53.0807 0.0434989 52.7341 0.0263016 52.3865C0.00910445 52.0389 0 51.6912 0 51.3436C0 50.995 0.00910445 50.6474 0.0263016 50.3008C0.0434989 49.9532 0.0698001 49.6066 0.104195 49.2599C0.138589 48.9143 0.182088 48.5687 0.233679 48.2251C0.28527 47.8804 0.345967 47.5378 0.414755 47.1972C0.483544 46.8555 0.561437 46.5159 0.647423 46.1792C0.733409 45.8416 0.827487 45.5059 0.929659 45.1732C1.03284 44.8406 1.14311 44.5109 1.26247 44.1832C1.38184 43.8555 1.50829 43.5308 1.64385 43.2101C1.7794 42.8883 1.92204 42.5706 2.07378 42.2559C2.2245 41.9411 2.38333 41.6313 2.55024 41.3246C2.71715 41.0178 2.89115 40.715 3.07324 40.4162C3.25431 40.1184 3.44348 39.8245 3.63973 39.5347C3.83598 39.2459 4.03931 38.962 4.25074 38.6821C4.46115 38.4032 4.67864 38.1283 4.9022 37.8594C5.12678 37.5905 5.35742 37.3275 5.59515 37.0695C5.83186 36.8126 6.07566 36.5606 6.32552 36.3145C6.57539 36.0685 6.83132 35.8285 7.09333 35.5954C7.35533 35.3613 7.6234 35.1342 7.89654 34.9131C8.16967 34.693 8.44786 34.4789 8.73212 34.2717C9.01637 34.0645 9.30468 33.8643 9.59906 33.6711C9.89242 33.4778 10.1908 33.2916 10.4943 33.1133C10.7978 32.934 11.1053 32.7627 11.4169 32.5984C11.7285 32.435 12.0441 32.2786 12.3638 32.1302C12.6834 31.9808 13.0061 31.8404 13.3329 31.7069C13.6596 31.5734 13.9894 31.4489 14.3222 31.3314C14.655 31.2139 14.9899 31.1053 15.3287 31.0047C15.6666 30.9031 16.0075 30.8105 16.3505 30.7258C16.6934 30.6412 17.0383 30.5655 17.3843 30.4977C17.7313 30.43 18.0793 30.3702 18.4293 30.3194C18.7783 30.2676 19.1293 30.2258 19.4814 30.1919C19.8334 30.1571 20.1854 30.1322 20.5385 30.1143C20.8915 30.0973 21.2446 30.0894 21.5986 30.0894C21.9517 30.0894 22.3047 30.0973 22.6578 30.1143C23.0108 30.1322 23.3639 30.1571 23.7149 30.1919C24.0669 30.2258 24.418 30.2676 24.767 30.3194C25.117 30.3702 25.465 30.43 25.8119 30.4977C26.1589 30.5655 26.5029 30.6412 26.8458 30.7258C27.1887 30.8105 27.5296 30.9031 27.8675 31.0047C28.2064 31.1053 28.5412 31.2139 28.874 31.3314C29.2069 31.4489 29.5366 31.5734 29.8634 31.7069C30.1901 31.8404 30.5128 31.9808 30.8325 32.1302C31.1522 32.2786 31.4678 32.435 31.7794 32.5984C32.0909 32.7627 32.3985 32.934 32.7019 33.1133C33.0054 33.2916 33.3038 33.4778 33.5972 33.6711C33.8916 33.8643 34.1799 34.0645 34.4641 34.2717C34.7484 34.4789 35.0266 34.693 35.2997 34.9131C35.5728 35.1342 35.8409 35.3613 36.1029 35.5954C36.3649 35.8285 36.6209 36.0685 36.8707 36.3145C37.1206 36.5606 37.3644 36.8126 37.6011 37.0695C37.8388 37.3275 38.0695 37.5905 38.294 37.8594C38.5176 38.1283 38.7351 38.4032 38.9455 38.6821C39.1569 38.962 39.3603 39.2459 39.5565 39.5347C39.7528 39.8245 39.9419 40.1184 40.123 40.4162C40.3051 40.715 40.4791 41.0178 40.646 41.3246C40.8129 41.6313 40.9717 41.9411 41.1225 42.2559C41.2742 42.5706 41.4169 42.8883 41.5524 43.2101C41.688 43.5308 41.8144 43.8555 41.9338 44.1832C42.0531 44.5109 42.1634 44.8406 42.2666 45.1732C42.3688 45.5059 42.4628 45.8416 42.5488 46.1792C42.6348 46.5159 42.7127 46.8555 42.7815 47.1972C42.8503 47.5378 42.911 47.8804 42.9626 48.2251C43.0142 48.5687 43.0577 48.9143 43.0921 49.2599C43.1265 49.6066 43.1528 49.9532 43.17 50.3008C43.1871 50.6474 43.1963 50.995 43.1963 51.3436Z" fill="#E6F8FF"/>
<path fill-rule="evenodd" clip-rule="evenodd" d="M10.9462 63.1001H14.4342C14.9288 63.1001 15.3335 62.7017 15.3335 62.2147V46.7453C15.3335 46.2583 14.9288 45.8599 14.4342 45.8599H10.9462C10.4515 45.8599 10.0469 46.2583 10.0469 46.7453V62.2147C10.0469 62.7017 10.4515 63.1001 10.9462 63.1001Z" fill="#64B5F6"/>
<path fill-rule="evenodd" clip-rule="evenodd" d="M18.5547 62.5845C18.9705 62.9451 19.4388 63.0995 19.9729 63.0995H25.9141C28.2468 63.1353 29.3656 62.0915 31.749 58.5566L35.4332 53.0904C37.4756 50.0604 34.8576 46.5733 31.3514 46.6012L26.6485 46.6381C27.4446 43.5882 28.5149 39.5125 28.8558 38.2645C28.874 35.4258 26.428 34.1329 25.211 35.5274C25.211 35.5274 22.2035 40.4637 18.5547 46.7018C18.5547 51.9589 18.5547 57.2159 18.5547 62.5845Z" fill="#FFD6BD"/>
</svg>
