<svg width="62" height="62" viewBox="0 0 62 62" fill="none" xmlns="http://www.w3.org/2000/svg">
<path d="M25.8193 58.5617C25.8193 60.3246 27.2487 61.754 29.0117 61.754H33.2684C35.0313 61.754 36.4607 60.3246 36.4607 58.5617V52.1763H25.8193V58.5617Z" fill="#EBEBEB"/>
<path d="M20.8048 40.638C19.8705 40.0374 18.9954 39.356 18.1824 38.6065C17.59 40.8983 15.5263 42.5992 13.0491 42.5992C10.111 42.5992 7.72876 40.2169 7.72876 37.2781C7.72876 34.3401 10.111 31.9578 13.0491 31.9578C13.2121 31.9578 13.3655 31.9915 13.524 32.0057C12.5449 29.7019 11.9959 27.1701 11.9959 24.5088H10.6399L9.9046 28.0063C9.74828 28.7505 8.88512 29.0953 8.25982 28.6645L5.3203 26.6368L2.12797 29.8291L4.15497 32.7694C4.58654 33.3954 4.24173 34.2586 3.4975 34.4149L0 35.1501V39.4068L3.4975 40.1421C4.24173 40.2984 4.58654 41.1616 4.15497 41.7869L2.12797 44.7271L5.3203 47.9195L8.26057 45.8925C8.88662 45.4616 9.74977 45.8064 9.9061 46.5499L10.6414 50.0482H14.898L15.6333 46.5499C15.7896 45.8064 16.6528 45.4616 17.2781 45.8925L20.2183 47.9195L23.5588 44.5798C23.2259 42.9664 22.2289 41.552 20.8048 40.638Z" fill="#C9DFFF"/>
<path d="M50.2941 24.5085C50.2941 13.2112 40.5137 4.19815 28.9583 5.47419C20.059 6.45702 12.9151 13.731 12.0737 22.6453C11.3616 30.1788 15.0177 36.9225 20.8047 40.6377C22.5647 41.7679 23.6904 43.6565 23.6904 45.7478V50.0479C23.6904 51.8108 25.1197 53.2402 26.8834 53.2402H35.3961C37.1598 53.2402 38.5884 51.8108 38.5884 50.0479V45.8361C38.5884 43.6946 39.7388 41.7626 41.5361 40.598C46.8071 37.1858 50.2941 31.2552 50.2941 24.5085Z" fill="#FFB41F"/>
<path d="M56.8849 13.2509L60.2298 10.743L56.3987 5.63509L53.0538 8.14303C51.5377 9.28069 49.4022 8.01663 49.67 6.13923L50.2616 2.00071L43.9405 1.09717L43.3489 5.23568C43.0811 7.11308 40.6771 7.72941 39.5395 6.21178L37.0315 2.86686L31.9237 6.69796L34.4316 10.0429C35.5693 11.559 34.3052 13.6945 32.4278 13.4267L28.2893 12.835L27.3857 19.1561L31.5243 19.7478C33.4017 20.0155 34.0172 22.4195 32.5004 23.5572L29.1554 26.0651L32.9865 31.173L36.3307 28.6651C37.8476 27.5274 39.983 28.7915 39.7153 30.6689L39.1236 34.8074L45.444 35.7109L46.0363 31.5724C46.3041 29.695 48.7081 29.0787 49.8457 30.5963L52.3537 33.9412L57.4616 30.1101L54.9536 26.7652C53.816 25.2491 55.08 23.1136 56.9574 23.3814L61.0959 23.973L62.0002 17.6512L57.8617 17.0596C55.9843 16.7925 55.3687 14.3886 56.8849 13.2509ZM44.6937 25.8527C40.5799 25.8527 37.2447 22.5175 37.2447 18.4037C37.2447 14.2898 40.5799 10.9546 44.6937 10.9546C48.8083 10.9546 52.1428 14.2898 52.1428 18.4037C52.1428 22.5175 48.8083 25.8527 44.6937 25.8527Z" fill="#1CC8EB"/>
<path d="M25.8193 55.3682H36.4607V57.4969H25.8193V55.3682Z" fill="#9E9E9E"/>
<path d="M30.0762 46.856H32.2041V50.0483H30.0762V46.856Z" fill="#FFAA00"/>
<path d="M32.2036 44.727H30.0756C30.0756 41.9138 28.3613 39.4254 25.7083 38.3849C19.9579 36.1335 16.2412 30.6861 16.2412 24.5086C16.2412 19.3641 18.8412 14.6526 23.1958 11.9023L24.332 13.702C20.5989 16.0603 18.3699 20.0986 18.3699 24.5086C18.3699 29.8035 21.5548 34.4723 26.4846 36.4043C29.9597 37.7649 32.2036 41.0312 32.2036 44.727Z" fill="#FFAA00"/>
<path d="M57.7431 41.5342H52.4228C51.8349 41.5342 51.3584 41.0585 51.3584 40.4706C51.3584 39.8827 51.8341 39.4062 52.4228 39.4062H57.7431C58.3302 39.4062 58.8074 39.882 58.8074 40.4706C58.8074 41.0585 58.3317 41.5342 57.7431 41.5342Z" fill="#FFAA00"/>
<path d="M55.1806 51.247L50.4302 47.2895C49.9792 46.914 49.9186 46.2439 50.2941 45.7921V45.7913C50.6696 45.3403 51.3413 45.2782 51.7923 45.6545L56.5426 49.612C56.9944 49.9874 57.055 50.6576 56.6788 51.1086V51.1109C56.3033 51.5619 55.6316 51.624 55.1806 51.247Z" fill="#FFAA00"/>
<path d="M46.0372 55.3685C45.4493 55.3685 44.9736 54.8935 44.9736 54.3048V48.9838C44.9736 48.3966 45.4493 47.9194 46.0372 47.9194C46.6251 47.9194 47.1016 48.3951 47.1016 48.9838V54.3048C47.1016 54.8935 46.6259 55.3685 46.0372 55.3685Z" fill="#FFAA00"/>
<path d="M0.280175 19.1874C0.137313 18.6182 0.484371 18.0408 1.05357 17.8979L7.50331 16.286C8.07401 16.1432 8.65069 16.4902 8.79281 17.0594C8.93567 17.6286 8.58861 18.2068 8.01941 18.3489L1.56967 19.9616C0.999721 20.1037 0.422289 19.7566 0.280175 19.1874Z" fill="#FFAA00"/>
<path d="M8.37373 11.9871L2.65477 7.90171C2.17756 7.56138 2.06686 6.89644 2.40794 6.41848C2.74976 5.94053 3.41395 5.82983 3.89116 6.17165L9.60938 10.2556C10.0881 10.5959 10.1988 11.2616 9.85696 11.7388C9.51588 12.2167 8.85169 12.3274 8.37373 11.9871Z" fill="#FFAA00"/>
<path d="M12.8195 7.77876L11.1703 1.32753C11.0244 0.75758 11.3677 0.178652 11.9362 0.033546H11.9377C12.5069 -0.112308 13.0866 0.23101 13.2317 0.800214L14.8809 7.25219C15.0268 7.8214 14.6827 8.40032 14.1143 8.54618H14.1135C13.5443 8.69203 12.9646 8.34871 12.8195 7.77876Z" fill="#FFAA00"/>
</svg>
