<svg width="70" height="70" viewBox="0 0 70 70" fill="none" xmlns="http://www.w3.org/2000/svg">
<path fill-rule="evenodd" clip-rule="evenodd" d="M41.9693 5.80042C45.059 6.53549 48.0111 7.7609 50.7159 9.426L56.399 6.90177L63.0982 13.601L60.5748 19.2824C62.2408 21.9872 63.4662 24.9402 64.2013 28.0316L70 30.2629V39.7371L64.1996 41.9693C63.4645 45.0598 62.2391 48.0111 60.574 50.7159L63.0982 56.3999L56.399 63.0982L50.7176 60.5748C48.0119 62.2408 45.0598 63.4662 41.9684 64.2013L39.7371 70H30.2638L28.0307 64.1996C24.9402 63.4645 21.9889 62.2391 19.2841 60.574L13.6001 63.0982L6.90177 56.3999L9.42515 50.7176C7.75921 48.0128 6.53381 45.0598 5.79873 41.9684L0 39.7371V30.2638L5.79958 28.0307C6.53465 24.9402 7.76006 21.9889 9.426 19.2841L6.90177 13.601L13.6001 6.90177L19.2841 9.426C21.9889 7.7609 24.9402 6.53549 28.0307 5.79958L30.2629 0H39.7362L41.9693 5.80042Z" fill="#FFE177"/>
<path fill-rule="evenodd" clip-rule="evenodd" d="M19.2857 60.574L13.6017 63.0982L12.7274 62.2231L18.0561 59.8567C18.4603 60.1056 18.8705 60.3445 19.2857 60.574ZM41.9709 5.80042C45.0605 6.53549 48.0127 7.7609 50.7175 9.426L49.1022 10.1433C46.3974 8.47825 42.2156 6.53549 39.1251 5.80042L36.8929 0H39.7378L41.9709 5.80042ZM50.7192 60.5748C48.0135 62.2408 45.0614 63.4662 41.97 64.2013L39.7386 70H36.8929L39.1251 64.2013C42.2156 63.4662 46.3982 61.5234 49.1039 59.8575L50.7192 60.5748ZM12.7266 7.77693L13.6017 6.90177L19.2857 9.426C18.8705 9.65555 18.4603 9.89439 18.0552 10.1433L12.7266 7.77693ZM54.4308 7.77693L56.4006 6.90177L63.0998 13.601L60.5764 19.2824C62.2424 21.9872 63.4678 24.9402 64.2029 28.0316L70.0016 30.2629V39.7371L64.2012 41.9693C63.4661 45.0598 62.2407 48.0111 60.5756 50.7159L63.0998 56.3999L56.4006 63.0982L54.4308 62.2231L60.254 56.3999L57.7298 50.7159C59.3949 48.0111 60.6203 45.0598 61.3562 41.9693L67.1558 39.7371V30.2629L61.3571 28.0316C60.622 24.9402 59.3966 21.9872 57.7307 19.2824L60.254 13.601L54.4308 7.77693Z" fill="#FFD064"/>
<path d="M52.4986 17.5001C52.7847 17.7862 53.0641 18.0799 53.3358 18.3795C53.6084 18.6799 53.8726 18.9863 54.13 19.2994C54.3865 19.6125 54.6355 19.9315 54.8769 20.2573C55.1182 20.5822 55.3512 20.913 55.5765 21.2497C55.801 21.5873 56.0179 21.9291 56.2263 22.2768C56.4348 22.6237 56.6339 22.9764 56.8247 23.3334C57.0163 23.6904 57.1977 24.0525 57.3716 24.4179C57.5446 24.7842 57.7083 25.1547 57.8636 25.5285C58.0189 25.9032 58.164 26.2805 58.3007 26.6619C58.4375 27.0434 58.564 27.4282 58.6814 27.8156C58.7995 28.203 58.9075 28.5937 59.0054 28.9862C59.1042 29.3794 59.1928 29.7744 59.2721 30.171C59.3506 30.5685 59.4198 30.9677 59.4797 31.3686C59.5388 31.7686 59.5886 32.1712 59.6283 32.5738C59.6679 32.9772 59.6975 33.3806 59.7177 33.7857C59.738 34.1899 59.7472 34.595 59.7472 35.0001C59.7472 35.4043 59.738 35.8094 59.7177 36.2137C59.6975 36.6188 59.6679 37.0222 59.6283 37.4256C59.5886 37.8281 59.5388 38.2307 59.4797 38.6307C59.4206 39.0316 59.3514 39.4308 59.2721 39.8283C59.1928 40.2249 59.1042 40.6199 59.0063 41.0132C58.9075 41.4056 58.7995 41.7964 58.6822 42.1837C58.564 42.5711 58.4375 42.9559 58.3007 43.3374C58.1649 43.7189 58.0189 44.0961 57.8636 44.4708C57.7091 44.8447 57.5446 45.2152 57.3716 45.5814C57.1985 45.9469 57.0163 46.3089 56.8255 46.6659C56.6348 47.0237 56.4348 47.3757 56.2263 47.7234C56.0187 48.0702 55.8018 48.4129 55.5765 48.7496C55.352 49.0863 55.1191 49.4172 54.8777 49.7429C54.6363 50.0678 54.3874 50.3869 54.13 50.7C53.8734 51.0131 53.6084 51.3203 53.3367 51.6199C53.0649 51.9203 52.7856 52.2131 52.4995 52.5001C52.2125 52.7862 51.9197 53.0655 51.6192 53.3373C51.3196 53.609 51.0124 53.874 50.6993 54.1306C50.3862 54.388 50.0672 54.637 49.7423 54.8783C49.4165 55.1197 49.0857 55.3526 48.749 55.5779C48.4123 55.8024 48.0696 56.0193 47.7228 56.2278C47.375 56.4354 47.0231 56.6354 46.6653 56.8261C46.3083 57.0169 45.9471 57.1992 45.5808 57.3722C45.2146 57.5452 44.8441 57.7097 44.4702 57.865C44.0963 58.0195 43.7182 58.1655 43.3368 58.3022C42.9553 58.4381 42.5713 58.5655 42.1831 58.6828C41.7957 58.8001 41.4058 58.9081 41.0126 59.0069C40.6201 59.1056 40.2252 59.1942 39.8277 59.2727C39.4302 59.3521 39.031 59.4213 38.631 59.4812C38.2301 59.5403 37.8284 59.5901 37.425 59.6297C37.0224 59.6694 36.6182 59.6989 36.2139 59.7192C35.8088 59.7386 35.4046 59.7487 34.9995 59.7487C34.5944 59.7487 34.1893 59.7386 33.785 59.7192C33.3808 59.6989 32.9765 59.6694 32.5731 59.6297C32.1706 59.5901 31.7689 59.5403 31.368 59.4812C30.9671 59.4213 30.5679 59.3521 30.1713 59.2736C29.7738 59.1942 29.3788 59.1056 28.9855 59.0069C28.5931 58.909 28.2024 58.801 27.815 58.6828C27.4276 58.5655 27.0428 58.4389 26.6613 58.3022C26.2807 58.1655 25.9026 58.0203 25.5287 57.865C25.154 57.7097 24.7844 57.546 24.4181 57.373C24.0518 57.2 23.6898 57.0177 23.3328 56.827C22.9758 56.6354 22.623 56.4362 22.2762 56.2278C21.9285 56.0193 21.5867 55.8033 21.25 55.5779C20.9132 55.3535 20.5815 55.1197 20.2566 54.8783C19.9309 54.6378 19.6119 54.388 19.2988 54.1314C18.9857 53.874 18.6793 53.6099 18.3789 53.3381C18.0793 53.0655 17.7856 52.787 17.4995 52.5001C17.2125 52.214 16.934 51.9203 16.6614 51.6207C16.3897 51.3203 16.1255 51.0139 15.8681 50.7008C15.6116 50.3877 15.3618 50.0687 15.1212 49.7429C14.8799 49.418 14.6461 49.0872 14.4216 48.7505C14.1963 48.4137 13.9794 48.0711 13.7718 47.7242C13.5633 47.3765 13.3633 47.0237 13.1726 46.6668C12.9818 46.3098 12.7996 45.9477 12.6265 45.5823C12.4535 45.216 12.289 44.8455 12.1345 44.4717C11.9792 44.097 11.8332 43.7197 11.6974 43.3382C11.5606 42.9568 11.4332 42.5719 11.3159 42.1846C11.1986 41.7972 11.0906 41.4065 10.9918 41.014C10.8939 40.6207 10.8045 40.2258 10.726 39.8291C10.6467 39.4316 10.5774 39.0324 10.5184 38.6316C10.4585 38.2315 10.4095 37.829 10.3698 37.4264C10.3293 37.023 10.2998 36.6196 10.2804 36.2145C10.2601 35.8103 10.25 35.4052 10.25 35.0009C10.25 34.5958 10.2601 34.1907 10.2804 33.7865C10.2998 33.3814 10.3293 32.978 10.369 32.5746C10.4087 32.172 10.4585 31.7695 10.5184 31.3694C10.5774 30.9686 10.6467 30.5694 10.726 30.1719C10.8045 29.7752 10.8931 29.3803 10.9918 28.987C11.0906 28.5946 11.1986 28.2038 11.3159 27.8164C11.4332 27.4291 11.5606 27.0442 11.6965 26.6628C11.8332 26.2813 11.9792 25.9041 12.1337 25.5294C12.289 25.1555 12.4527 24.785 12.6265 24.4187C12.7996 24.0533 12.981 23.6913 13.1726 23.3343C13.3633 22.9764 13.5625 22.6245 13.7709 22.2768C13.9794 21.9299 14.1963 21.5873 14.4208 21.2506C14.6461 20.9138 14.879 20.583 15.1204 20.2581C15.3618 19.9323 15.6107 19.6133 15.8673 19.3002C16.1247 18.9871 16.3888 18.6808 16.6614 18.3803C16.9332 18.0799 17.2125 17.787 17.4986 17.5001C17.7847 17.214 18.0784 16.9346 18.378 16.6629C18.6785 16.3911 18.9848 16.1262 19.2979 15.8696C19.611 15.6122 19.9309 15.3632 20.2558 15.1219C20.5807 14.8805 20.9124 14.6476 21.2491 14.4222C21.5858 14.1977 21.9276 13.9808 22.2753 13.7724C22.6222 13.5648 22.975 13.3648 23.332 13.174C23.6889 12.9833 24.051 12.801 24.4173 12.628C24.7835 12.455 25.1532 12.2904 25.5279 12.1351C25.9018 11.9807 26.2799 11.8347 26.6613 11.698C27.0419 11.5621 27.4268 11.4347 27.8141 11.3174C28.2015 11.2001 28.5923 11.092 28.9847 10.9933C29.378 10.8945 29.7729 10.8059 30.1704 10.7274C30.5671 10.6481 30.9663 10.5789 31.3671 10.519C31.768 10.4599 32.1697 10.4101 32.5723 10.3705C32.9757 10.3308 33.3799 10.3013 33.7842 10.281C34.1884 10.2616 34.5935 10.2515 34.9986 10.2515C35.4037 10.2515 35.808 10.2616 36.2131 10.281C36.6173 10.3013 37.0216 10.3308 37.4241 10.3705C37.8275 10.4101 38.2292 10.4599 38.6301 10.519C39.0301 10.5789 39.4293 10.6481 39.8268 10.7266C40.2243 10.8059 40.6193 10.8945 41.0117 10.9933C41.405 11.0912 41.7949 11.1992 42.1823 11.3174C42.5705 11.4347 42.9545 11.5613 43.3359 11.698C43.7174 11.8347 44.0955 11.9799 44.4694 12.1351C44.8432 12.2904 45.2137 12.4542 45.58 12.6272C45.9463 12.8002 46.3075 12.9825 46.6653 13.1732C47.0223 13.3648 47.3742 13.5639 47.7219 13.7724C48.0696 13.9808 48.4114 14.1969 48.7481 14.4222C49.0849 14.6467 49.4157 14.8805 49.7415 15.1219C50.0664 15.3632 50.3854 15.6122 50.6985 15.8687C51.0116 16.1262 51.3188 16.3903 51.6184 16.6621C51.9188 16.9346 52.2117 17.2131 52.4986 17.5001Z" fill="#ECEFF1"/>
<path fill-rule="evenodd" clip-rule="evenodd" d="M34.9986 10.2515C21.3293 10.2515 10.25 21.3307 10.25 35.0001C10.25 48.6694 21.3293 59.7487 34.9986 59.7487C35.6611 59.7487 36.3177 59.7217 36.9667 59.6711C24.2181 58.6676 14.187 48.0069 14.187 35.0001C14.187 21.9932 24.2181 11.3326 36.9667 10.3291C36.3177 10.2785 35.6611 10.2515 34.9986 10.2515Z" fill="#D1D1D6"/>
<path fill-rule="evenodd" clip-rule="evenodd" d="M38.4339 42.4375C40.1935 41.7193 42.289 42.0738 43.7169 43.5026C45.0588 44.8436 45.4529 46.7728 44.901 48.4607L41.4408 45.0006L38.9892 45.6571L38.3326 48.1088L41.7928 51.569C40.1049 52.1209 38.1756 51.7268 36.8346 50.3849C35.4058 48.957 35.0513 46.8614 35.7695 45.1018L23.0758 32.4081C21.3162 33.1263 19.2207 32.7718 17.7927 31.343C16.4508 30.002 16.0567 28.0727 16.6086 26.3849L20.0688 29.845L22.5205 29.1884L23.1771 26.7368L19.7169 23.2766C21.4039 22.7247 23.334 23.1188 24.6751 24.4607C26.1039 25.8886 26.4583 27.9841 25.7401 29.7438L38.4339 42.4375Z" fill="#9FACBA"/>
<path fill-rule="evenodd" clip-rule="evenodd" d="M39.5533 42.132C41.0293 41.9092 42.5881 42.3658 43.7249 43.5025C45.0659 44.8436 45.46 46.7728 44.9081 48.4607L43.6827 47.2353C43.7629 45.8943 43.2902 44.5271 42.2657 43.5025C41.5019 42.7379 40.5466 42.2814 39.5533 42.132ZM38.9963 45.6571H37.5379L36.8813 48.1088L40.3415 51.5689C40.0833 51.6533 39.82 51.7158 39.5541 51.7563C40.3035 51.8685 41.0741 51.8069 41.7998 51.5689L38.3397 48.1088L38.9963 45.6571ZM16.3828 27.6111C16.4081 27.1959 16.4849 26.784 16.6157 26.3857L20.0759 29.8459L18.9256 30.1539L16.3828 27.6111ZM20.5122 23.0901C21.9883 22.8681 23.5462 23.3247 24.683 24.4607C26.1109 25.8886 26.4662 27.9841 25.7472 29.7446L38.4409 42.4375C38.0502 42.494 37.6645 42.5978 37.2932 42.7489L24.2889 29.7446C25.0079 27.9841 24.6526 25.8895 23.2247 24.4607C22.46 23.696 21.5047 23.2395 20.5122 23.0901Z" fill="#8D9CA8"/>
<path fill-rule="evenodd" clip-rule="evenodd" d="M49.4406 38.7659L47.7266 40.4808C47.5561 40.6504 47.2785 40.6504 47.108 40.4808L30.3338 23.7066C30.2865 23.6593 30.2384 23.6281 30.176 23.6053L27.8636 22.7496C27.769 22.715 27.6981 22.6567 27.645 22.5715L25.2313 18.7147C25.1224 18.54 25.1477 18.3197 25.2929 18.1737L27.1335 16.3331C27.2795 16.1871 27.5007 16.1618 27.6754 16.2715L31.5313 18.6843C31.6174 18.7375 31.6748 18.8092 31.7102 18.9037L32.566 21.2153C32.5888 21.2777 32.62 21.3267 32.6664 21.3731L49.4406 38.1473C49.6111 38.3178 49.6111 38.5954 49.4406 38.7659Z" fill="#9FACBA"/>
<path fill-rule="evenodd" clip-rule="evenodd" d="M49.4422 38.7656L47.7282 40.4804C47.5577 40.6501 47.28 40.6501 47.1095 40.4804L46.6893 40.0602L47.9839 38.7656C48.1543 38.5959 48.1543 38.3174 47.9839 38.1469L31.2097 21.3727C31.1632 21.3263 31.132 21.2774 31.1092 21.2158L30.2535 18.9034C30.218 18.8088 30.1606 18.7379 30.0754 18.6839L26.8203 16.6483L27.1359 16.3327C27.2811 16.1867 27.5022 16.1622 27.6769 16.2711L31.5337 18.6839C31.619 18.7379 31.6764 18.8088 31.7118 18.9034L32.5676 21.2158C32.5904 21.2774 32.6216 21.3263 32.6688 21.3736L49.443 38.1478C49.6127 38.3174 49.6127 38.5951 49.4422 38.7656Z" fill="#8D9CA8"/>
<path fill-rule="evenodd" clip-rule="evenodd" d="M54.9627 42.0371L50.9944 46.0045C50.8248 46.175 50.5463 46.175 50.3758 46.0045L41.0756 36.7034C40.6831 36.3118 40.6831 35.6704 41.0756 35.2788L44.237 32.1174C44.6286 31.7258 45.2691 31.7258 45.6616 32.1174L54.9627 41.4185C55.1323 41.589 55.1323 41.8667 54.9627 42.0371Z" fill="#E3A76F"/>
<path fill-rule="evenodd" clip-rule="evenodd" d="M54.9613 42.0371L50.9931 46.0045C50.8234 46.175 50.5449 46.175 50.3745 46.0045L49.955 45.5842L53.503 42.0371C53.6726 41.8667 53.6726 41.589 53.503 41.4185L44.2188 32.1343L44.2356 32.1174C44.6272 31.7258 45.2686 31.7258 45.6602 32.1174L54.9613 41.4185C55.1309 41.589 55.1309 41.8667 54.9613 42.0371Z" fill="#C48958"/>
</svg>
