<svg width="91" height="61" viewBox="0 0 91 61" fill="none" xmlns="http://www.w3.org/2000/svg">
<path d="M2.94037 48.7796C1.10248 48.5633 -0.202649 46.9808 0.0259938 45.2452C0.254637 43.5085 1.92953 42.2758 3.76742 42.4911C5.60532 42.7074 6.91045 44.2899 6.6818 46.0255C6.45425 47.7622 4.77936 48.9949 2.94037 48.7796ZM82.1077 37.9392H75.0198V16.309C78.5468 15.5897 81.3715 12.8377 81.8408 9.26386C82.4359 4.74407 79.038 0.624828 74.254 0.0638653C69.4689 -0.498132 65.1083 2.71136 64.5143 7.23115C64.4038 8.07052 64.4311 8.8954 64.5799 9.68717H34.9209V3.78361C34.9209 3.51968 34.6933 3.30441 34.4132 3.30441H3.86151C3.58145 3.30441 3.3539 3.51968 3.3539 3.78361V23.9689C3.3539 24.2329 3.58145 24.4481 3.86151 24.4481H11.503V48.5126C8.33153 48.5095 5.58125 50.7389 5.18085 53.7879C4.74654 57.0864 7.22551 60.092 10.7175 60.5019C14.2084 60.9117 17.3908 58.5696 17.8251 55.2721C17.9652 54.2009 17.7978 53.1628 17.3897 52.2324H51.0484V58.6037C51.0484 58.8676 51.2759 59.0829 51.556 59.0829H82.1077C82.3878 59.0829 82.6153 58.8676 82.6153 58.6037V38.4184C82.6153 38.1545 82.3878 37.9392 82.1077 37.9392ZM86.1095 11.3877C83.5562 11.0885 81.2293 12.8004 80.9131 15.2119C80.5958 17.6234 82.4086 19.8218 84.9608 20.1219C87.5142 20.421 89.8411 18.7091 90.1584 16.2976C90.4756 13.8851 88.6629 11.6878 86.1095 11.3877Z" fill="#9FCDFF"/>
<path d="M14.1153 11.2449C14.1153 11.602 13.8101 11.8907 13.4326 11.8907C13.0563 11.8907 12.75 11.602 12.75 11.2449C12.75 10.8889 13.0563 10.6001 13.4326 10.6001C13.8101 10.6001 14.1153 10.8889 14.1153 11.2449ZM15.9018 10.6001C15.5254 10.6001 15.2191 10.8889 15.2191 11.2449C15.2191 11.602 15.5254 11.8907 15.9018 11.8907C16.2792 11.8907 16.5844 11.602 16.5844 11.2449C16.5844 10.8889 16.2792 10.6001 15.9018 10.6001ZM18.4136 10.6001C18.0361 10.6001 17.7309 10.8889 17.7309 11.2449C17.7309 11.602 18.0361 11.8907 18.4136 11.8907C18.791 11.8907 19.0962 11.602 19.0962 11.2449C19.0962 10.8889 18.791 10.6001 18.4136 10.6001ZM43.9888 21.4126L42.5677 20.1147L42.6935 21.4385C35.9687 21.8846 30.6662 27.1785 30.6662 33.642C30.6662 36.1094 31.4396 38.406 32.7677 40.3259L33.1627 36.5369L37.0726 37.3742C36.3724 36.2833 35.9687 35.0082 35.9687 33.642C35.9687 29.7939 39.1544 26.6507 43.1683 26.4323L43.316 28.0055L44.6276 26.4789L46.7839 23.968L43.9888 21.4126Z" fill="#1DDD92"/>
<path d="M65.9017 12.8037H11.5V16.4955H75.0179V12.8037H65.9017ZM52.9971 15.2266H33.5208V14.0954H52.9971V15.2266ZM51.4447 40.648L55.3469 38.844C54.381 40.7856 52.8899 42.4478 51.0465 43.668C48.9438 45.0622 46.3817 45.8798 43.6183 45.8798C39.5246 45.8798 35.8729 44.0841 33.5001 41.2824L32.5975 41.9458L32.7649 40.3261L33.1598 36.537L37.0697 37.3743L38.4219 37.662L37.6867 38.2043C39.0881 39.8293 41.2225 40.8705 43.6183 40.8705C46.5754 40.8705 49.1375 39.2818 50.4109 36.9603L51.0465 39.2269L51.4447 40.648ZM48.1759 32.4747H38.342V30.9657H48.1759V32.4747ZM39.715 35.029V33.52H46.8029V35.029H39.715ZM62.7029 29.2745C65.2092 29.2745 67.2408 27.3556 67.2408 24.9886C67.2408 22.6216 65.2092 20.7027 62.7029 20.7027C60.1977 20.7027 58.1661 22.6216 58.1661 24.9886C58.1661 27.3556 60.1977 29.2745 62.7029 29.2745ZM60.236 23.1142C60.236 23.0656 60.2775 23.0252 60.329 23.0252H65.0779C65.1294 23.0252 65.1709 23.0656 65.1709 23.1142V26.1198C65.1709 26.1685 65.1294 26.2078 65.0779 26.2078H64.473L64.5627 26.8888C64.5692 26.9365 64.5124 26.9696 64.4697 26.9406L63.3834 26.2078H60.329C60.2775 26.2078 60.236 26.1685 60.236 26.1198V23.1142ZM24.4604 20.7027C22.1489 20.7027 20.2453 22.337 19.9631 24.4483C19.939 24.6253 19.9226 24.8054 19.9226 24.9886C19.9226 27.3556 21.9541 29.2745 24.4604 29.2745C26.9668 29.2745 28.9983 27.3556 28.9983 24.9886C28.9983 24.8054 28.9819 24.6253 28.9578 24.4483C28.6756 22.337 26.772 20.7027 24.4604 20.7027ZM21.1938 25.7131C21.1938 25.3695 21.382 25.0662 21.6653 24.8913C21.5406 24.7754 21.4586 24.6202 21.4334 24.4483C21.4279 24.4132 21.4214 24.379 21.4214 24.3428C21.4214 23.9184 21.7857 23.5748 22.2342 23.5748C22.6838 23.5748 23.0481 23.9184 23.0481 24.3428C23.0481 24.379 23.0415 24.4132 23.0361 24.4483C23.0109 24.6202 22.9289 24.7754 22.8031 24.8913C23.0875 25.0662 23.2757 25.3695 23.2757 25.7131H21.1938ZM23.2221 26.4024C23.2221 25.9925 23.4452 25.6324 23.7833 25.4233C23.605 25.2577 23.4934 25.0269 23.4934 24.7713C23.4934 24.6574 23.5174 24.5487 23.5579 24.4483C23.6968 24.1037 24.0469 23.8574 24.4604 23.8574C24.874 23.8574 25.224 24.1037 25.363 24.4483C25.4035 24.5487 25.4275 24.6574 25.4275 24.7713C25.4275 25.0269 25.3159 25.2577 25.1376 25.4233C25.4746 25.6324 25.6988 25.9925 25.6988 26.4024H23.2221ZM25.6452 25.7131C25.6452 25.3695 25.8334 25.0662 26.1178 24.8913C25.992 24.7754 25.91 24.6202 25.8848 24.4483C25.8793 24.4132 25.8728 24.379 25.8728 24.3428C25.8728 23.9184 26.2371 23.5748 26.6867 23.5748C27.1352 23.5748 27.4995 23.9184 27.4995 24.3428C27.4995 24.379 27.493 24.4132 27.4875 24.4483C27.4623 24.6202 27.3803 24.7754 27.2556 24.8913C27.5389 25.0662 27.7271 25.3695 27.7271 25.7131H25.6452ZM21.778 37.0628C19.2717 37.0628 17.2401 38.9827 17.2401 41.3497C17.2401 43.7167 19.2717 45.6356 21.778 45.6356C24.2832 45.6356 26.3148 43.7167 26.3148 41.3497C26.3148 38.9827 24.2832 37.0628 21.778 37.0628ZM23.1783 43.3151L22.895 43.9506L21.9399 42.1114C21.8841 42.0845 21.8283 42.0648 21.778 42.0648C21.7266 42.0648 21.6719 42.0845 21.6161 42.1114L20.661 43.9506L20.3766 43.3151L19.6721 43.4921L20.6457 41.6177C20.4619 41.4749 19.9456 41.5329 19.8559 41.3279C19.7662 41.124 20.2016 40.8104 20.2016 40.5755C20.2016 40.3416 19.7662 40.027 19.8559 39.8231C19.9478 39.6119 20.4948 39.6823 20.6632 39.5229C20.8317 39.3635 20.7584 38.8471 20.9816 38.7601C21.1971 38.6753 21.5297 39.0872 21.778 39.0872C22.0252 39.0872 22.3589 38.6753 22.5744 38.7601C22.7976 38.8471 22.7243 39.3635 22.8928 39.5229C23.0612 39.6823 23.6071 39.6119 23.7001 39.8231C23.7898 40.027 23.3544 40.3416 23.3544 40.5755C23.3544 40.8104 23.7898 41.124 23.7001 41.3279C23.6104 41.5329 23.0941 41.4749 22.9103 41.6177L23.8839 43.4921L23.1783 43.3151ZM63.8582 36.3217C62.4207 36.3217 61.1429 36.9551 60.3115 37.9394C59.6923 38.6722 59.3203 39.5985 59.3203 40.6076C59.3203 42.9756 61.3518 44.8945 63.8582 44.8945C66.3645 44.8945 68.396 42.9756 68.396 40.6076C68.396 39.5985 68.024 38.6722 67.4049 37.9394C66.5734 36.9551 65.2957 36.3217 63.8582 36.3217ZM63.8319 38.105H64.0802V38.5863H63.8319V38.105ZM61.447 41.034H60.9372V40.8001H61.447V41.034ZM61.8124 38.9382L61.9885 38.7726L62.3485 39.1131L62.1734 39.2787L61.8124 38.9382ZM64.7837 41.9386V43.0481C64.7837 43.0833 64.753 43.1112 64.7158 43.1112H63.0016C62.9644 43.1112 62.9337 43.0833 62.9337 43.0481V41.9396C62.5257 41.6664 62.2587 41.2172 62.2587 40.708C62.2587 39.8738 62.9753 39.1969 63.8582 39.1969C64.741 39.1969 65.4576 39.8738 65.4576 40.708C65.4576 41.2162 65.1906 41.6653 64.7837 41.9386ZM65.6993 39.3697L65.5232 39.2041L65.8842 38.8636L66.0592 39.0292L65.6993 39.3697ZM66.7791 41.034H66.2693V40.8001H66.7791V41.034Z" fill="#984FFF"/>
<path d="M34.919 12.8034H75.0179V10.6495C75.0179 10.5937 75.0102 10.5388 75.0004 10.485C74.9173 10.0327 74.5026 9.68701 73.9994 9.68701H12.5196C11.9562 9.68701 11.5 10.1176 11.5 10.6495V12.8034H34.919ZM61.9995 10.8224H72.7019C72.9634 10.8224 73.1756 11.0232 73.1756 11.2695C73.1756 11.5169 72.9634 11.7177 72.7019 11.7177H61.9995C61.738 11.7177 61.5258 11.5169 61.5258 11.2695C61.5258 11.0232 61.738 10.8224 61.9995 10.8224ZM18.4107 10.5999C18.7881 10.5999 19.0934 10.8886 19.0934 11.2447C19.0934 11.6017 18.7881 11.8905 18.4107 11.8905C18.0333 11.8905 17.7281 11.6017 17.7281 11.2447C17.7281 10.8886 18.0333 10.5999 18.4107 10.5999ZM15.8989 10.5999C16.2763 10.5999 16.5816 10.8886 16.5816 11.2447C16.5816 11.6017 16.2763 11.8905 15.8989 11.8905C15.5226 11.8905 15.2163 11.6017 15.2163 11.2447C15.2163 10.8886 15.5226 10.5999 15.8989 10.5999ZM13.4298 10.5999C13.8072 10.5999 14.1124 10.8886 14.1124 11.2447C14.1124 11.6017 13.8072 11.8905 13.4298 11.8905C13.0535 11.8905 12.7471 11.6017 12.7471 11.2447C12.7471 10.8886 13.0535 10.5999 13.4298 10.5999ZM50.9568 35.6797C51.1603 35.0338 51.2697 34.3497 51.2697 33.6418C51.2697 29.9727 48.3728 26.9454 44.6248 26.4786L46.781 23.9678L43.9859 21.4124C50.971 21.5987 56.5733 27.0003 56.5733 33.6418C56.5733 35.1011 56.2987 36.5004 55.802 37.7993L56.1204 37.939L56.7286 38.2061L55.3469 38.8436L51.4447 40.6476L51.0465 39.2266L50.4109 36.9599L49.9252 35.2284L50.9568 35.6797ZM64.2531 24.3021H61.1538V23.7835H64.2531V24.3021ZM61.1538 24.7854H64.2531V25.3039H61.1538V24.7854ZM21.778 39.4729C22.4224 39.4729 22.9453 39.9666 22.9453 40.5751C22.9453 41.0078 22.6794 41.3783 22.2955 41.5594C22.2681 41.5718 22.2418 41.5863 22.2134 41.5967C22.0788 41.6484 21.9322 41.6784 21.778 41.6784C21.6237 41.6784 21.4771 41.6484 21.3415 41.5967C21.3131 41.5863 21.2868 41.5718 21.2594 41.5594C20.8766 41.3783 20.6107 41.0078 20.6107 40.5751C20.6107 39.9666 21.1325 39.4729 21.778 39.4729ZM64.7837 42.1742H62.9337V41.9403H64.7837V42.1742ZM64.7837 42.5861H62.9337V42.3522H64.7837V42.5861ZM75.0179 50.1301V51.2676C75.0179 51.7996 74.5606 52.2322 73.9983 52.2322H12.5218C11.9584 52.2322 11.5011 51.7996 11.5011 51.2676V50.1301H75.0179Z" fill="#5285FF"/>
<path d="M17.3874 52.2321C17.7955 53.1626 17.9628 54.2007 17.8228 55.2719C17.3885 58.5694 14.2061 60.9115 10.7152 60.5017C7.22318 60.0918 4.74421 57.0862 5.17852 53.7877C5.57892 50.7387 8.3292 48.5093 11.5007 48.5124V51.2675C11.5007 51.7995 11.9579 52.2321 12.5213 52.2321H17.3874ZM82.1054 37.939H75.0175V51.2675C75.0175 51.7995 74.5602 52.2321 73.9979 52.2321H51.0461V58.6035C51.0461 58.8674 51.2736 59.0827 51.5537 59.0827H82.1054C82.3855 59.0827 82.613 58.8674 82.613 58.6035V38.4182C82.613 38.1543 82.3855 37.939 82.1054 37.939ZM11.5007 16.4951H11.4996V10.6495C11.4996 10.1175 11.9558 9.68696 12.5192 9.68696H34.9185V3.7834C34.9185 3.51948 34.691 3.3042 34.4109 3.3042H3.85917C3.57911 3.3042 3.35156 3.51948 3.35156 3.7834V23.9687C3.35156 24.2327 3.57911 24.4479 3.85917 24.4479H11.5007V16.4951ZM52.9966 14.095H33.5204V15.2262H52.9966V14.095ZM61.999 11.7176H72.7015C72.963 11.7176 73.1752 11.5168 73.1752 11.2695C73.1752 11.0231 72.963 10.8223 72.7015 10.8223H61.999C61.7376 10.8223 61.5253 11.0231 61.5253 11.2695C61.5253 11.5168 61.7376 11.7176 61.999 11.7176ZM60.2355 26.1194V23.1138C60.2355 23.0652 60.2771 23.0248 60.3285 23.0248H65.0775C65.1289 23.0248 65.1705 23.0652 65.1705 23.1138V26.1194C65.1705 26.1681 65.1289 26.2074 65.0775 26.2074H64.4725L64.5622 26.8884C64.5688 26.936 64.5119 26.9692 64.4693 26.9402L63.3829 26.2074H60.3285C60.2771 26.2074 60.2355 26.1681 60.2355 26.1194ZM61.1534 24.302H64.2526V23.7835H61.1534V24.302ZM61.1534 25.3039H64.2526V24.7853H61.1534V25.3039ZM25.1372 25.4229C25.3155 25.2573 25.4271 25.0265 25.4271 24.7709C25.4271 24.657 25.403 24.5483 25.3626 24.4479C25.2236 24.1033 24.8735 23.857 24.46 23.857C24.0465 23.857 23.6964 24.1033 23.5575 24.4479C23.517 24.5483 23.4929 24.657 23.4929 24.7709C23.4929 25.0265 23.6045 25.2573 23.7828 25.4229C23.4448 25.632 23.2216 25.9921 23.2216 26.402H25.6984C25.6984 25.9921 25.4741 25.632 25.1372 25.4229ZM27.2551 24.8909C27.3799 24.775 27.4619 24.6197 27.4871 24.4479C27.4925 24.4127 27.4991 24.3786 27.4991 24.3424C27.4991 23.918 27.1348 23.5744 26.6863 23.5744C26.2366 23.5744 25.8724 23.918 25.8724 24.3424C25.8724 24.3786 25.8789 24.4127 25.8844 24.4479C25.9095 24.6197 25.9916 24.775 26.1174 24.8909C25.833 25.0658 25.6448 25.3691 25.6448 25.7127H27.7267C27.7267 25.3691 27.5385 25.0658 27.2551 24.8909ZM21.1934 25.7127H23.2752C23.2752 25.3691 23.0871 25.0658 22.8026 24.8909C22.9284 24.775 23.0105 24.6197 23.0356 24.4479C23.0411 24.4127 23.0477 24.3786 23.0477 24.3424C23.0477 23.918 22.6834 23.5744 22.2338 23.5744C21.7852 23.5744 21.4209 23.918 21.4209 24.3424C21.4209 24.3786 21.4275 24.4127 21.433 24.4479C21.4581 24.6197 21.5402 24.775 21.6649 24.8909C21.3815 25.0658 21.1934 25.3691 21.1934 25.7127ZM20.9811 42.3915C20.758 42.3035 20.8313 41.7871 20.6628 41.6287C20.6584 41.6235 20.6508 41.6215 20.6453 41.6173L19.6716 43.4917L20.3762 43.3147L20.6606 43.9502L21.6157 42.111C21.3969 42.2145 21.1529 42.4588 20.9811 42.3915ZM22.8923 41.6287C22.7239 41.7871 22.7972 42.3035 22.574 42.3915C22.4022 42.4588 22.1572 42.2145 21.9395 42.111L22.8945 43.9502L23.1779 43.3147L23.8835 43.4917L22.9098 41.6173C22.9044 41.6215 22.8967 41.6235 22.8923 41.6287ZM64.7832 41.9382C65.1902 41.6649 65.4571 41.2157 65.4571 40.7076C65.4571 39.8734 64.7406 39.1965 63.8577 39.1965C62.9749 39.1965 62.2583 39.8734 62.2583 40.7076C62.2583 41.2168 62.5252 41.666 62.9333 41.9392V41.9402H64.7832V41.9382ZM62.9333 43.0477C62.9333 43.0829 62.9639 43.1108 63.0011 43.1108H64.7154C64.7526 43.1108 64.7832 43.0829 64.7832 43.0477V42.5861H62.9333V43.0477ZM64.7832 42.1741H62.9333V42.3522H64.7832V42.1741ZM64.0798 38.1046H63.8315V38.5858H64.0798V38.1046ZM61.812 38.9377L62.173 39.2783L62.348 39.1127L61.9881 38.7721L61.812 38.9377ZM65.6989 39.3693L66.0588 39.0288L65.8838 38.8632L65.5228 39.2037L65.6989 39.3693ZM66.7787 41.0336V40.7997H66.2689V41.0336H66.7787ZM61.4466 41.0336V40.7997H60.9368V41.0336H61.4466ZM86.1072 11.3874C83.5538 11.0883 81.2269 12.8002 80.9108 15.2117C80.5935 17.6232 82.4062 19.8215 84.9585 20.1217C87.5119 20.4208 89.8388 18.7089 90.156 16.2974C90.4733 13.8849 88.6606 11.6876 86.1072 11.3874Z" fill="#91CEC8"/>
</svg>
