<svg width="69" height="69" viewBox="0 0 69 69" fill="none" xmlns="http://www.w3.org/2000/svg">
<mask id="mask0_638_514" style="mask-type:luminance" maskUnits="userSpaceOnUse" x="0" y="0" width="69" height="69">
<path d="M0 0H69V69H0V0Z" fill="white"/>
</mask>
<g mask="url(#mask0_638_514)">
<path fill-rule="evenodd" clip-rule="evenodd" d="M34.5 68.9985C25.2844 68.9985 16.6211 65.4106 10.1049 58.8944C3.58876 52.3783 0 43.7142 0 34.4985C0 25.2837 3.58876 16.6196 10.1049 10.1035C16.6211 3.58729 25.2844 -0.00146484 34.5 -0.00146484C43.7156 -0.00146484 52.3797 3.58729 58.8959 10.1035C65.4121 16.6196 69 25.2837 69 34.4985C69 43.7142 65.4121 52.3783 58.8959 58.8944C52.3797 65.4106 43.7156 68.9985 34.5 68.9985Z" fill="#B5D5F5"/>
</g>
<path fill-rule="evenodd" clip-rule="evenodd" d="M34.5 2.15527C16.666 2.15527 2.15625 16.665 2.15625 34.499C2.15625 52.3338 16.666 66.8428 34.5 66.8428C52.3348 66.8428 66.8438 52.3338 66.8438 34.499C66.8438 16.665 52.3348 2.15527 34.5 2.15527Z" fill="white"/>
<path fill-rule="evenodd" clip-rule="evenodd" d="M37.668 62.4629H31.1992C30.6036 62.4629 30.1211 61.9804 30.1211 61.3848V58.1063C26.7162 57.4899 23.3063 56.0058 20.3489 53.8529L18.0438 56.1589C17.6228 56.5798 16.9399 56.5798 16.5189 56.1589L12.7072 52.3463C12.2863 51.9254 12.2854 51.2424 12.7072 50.8215L15.0124 48.5163C12.8594 45.559 11.3754 42.1499 10.7589 38.7441H7.48047C6.88484 38.7441 6.40234 38.2616 6.40234 37.666V31.1973C6.40234 30.6016 6.88567 30.1191 7.48047 30.1191H10.7589C11.3754 26.7142 12.8594 23.3043 15.0124 20.347L12.7072 18.0418C12.2863 17.6209 12.2863 16.9379 12.7072 16.517L16.5189 12.7053C16.9407 12.2835 17.6228 12.2835 18.0438 12.7053L20.3489 15.0104C23.3063 12.8575 26.7162 11.3734 30.1211 10.757V7.47852C30.1211 6.88288 30.6044 6.40039 31.1992 6.40039H37.668C38.2636 6.40039 38.7461 6.88288 38.7461 7.47852V10.757C42.1518 11.3734 45.5609 12.8575 48.5183 15.0104L50.8234 12.7053C51.2452 12.2835 51.9273 12.2835 52.3483 12.7053L56.1608 16.517C56.5817 16.9379 56.5817 17.6209 56.1608 18.0418L53.8557 20.347C56.0077 23.3043 57.4918 26.7142 58.1083 30.1191H61.3867C61.9823 30.1191 62.4648 30.6016 62.4648 31.1973V37.666C62.4648 38.2616 61.9823 38.7441 61.3867 38.7441H58.1083C57.4918 42.1491 56.0086 45.559 53.8548 48.5163L56.1608 50.8215C56.5817 51.2424 56.5817 51.9254 56.1608 52.3463L52.3483 56.1589C51.9273 56.5798 51.2452 56.579 50.8234 56.1589L48.5183 53.8529C45.5609 56.0058 42.1518 57.4899 38.7461 58.1063V61.3848C38.7461 61.9804 38.2636 62.4629 37.668 62.4629Z" fill="#8295B3"/>
<path fill-rule="evenodd" clip-rule="evenodd" d="M34.4999 53.6512C23.9408 53.6512 15.3516 45.0612 15.3516 34.5029C15.3516 23.9437 23.9408 15.3545 34.4999 15.3545C45.0582 15.3545 53.6483 23.9437 53.6483 34.5029C53.6483 45.0612 45.0582 53.6512 34.4999 53.6512Z" fill="white"/>
<path fill-rule="evenodd" clip-rule="evenodd" d="M47.0414 48.961C44.8593 50.8569 42.2447 52.267 39.3681 53.0231L32.9933 40.9233C32.7487 40.9416 32.5042 40.9508 32.2604 40.9508C29.6866 40.9508 27.1784 39.9317 25.3358 38.0899C22.1988 34.9521 21.5674 30.088 23.8001 26.2597C23.969 25.971 24.2618 25.7772 24.5929 25.7339C24.9248 25.6915 25.2576 25.8046 25.4939 26.0409L30.6266 31.1745C30.8304 31.3783 31.1008 31.4906 31.3894 31.4906C31.6773 31.4906 31.9476 31.3783 32.1514 31.1745C32.5724 30.7544 32.5715 30.0706 32.1514 29.6496L26.9946 24.4928C26.7608 24.2582 26.6469 23.9296 26.6868 23.6001C26.7267 23.2715 26.9164 22.9787 27.2001 22.8074C31.0534 20.4797 35.9706 21.0804 39.1576 24.2673C42.4926 27.6023 42.9527 32.8066 40.3464 36.6499L47.0414 48.961Z" fill="#CFD7DB"/>
</svg>
