<svg width="74" height="87" viewBox="0 0 74 87" fill="none" xmlns="http://www.w3.org/2000/svg">
<path d="M71.7853 49.3681C71.3705 50.9207 70.598 52.0911 69.5183 52.9323L67.5352 50.0056L68.5494 48.6209L69.1056 48.3856L69.6492 48.1724L71.7853 49.3681Z" fill="#F7B2B2"/>
<path d="M68.0703 30.1787C70.6962 30.3412 72.0366 32.5882 72.349 35.1497C72.349 35.1497 73.7484 41.9793 73.4466 44.7909C73.3136 46.0342 71.9057 49.2258 71.9057 49.2258C71.5891 49.9034 69.5774 49.0305 69.6492 48.1725C69.9141 45.5171 69.9869 42.9841 69.7833 40.6273L68.0703 30.1787Z" fill="#46C17E"/>
<path d="M73.4458 44.7887C73.4395 44.8668 73.4258 44.9512 73.4089 45.043C73.3983 45.0905 73.3878 45.138 73.3783 45.1855C73.3445 45.3312 73.3034 45.4905 73.2559 45.6594C73.2052 45.8283 73.1514 46.0077 73.0933 46.1871C73.0532 46.3095 73.0089 46.4309 72.9688 46.5533C72.7514 47.1697 72.5012 47.8061 72.2975 48.3011C72.2975 48.3043 72.2975 48.3043 72.2975 48.3043C72.2574 48.4024 72.2163 48.4974 72.1825 48.5818C72.1456 48.6694 72.1118 48.7475 72.0812 48.8182C71.9756 49.0726 71.9081 49.2246 71.9081 49.2246C71.8036 49.442 71.5324 49.499 71.2073 49.4483C71.163 49.442 71.1197 49.4346 71.0754 49.4251C71.068 49.4219 71.0617 49.4219 71.0553 49.4177C71.0173 49.4114 70.9772 49.3977 70.9361 49.3839C70.9054 49.3776 70.8791 49.3702 70.8485 49.3576C70.7978 49.3407 70.7471 49.3196 70.6954 49.2995C70.7397 48.7306 70.8411 48.1649 71.0923 47.651C71.3255 47.1665 71.7012 46.6652 71.5524 46.147C71.5091 45.9908 71.4173 45.8451 71.4205 45.6868C71.4268 45.3375 71.8606 45.1517 71.9862 44.8224C72.0949 44.5449 71.9619 44.2409 71.9556 43.9391C71.945 43.3902 72.3619 42.795 72.0643 42.3338C71.9756 42.1987 71.8342 42.1005 71.7593 41.9549C71.5566 41.538 72.0136 41.101 72.0812 40.6441C72.1624 40.1058 71.6917 39.6456 71.5767 39.1105C71.4374 38.453 71.8099 37.6277 71.3118 37.177C71.1197 37.0008 70.8347 36.9364 70.6891 36.7264C70.3471 36.2419 71.0142 35.5992 70.8822 35.0229C70.801 34.6609 70.4316 34.4372 70.2996 34.092C70.0928 33.5337 70.5498 32.8023 70.154 32.3548C70.0252 32.2092 69.8321 32.1385 69.6864 32.0097C69.2875 31.6677 67.8785 30.6144 68.1318 30.1807C69.8047 30.3063 70.9498 31.2846 71.6337 32.6493V32.6524C71.6411 32.6662 71.6474 32.6799 71.6537 32.6904C71.7519 32.8899 71.8405 33.0999 71.9186 33.3131C71.9493 33.3944 71.9756 33.4757 72.0031 33.5601C72.04 33.6751 72.078 33.7912 72.1086 33.9094C72.1624 34.1026 72.2068 34.2989 72.2469 34.4984C72.2669 34.6071 72.288 34.7147 72.3049 34.8234C72.3218 34.9321 72.3345 35.0398 72.3482 35.1517C72.3482 35.1517 72.63 36.5269 72.9171 38.2979C72.9171 38.3148 72.9213 38.3316 72.9245 38.3485C73.2696 40.5153 73.6115 43.252 73.4458 44.7887Z" fill="#3CAF6D"/>
<path d="M12.4976 10.5349C12.4089 10.5349 12.3234 10.4843 12.2812 10.3988C12.2242 10.2795 12.2749 10.136 12.3942 10.079C12.62 9.97027 12.8628 9.88795 13.1139 9.83518C13.2417 9.80668 13.3704 9.89006 13.3979 10.0199C13.4253 10.1497 13.3419 10.2763 13.2132 10.3038C12.9989 10.3492 12.7931 10.4188 12.601 10.5106C12.5683 10.5275 12.5324 10.5349 12.4976 10.5349Z" fill="#DDE9FE"/>
<path d="M28.7722 31.4537C28.7722 31.4537 28.7722 31.4537 28.7712 31.4537C28.3005 31.4516 27.8308 31.4453 27.3601 31.4347C27.2282 31.4326 27.1226 31.3229 27.1258 31.1899C27.129 31.0579 27.2335 30.9566 27.3707 30.9556C27.8382 30.9661 28.3058 30.9725 28.7733 30.9746C28.9052 30.9746 29.0129 31.0822 29.0118 31.2152C29.0118 31.3471 28.9042 31.4537 28.7722 31.4537ZM30.1791 31.4463C30.0482 31.4463 29.9406 31.3419 29.9395 31.2099C29.9374 31.078 30.043 30.9693 30.176 30.9672C30.6424 30.9608 31.11 30.9503 31.5775 30.9355C31.5797 30.9355 31.5828 30.9355 31.5849 30.9355C31.7137 30.9355 31.8203 31.0379 31.8245 31.1677C31.8287 31.2996 31.7242 31.4105 31.5923 31.4147C31.1227 31.4295 30.6519 31.44 30.1823 31.4463C30.1812 31.4463 30.1802 31.4463 30.1791 31.4463ZM25.9596 31.3925C25.9564 31.3925 25.9532 31.3925 25.9501 31.3915C25.4804 31.3735 25.0107 31.3503 24.5411 31.3239C24.4081 31.3155 24.3078 31.2025 24.3152 31.0706C24.3226 30.9387 24.4355 30.8384 24.5685 30.8447C25.035 30.8722 25.5015 30.8944 25.9691 30.9134C26.101 30.9186 26.2044 31.0294 26.1991 31.1624C26.1939 31.2912 26.0873 31.3925 25.9596 31.3925ZM23.1511 31.231C23.1458 31.231 23.1395 31.231 23.1332 31.23C22.6646 31.1951 22.196 31.155 21.7274 31.1118C21.5954 31.0991 21.4983 30.983 21.511 30.8511C21.5237 30.7192 21.6376 30.6189 21.7717 30.6347C22.2371 30.678 22.7026 30.717 23.169 30.7519C23.301 30.7624 23.4002 30.8775 23.3907 31.0094C23.3801 31.135 23.2756 31.231 23.1511 31.231ZM20.35 30.9703C20.3416 30.9703 20.3331 30.9693 20.3236 30.9682L19.9595 30.9271C19.6144 30.887 19.2672 30.8447 18.9221 30.7983C18.7901 30.7804 18.6983 30.659 18.7163 30.5281C18.7342 30.3973 18.8566 30.3044 18.9864 30.3223C19.3294 30.3688 19.6725 30.411 20.0155 30.4511L20.3764 30.4922C20.5083 30.507 20.6033 30.6252 20.5886 30.7561C20.5748 30.8796 20.4704 30.9703 20.35 30.9703ZM17.5637 30.5841C17.55 30.5841 17.5352 30.582 17.5215 30.5798C17.0255 30.4901 16.5706 30.3941 16.1305 30.2854C16.0017 30.2537 15.9236 30.1239 15.9553 29.9951C15.9869 29.8674 16.1168 29.7893 16.2455 29.8199C16.6751 29.9265 17.1205 30.0205 17.606 30.1081C17.7368 30.1313 17.8234 30.2558 17.7991 30.3867C17.779 30.5017 17.6777 30.5841 17.5637 30.5841ZM14.8376 29.8991C14.8123 29.8991 14.7859 29.8949 14.7606 29.8864C14.5832 29.8263 14.407 29.7619 14.2307 29.6943C13.9605 29.5909 13.6914 29.4769 13.4307 29.3545C13.3115 29.2986 13.2598 29.1561 13.3157 29.0358C13.3716 28.9165 13.5141 28.8637 13.6344 28.9207C13.8846 29.0379 14.1431 29.1476 14.4028 29.2469C14.5727 29.3123 14.7437 29.3746 14.9157 29.4326C15.0413 29.4759 15.1078 29.612 15.0645 29.7366C15.0307 29.8368 14.9379 29.8991 14.8376 29.8991ZM12.2983 28.7054C12.2539 28.7054 12.2096 28.6928 12.1706 28.6674C11.7547 28.4057 11.3642 28.1186 11.0096 27.8147C10.9093 27.7281 10.8977 27.5772 10.9843 27.4769C11.0708 27.3767 11.2217 27.365 11.322 27.4505C11.6587 27.7397 12.0302 28.0131 12.426 28.2621C12.5378 28.3329 12.5716 28.4817 12.5009 28.5935C12.4555 28.6653 12.3774 28.7054 12.2983 28.7054ZM10.179 26.8722C10.1104 26.8722 10.0418 26.8426 9.9943 26.7856C9.83071 26.5883 9.67556 26.3814 9.53519 26.1724C9.40538 25.9814 9.28717 25.7809 9.18268 25.5772C9.12147 25.46 9.16791 25.3154 9.28611 25.2553C9.40432 25.1941 9.54786 25.2405 9.60802 25.3576C9.70511 25.5445 9.81382 25.7281 9.93308 25.9044C10.065 26.1007 10.2096 26.2949 10.3637 26.4796C10.4481 26.5819 10.4334 26.7329 10.331 26.8173C10.2866 26.8542 10.2328 26.8722 10.179 26.8722ZM8.93255 24.3846C8.81857 24.3846 8.7183 24.3043 8.69719 24.1882C8.65498 23.9582 8.63281 23.7291 8.63281 23.5075C8.63281 23.2236 8.6687 22.9481 8.73835 22.6885C8.77318 22.5608 8.903 22.4848 9.03176 22.5196C9.15946 22.5534 9.23545 22.6853 9.20168 22.813C9.14258 23.0315 9.11303 23.2658 9.11303 23.5075C9.11303 23.6996 9.13097 23.9001 9.16791 24.1017C9.19218 24.2326 9.10564 24.3571 8.97582 24.3814C8.96105 24.3835 8.94627 24.3846 8.93255 24.3846ZM9.65868 21.7808C9.60063 21.7808 9.54258 21.7597 9.49614 21.7175C9.39904 21.6278 9.39271 21.4758 9.48348 21.3787C9.83388 20.9998 10.2476 20.6969 10.6064 20.451C10.7162 20.3761 10.865 20.4046 10.94 20.5133C11.0149 20.6231 10.9864 20.7719 10.8777 20.8468C10.541 21.0769 10.1537 21.3597 9.83493 21.7038C9.78744 21.7555 9.72306 21.7808 9.65868 21.7808ZM11.9088 20.1027C11.8349 20.1027 11.7611 20.0679 11.7146 20.0025C11.6376 19.8959 11.6619 19.746 11.7685 19.6679C12.1252 19.4114 12.4692 19.1244 12.8228 18.7877C12.9189 18.6969 13.0708 18.7011 13.1616 18.7972C13.2524 18.8932 13.2492 19.0441 13.1532 19.136C12.7838 19.4864 12.4228 19.7882 12.0492 20.0573C12.007 20.088 11.9584 20.1027 11.9088 20.1027ZM13.9584 18.184C13.9025 18.184 13.8455 18.165 13.8001 18.1249C13.7009 18.0373 13.6904 17.8864 13.778 17.7871C14.046 17.4811 14.3289 17.1402 14.6698 16.7138C14.7521 16.6104 14.903 16.5924 15.0065 16.6747C15.1099 16.7581 15.1268 16.908 15.0445 17.0125C14.6993 17.4441 14.4123 17.7914 14.1389 18.1027C14.0914 18.1565 14.0249 18.184 13.9584 18.184ZM15.722 15.994C15.6724 15.994 15.6218 15.9782 15.5785 15.9454C15.473 15.8663 15.4519 15.7154 15.531 15.6098C15.76 15.3059 16.0503 14.9016 16.2666 14.4658C16.3257 14.3475 16.4682 14.2979 16.5885 14.357C16.7067 14.4162 16.7553 14.5607 16.6962 14.679C16.4619 15.1497 16.1558 15.5782 15.9141 15.898C15.8666 15.9602 15.7959 15.994 15.722 15.994ZM16.8629 13.4684C16.8587 13.4684 16.8545 13.4684 16.8492 13.4684C16.7173 13.461 16.616 13.3481 16.6234 13.2151C16.6265 13.1665 16.6276 13.1169 16.6276 13.0673C16.6276 12.6916 16.5484 12.3053 16.3975 11.9486C16.3458 11.8272 16.4028 11.6868 16.5252 11.6351C16.6466 11.5834 16.788 11.6404 16.8387 11.7628C17.0139 12.1766 17.1067 12.6283 17.1067 13.0673C17.1067 13.1254 17.1057 13.1834 17.1025 13.2415C17.0951 13.3692 16.9896 13.4684 16.8629 13.4684ZM15.8022 10.9649C15.7474 10.9649 15.6914 10.9459 15.646 10.9069C15.5996 10.8668 15.5521 10.8288 15.5036 10.7919C15.2112 10.5734 14.8745 10.4161 14.5041 10.3264C14.3753 10.2958 14.2962 10.166 14.3278 10.0372C14.3584 9.90847 14.4872 9.82932 14.617 9.86098C15.0508 9.96652 15.4455 10.1502 15.7906 10.4077C15.8487 10.451 15.9046 10.4963 15.9585 10.5428C16.0598 10.6293 16.0703 10.7802 15.9848 10.8805C15.9373 10.9364 15.8698 10.9649 15.8022 10.9649Z" fill="#DDE9FE"/>
<path d="M10.0836 7.57757C10.1163 7.57546 10.148 7.55541 10.1638 7.52269C10.1859 7.47414 10.1659 7.41715 10.1173 7.39393C10.0371 7.35593 9.95587 7.31899 9.8746 7.28205C9.82711 7.25989 9.76906 7.28205 9.7469 7.3306C9.72473 7.37915 9.7469 7.43614 9.79545 7.45831C9.87566 7.49419 9.95481 7.53113 10.035 7.56913C10.0509 7.57651 10.0667 7.57968 10.0836 7.57757Z" fill="#526A70"/>
<path d="M10.9763 8.03847C10.8212 7.9572 10.666 7.87593 10.5098 7.79783C10.4623 7.77356 10.4433 7.71551 10.4676 7.66802C10.4908 7.62052 10.5489 7.60153 10.5964 7.6258C10.7536 7.7039 10.9109 7.78517 11.066 7.86854C11.1135 7.89282 11.1315 7.95192 11.1061 7.99836C11.0903 8.02897 11.0607 8.04691 11.028 8.05008C11.0111 8.05113 10.9921 8.04797 10.9763 8.03847Z" fill="#526A70"/>
<path d="M12.3336 6.89901L11.8608 9.69903L3.33303 3.71904L0.757812 2.07471L10.5035 5.20085L12.3336 6.89901Z" fill="#C7D8EF"/>
<path d="M0.757812 2.07471L16.0898 4.20876L12.3336 6.89901L0.757812 2.07471Z" fill="#DDE9FE"/>
<path d="M16.0894 4.2085L10.3047 6.05336L12.3332 6.89875L16.0894 4.2085Z" fill="#A3BBD3"/>
<path d="M10.3091 6.05371L8.73438 8.31969L10.1032 8.21837L11.8647 9.69912L12.3376 6.8991L10.3091 6.05371Z" fill="#B3C9E2"/>
<path d="M11.107 7.67188L11.8605 9.69933L9.15234 7.81752L11.107 7.67188Z" fill="#C7D8EF"/>
<path d="M0.757812 2.07471L7.0407 10.4378L11.1072 7.67157L0.757812 2.07471Z" fill="#DDE9FE"/>
<path d="M9.20024 6.63965L7.04297 10.4381L11.1095 7.67184L9.20024 6.63965Z" fill="#A3BBD3"/>
<mask id="mask0_638_434" style="mask-type:luminance" maskUnits="userSpaceOnUse" x="0" y="0" width="55" height="87">
<path d="M0 0H54.7085V87H0V0Z" fill="white"/>
</mask>
<g mask="url(#mask0_638_434)">
<path d="M54.4703 53.7289C54.4777 56.0814 52.8218 58.9468 50.7753 60.1278L5.37767 86.3338C4.32859 86.9407 3.37977 86.9839 2.7022 86.5681C2.71592 86.5776 2.72964 86.5882 2.74336 86.5945L1.17501 85.6805C0.507988 85.2911 0.0984872 84.4721 0.0953209 83.3037L-0.00388815 33.2654C-0.0102208 30.9161 1.64573 28.0506 3.69112 26.8696L49.093 0.663634C50.1188 0.0704903 51.0529 0.0134977 51.7273 0.406112L53.2956 1.31694C53.2619 1.29688 53.2239 1.27577 53.1869 1.25889C53.9152 1.61878 54.3722 2.46523 54.3753 3.69373L54.4703 53.7289Z" fill="#DDE9FE"/>
</g>
<mask id="mask1_638_434" style="mask-type:luminance" maskUnits="userSpaceOnUse" x="0" y="0" width="54" height="87">
<path d="M0 0H53.3576V86.7298H0V0Z" fill="white"/>
</mask>
<g mask="url(#mask1_638_434)">
<path d="M53.2974 1.31596C52.622 0.924404 51.6879 0.979285 50.66 1.57454L5.26337 27.7826C3.21481 28.9615 1.56309 31.828 1.56942 34.1774L1.66335 84.2157C1.66652 85.3819 2.08024 86.2062 2.74621 86.5935L1.17681 85.6806C0.510839 85.2922 0.100283 84.4721 0.0971163 83.3017L1.81124e-05 33.2666C-0.00631425 30.914 1.64858 28.0517 3.69397 26.8686L49.0948 0.663716C50.1227 0.0695171 51.0568 0.0146357 51.728 0.405139L53.2974 1.31596Z" fill="#C7D8EF"/>
</g>
<path d="M50.6619 1.57496C52.7084 0.392898 54.3728 1.34172 54.3791 3.69318L54.4741 53.7294C54.4804 56.0808 52.8266 58.9463 50.7801 60.1284L5.38249 86.3354C3.33604 87.5164 1.67165 86.5665 1.66532 84.214L1.57033 34.1789C1.564 31.8274 3.21678 28.963 5.26428 27.782L50.6619 1.57496Z" fill="#DDE9FE"/>
<path d="M4.20704 34.1709C4.20387 32.7672 5.35744 30.7725 6.58278 30.0653L51.7408 3.99658L51.8348 53.7351C51.839 55.1399 50.6844 57.1367 49.4601 57.8439L6.10573 82.8709C5.30361 83.3343 4.29886 82.7559 4.29675 81.8292L4.20704 34.1709Z" fill="white"/>
<path d="M58.0194 10.477C58.0226 11.3404 57.4168 12.3863 56.6674 12.8201L10.0814 39.7099C9.69194 39.9337 9.34365 39.9506 9.09563 39.7912L8.03916 39.1812C7.79536 39.0397 7.64338 38.7379 7.64338 38.3083L7.63282 34.2819C7.62966 33.4186 8.2323 32.3716 8.98376 31.9389L55.5677 5.04481C55.9434 4.82845 56.2885 4.80839 56.5323 4.95087L57.555 5.54613C57.8326 5.67489 58.0057 5.98624 58.0089 6.44745L58.0194 10.477Z" fill="#285294"/>
<path d="M57.6081 5.57909C57.3633 5.43661 57.0224 5.45561 56.6424 5.67408L10.0595 32.565C9.30808 32.9967 8.7065 34.0447 8.7065 34.907L8.71811 38.9344C8.72233 39.3619 8.8722 39.6658 9.11389 39.8052L8.03631 39.1814C7.79145 39.0389 7.64158 38.7392 7.64158 38.3075L7.62892 34.2801C7.62575 33.4178 8.23051 32.374 8.98196 31.9381L55.5659 5.04611C55.9416 4.82869 56.2857 4.80969 56.5316 4.95218L57.6081 5.57909Z" fill="#263966"/>
<path d="M56.644 5.6727C57.3933 5.23998 58.0023 5.58615 58.0044 6.44843L58.016 10.4769C58.0182 11.3392 57.4145 12.3851 56.6641 12.8179L10.0801 39.7098C9.32973 40.1436 8.72076 39.7964 8.71865 38.9352L8.70704 34.9067C8.70493 34.0444 9.30968 32.9985 10.059 32.5647L56.644 5.6727Z" fill="#285294"/>
<path d="M11.9964 34.1041C12.4829 33.8223 12.8808 34.0492 12.8819 34.6075C12.884 35.1669 12.4892 35.8508 12.0016 36.1315C11.514 36.4133 11.1183 36.1864 11.1172 35.626C11.1151 35.0676 11.5077 34.3858 11.9964 34.1041Z" fill="white"/>
<path d="M15.1565 32.2782C15.6431 31.9974 16.0388 32.2244 16.041 32.7827C16.042 33.3431 15.6494 34.0249 15.1618 34.3067C14.6742 34.5874 14.2784 34.3605 14.2774 33.8001C14.2752 33.2418 14.6689 32.56 15.1565 32.2782Z" fill="white"/>
<path d="M18.3206 30.4532C18.8082 30.1714 19.2029 30.3983 19.205 30.9566C19.2061 31.517 18.8135 32.1999 18.3259 32.4806C17.8383 32.7624 17.4425 32.5355 17.4414 31.9751C17.4393 31.4168 17.833 30.735 18.3206 30.4532Z" fill="white"/>
<path d="M36.427 40.8616C36.4313 41.7344 35.8107 42.8046 35.0487 43.2447L21.4549 51.0907C21.0623 51.3176 20.7066 51.3345 20.4565 51.1794L19.799 50.7962C19.552 50.6538 19.399 50.3456 19.399 49.916L19.3789 40.5767C19.3789 39.6996 19.9953 38.6336 20.7573 38.1893L34.351 30.3433C34.7373 30.1238 35.0867 30.0995 35.3368 30.2494L35.9532 30.6083C35.9732 30.6178 35.9911 30.6283 36.008 30.6378C36.255 30.7835 36.407 31.0885 36.4101 31.5222L36.427 40.8616Z" fill="#B0C4FF"/>
<path d="M36.0059 30.6378C35.7558 30.4911 35.4054 30.5122 35.0223 30.7339L21.4264 38.5809C20.6634 39.022 20.0449 40.0901 20.0481 40.9661L20.0649 50.3023C20.067 50.7382 20.2201 51.0432 20.4692 51.1878L19.7969 50.7984C19.551 50.6548 19.3958 50.3477 19.3958 49.915L19.3789 40.5756C19.3758 39.6996 19.9942 38.6315 20.7573 38.1914L34.35 30.3444C34.7363 30.1228 35.0835 30.1006 35.3347 30.2484L36.0059 30.6378Z" fill="#92B2F9"/>
<path d="M35.0229 30.7337C35.787 30.2925 36.4076 30.6472 36.4108 31.5221L36.4266 40.8594C36.4287 41.7354 35.8124 42.8045 35.0482 43.2446L21.4545 51.0916C20.6904 51.5328 20.0687 51.1782 20.0666 50.3032L20.0508 40.9649C20.0476 40.09 20.665 39.0208 21.4292 38.5797L35.0229 30.7337Z" fill="#B0C4FF"/>
<path d="M33.6813 34.1108C33.9799 33.9388 34.2206 34.076 34.2216 34.4169L34.2438 40.4856C34.2438 40.8286 34.0042 41.2433 33.7066 41.4154L32.4844 42.1215C32.1857 42.2935 31.944 42.1563 31.943 41.8133L31.9219 35.7446C31.9208 35.4037 32.1615 34.9879 32.4591 34.8159L33.6813 34.1108Z" fill="#DDE9FE"/>
<path d="M30.4547 37.3426C30.7513 37.1716 30.993 37.3088 30.994 37.6507L31.012 42.3505C31.012 42.6935 30.7724 43.1083 30.4758 43.2803L29.2526 43.9864C28.956 44.1574 28.7143 44.0202 28.7133 43.6772L28.6953 38.9774C28.6943 38.6354 28.9349 38.2196 29.2315 38.0486L30.4547 37.3426Z" fill="#DDE9FE"/>
<path d="M27.232 41.9453C27.5297 41.7733 27.7714 41.9105 27.7724 42.2524L27.7819 44.2144C27.783 44.5574 27.5434 44.9733 27.2447 45.1453L26.0225 45.8503C25.7249 46.0224 25.4832 45.8852 25.4822 45.5422L25.4727 43.5801C25.4716 43.2382 25.7112 42.8223 26.0088 42.6503L27.232 41.9453Z" fill="#DDE9FE"/>
<path d="M23.9898 39.7036C24.2885 39.5316 24.5292 39.6688 24.5302 40.0097L24.5524 46.0794C24.5534 46.4213 24.3128 46.8372 24.0152 47.0092L22.793 47.7142C22.4943 47.8863 22.2537 47.7491 22.2526 47.4071L22.2305 41.3374C22.2294 40.9965 22.4701 40.5817 22.7677 40.4097L23.9898 39.7036Z" fill="#DDE9FE"/>
<path d="M18.0713 51.4535C18.0744 52.3306 17.4581 53.3965 16.6929 53.8398L8.61898 58.4995C8.22637 58.7264 7.87069 58.7433 7.6195 58.5881L6.96304 58.205C6.71501 58.0625 6.55987 57.7543 6.55987 57.3248L6.54298 47.9854C6.53981 47.1084 7.15934 46.0424 7.92135 45.5981L15.9953 40.9384C16.3847 40.7157 16.7298 40.6946 16.98 40.8402L17.6006 41.2033C17.6175 41.2128 17.6375 41.2234 17.6544 41.2339C17.9014 41.3796 18.0544 41.6835 18.0544 42.1173L18.0713 51.4535Z" fill="#B0C4FF"/>
<path d="M17.6523 41.232C17.4021 41.0853 17.0517 41.1065 16.6686 41.3281L8.59154 45.9899C7.82847 46.431 7.21 47.4991 7.21316 48.3751L7.23005 57.7113C7.23216 58.1461 7.3852 58.4522 7.63322 58.5968L6.96197 58.2073C6.71606 58.0638 6.56092 57.7567 6.56092 57.324L6.54297 47.9846C6.54086 47.1086 7.15828 46.0405 7.92135 45.6004L15.9963 40.9386C16.3826 40.717 16.7298 40.6948 16.981 40.8426L17.6523 41.232Z" fill="#92B2F9"/>
<path d="M16.6643 41.3275C17.4284 40.8863 18.049 41.2409 18.0522 42.1159L18.068 51.4531C18.0701 52.3291 17.4538 53.3982 16.6896 53.8384L8.61465 58.5001C7.85053 58.9413 7.22889 58.5867 7.22678 57.7117L7.21095 48.3734C7.20778 47.4985 7.8252 46.4293 8.58932 45.9882L16.6643 41.3275Z" fill="#B0C4FF"/>
<path d="M15.8346 47.479C15.919 47.4526 15.9802 47.5053 15.9802 47.6045L15.9823 48.3697C15.9823 48.47 15.9222 48.5924 15.8377 48.6642L15.5105 48.9428C15.4409 49.0009 15.3881 49.0927 15.3712 49.1824C15.3068 49.4948 15.2129 49.8114 15.0926 50.1217C15.0578 50.2135 15.0567 50.3011 15.0937 50.3476L15.2731 50.5745C15.3185 50.6336 15.3079 50.7497 15.2456 50.8573L14.777 51.669C14.7411 51.7323 14.6926 51.7819 14.644 51.8093C14.6103 51.8294 14.5754 51.8389 14.5448 51.8357L14.2567 51.7967C14.2272 51.7924 14.1923 51.8019 14.1586 51.8209C14.1248 51.841 14.091 51.8705 14.0604 51.9085C13.8504 52.1692 13.6245 52.4099 13.3849 52.622C13.3163 52.6821 13.2636 52.774 13.2467 52.8616L13.1696 53.2848C13.1517 53.3935 13.0746 53.5075 12.9881 53.5571L12.3221 53.9413C12.2345 53.9919 12.1585 53.9666 12.1385 53.88L12.0593 53.5476C12.0424 53.4779 11.9886 53.4484 11.92 53.4674C11.6794 53.5318 11.4535 53.5529 11.2435 53.5349C11.2129 53.5328 11.1791 53.5413 11.1443 53.5613C11.1105 53.5814 11.0767 53.6109 11.0461 53.65L10.7601 54.0194C10.7295 54.0595 10.6947 54.089 10.6609 54.1091C10.6124 54.1376 10.5638 54.1439 10.5269 54.1228L10.054 53.8547C9.99283 53.8188 9.98122 53.7143 10.0266 53.6025L10.2039 53.1698C10.2409 53.079 10.2398 52.9924 10.2039 52.9428C10.0825 52.7719 9.9865 52.5661 9.92212 52.3286C9.90312 52.26 9.85035 52.2294 9.78175 52.2505L9.45246 52.3507C9.36697 52.3761 9.30681 52.3244 9.30681 52.2241L9.3047 51.4589C9.30365 51.3587 9.3638 51.2362 9.44929 51.1645L9.77753 50.8848C9.84613 50.8267 9.8989 50.7349 9.91684 50.6452C9.98017 50.3339 10.0741 50.0183 10.1944 49.708C10.2303 49.6162 10.2314 49.5296 10.1934 49.4821L10.0139 49.2542C9.96856 49.1951 9.97911 49.0779 10.0403 48.9713L10.51 48.1597C10.5469 48.0964 10.5944 48.0468 10.643 48.0183C10.6778 47.9993 10.7116 47.9898 10.7432 47.9929L11.0303 48.0309C11.0609 48.0352 11.0947 48.0267 11.1285 48.0067C11.1633 47.9877 11.1971 47.9571 11.2277 47.918C11.4366 47.6594 11.6625 47.4188 11.9021 47.2077C11.9707 47.1465 12.0235 47.0547 12.0403 46.9671L12.1174 46.5439C12.1364 46.4341 12.2124 46.3212 12.3 46.2705L12.9659 45.8863C13.0525 45.8367 13.1295 45.861 13.1496 45.9475L13.2287 46.2811C13.2456 46.3497 13.2984 46.3792 13.367 46.3613C13.6066 46.2969 13.8335 46.2747 14.0435 46.2937C14.0741 46.2969 14.109 46.2874 14.1427 46.2673C14.1765 46.2473 14.2103 46.2177 14.2409 46.1787L14.5269 45.8082C14.5586 45.7692 14.5923 45.7386 14.6272 45.7196C14.6757 45.6911 14.7232 45.6847 14.7601 45.7059L15.2319 45.9739C15.2942 46.0098 15.3047 46.1143 15.2604 46.2262L15.0842 46.6578C15.0462 46.7486 15.0483 46.8341 15.0831 46.8837C15.2045 47.0557 15.3005 47.2615 15.366 47.5001C15.3839 47.5687 15.4367 47.5993 15.5063 47.5782L15.8346 47.479ZM12.6472 51.5613C13.4409 51.1043 14.0794 49.9972 14.0773 49.0864C14.0752 48.1776 13.4314 47.8093 12.6388 48.2673C11.8472 48.7243 11.2066 49.8325 11.2097 50.7423C11.2118 51.6521 11.8556 52.0183 12.6472 51.5613Z" fill="#6A95D3"/>
<path d="M45.7111 42.0533C45.6834 42.0362 45.6567 42.0223 45.6289 42.0127C45.6396 42.0159 45.6492 42.0191 45.6567 42.0223C45.6769 42.033 45.694 42.0426 45.7111 42.0533Z" fill="#B0C4FF"/>
<path d="M45.7111 42.0533C45.6834 42.0362 45.6567 42.0223 45.6289 42.0127C45.6396 42.0159 45.6492 42.0191 45.6567 42.0223C45.6769 42.033 45.694 42.0426 45.7111 42.0533Z" fill="#B0C4FF"/>
<path d="M46.1341 45.6392C46.1373 46.512 45.5178 47.5822 44.7558 48.0223L17.0838 63.995L11.983 66.9385C11.5904 67.1654 11.2379 67.1823 10.9846 67.0261L10.3271 66.643C10.0833 66.5016 9.92706 66.1934 9.92706 65.7596L9.91017 63.0609C9.907 62.1839 10.5234 61.1169 11.2885 60.6736L44.0581 41.7584C44.4444 41.5378 44.7927 41.5146 45.0439 41.6634L45.6603 42.0223C45.6529 42.0191 45.6434 42.0159 45.6328 42.0128C45.6603 42.0223 45.6866 42.036 45.7141 42.0529C45.961 42.1985 46.1141 42.5035 46.1172 42.9363L46.1341 45.6392Z" fill="#B0C4FF"/>
<path d="M45.7151 42.0526C45.4639 41.9049 45.1146 41.927 44.7304 42.1487L11.9577 61.0649C11.1946 61.505 10.5761 62.5731 10.5793 63.4501L10.5962 66.1488C10.5983 66.5847 10.7513 66.8897 10.9994 67.0343L10.3281 66.6449C10.0822 66.5013 9.92706 66.1942 9.92706 65.7615L9.91017 63.0596C9.907 62.1836 10.5255 61.1156 11.2885 60.6744L44.0592 41.7582C44.4455 41.5376 44.7927 41.5154 45.0439 41.6621L45.7151 42.0526Z" fill="#92B2F9"/>
<path d="M44.7282 42.1489C45.4923 41.7078 46.1129 42.0613 46.115 42.9373L46.1319 45.6371C46.134 46.5131 45.5166 47.5822 44.7535 48.0223L11.9818 66.9385C11.2177 67.3797 10.5961 67.0251 10.594 66.1501L10.5781 63.4493C10.575 62.5744 11.1924 61.5053 11.9565 61.0641L44.7282 42.1489Z" fill="#B0C4FF"/>
<path d="M17.0816 58.106L11.9565 61.0643C11.1924 61.5055 10.575 62.5746 10.5781 63.4495L10.594 66.1503C10.5961 67.0253 11.2177 67.3799 11.9818 66.9387L17.0816 63.9952V58.106Z" fill="#4075C1"/>
<path d="M15.2487 63.3451C15.3849 63.4232 15.3859 63.6765 15.2498 63.9119C15.1822 64.0301 15.0925 64.1198 15.0039 64.1715C14.9152 64.2222 14.8255 64.2349 14.7569 64.1969L14.168 63.8612C13.9812 64.0882 13.7722 64.2686 13.5643 64.389C13.2434 64.5737 12.9236 64.618 12.6777 64.4776C12.188 64.199 12.1849 63.2892 12.6725 62.4449C12.9163 62.0217 13.2371 61.6966 13.5579 61.5108C13.8788 61.3261 14.1986 61.2808 14.4434 61.4211C14.8477 61.6512 14.9205 62.3119 14.6587 63.0095L15.2487 63.3451ZM14.1616 63.2924C14.4909 62.7214 14.4899 62.105 14.1574 61.9161C13.9917 61.8211 13.7754 61.8517 13.5579 61.9763C13.3416 62.1019 13.1252 62.3214 12.9606 62.6074C12.6302 63.1784 12.6323 63.7937 12.9637 63.9826C13.1305 64.0776 13.3469 64.0481 13.5632 63.9225C13.7806 63.7979 13.997 63.5773 14.1616 63.2924Z" fill="white"/>
<path d="M8.2936 73.8249C8.17856 73.8249 8.06668 73.7658 8.00547 73.6592C7.91365 73.4998 7.96853 73.2972 8.12684 73.2054L39.4695 55.1124C39.6278 55.0206 39.8315 55.0755 39.9233 55.2338C40.0152 55.3931 39.9603 55.5958 39.802 55.6876L8.4593 73.7806C8.40653 73.8112 8.34953 73.8249 8.2936 73.8249Z" fill="#DDE9FE"/>
<path d="M43.2118 53.6673C43.0968 53.6673 42.9849 53.6082 42.9237 53.5016C42.8318 53.3422 42.8857 53.1396 43.045 53.0477L47.5802 50.4293C47.7385 50.3374 47.9422 50.3923 48.034 50.5517C48.1258 50.71 48.072 50.9137 47.9126 51.0055L43.3775 53.6229C43.3247 53.6536 43.2677 53.6673 43.2118 53.6673Z" fill="#DDE9FE"/>
<path d="M8.2936 77.5732C8.17856 77.5732 8.06668 77.5141 8.00547 77.4075C7.91365 77.2481 7.96853 77.0454 8.12684 76.9536L17.4873 71.5499C17.6456 71.4581 17.8493 71.513 17.9411 71.6713C18.033 71.8306 17.9781 72.0333 17.8198 72.1251L8.4593 77.5288C8.40653 77.5584 8.34953 77.5732 8.2936 77.5732Z" fill="#DDE9FE"/>
<path d="M20.7079 70.4699C20.5928 70.4699 20.482 70.4097 20.4198 70.3042C20.3279 70.1448 20.3818 69.9422 20.5411 69.8493L47.5798 54.1764C47.7392 54.0845 47.9418 54.1394 48.0336 54.2977C48.1255 54.4561 48.0716 54.6597 47.9133 54.7516L20.8746 70.4245C20.8219 70.4551 20.7649 70.4699 20.7079 70.4699Z" fill="#DDE9FE"/>
<path d="M54.1224 30.2954C54.1256 31.1967 53.4923 32.2933 52.7092 32.7471L44.4189 37.5324C44.0157 37.7625 43.6537 37.7793 43.393 37.62L42.7186 37.2305C42.4653 37.0817 42.306 36.7672 42.306 36.3229L42.2891 26.7365C42.2859 25.8363 42.9223 24.7386 43.7044 24.289L51.9915 19.5006C52.3915 19.2737 52.7472 19.2536 53.0047 19.4025L53.6337 19.7719C53.6548 19.7813 53.6717 19.7919 53.6886 19.8025C53.9461 19.9481 54.1087 20.2626 54.1087 20.7133L54.1224 30.2954Z" fill="#B0C4FF"/>
<path d="M53.6939 19.8038C53.4364 19.6529 53.0775 19.675 52.6828 19.903L44.3915 24.6883C43.6073 25.141 42.974 26.2366 42.9761 27.1368L42.9941 36.7211C42.9962 37.1685 43.1535 37.482 43.4078 37.6308L42.7186 37.2298C42.4653 37.0831 42.307 36.7675 42.307 36.3232L42.2891 26.7358C42.2859 25.8366 42.9202 24.74 43.7044 24.2883L51.9936 19.502C52.3905 19.275 52.7461 19.2518 53.0037 19.4038L53.6939 19.8038Z" fill="#92B2F9"/>
<path d="M52.6822 19.9017C53.4663 19.449 54.1038 19.8131 54.1059 20.7113L54.1228 30.2976C54.1249 31.1968 53.4917 32.2934 52.7075 32.7462L44.4172 37.5314C43.633 37.9842 42.9956 37.6211 42.9935 36.7219L42.9766 27.1356C42.9745 26.2374 43.6077 25.1398 44.3919 24.687L52.6822 19.9017Z" fill="#B0C4FF"/>
<path d="M51.824 26.2168C51.9116 26.1894 51.9739 26.2443 51.9739 26.3466L51.976 27.1319C51.976 27.2353 51.9148 27.3598 51.8272 27.4337L51.4916 27.7197C51.4209 27.7799 51.3671 27.8738 51.3491 27.9656C51.2837 28.2865 51.1866 28.6115 51.0631 28.9303C51.0272 29.0242 51.0251 29.1139 51.0642 29.1625L51.2478 29.3947C51.2942 29.4559 51.2837 29.5751 51.2204 29.686L50.7391 30.5187C50.7021 30.5841 50.6525 30.6348 50.6019 30.6633C50.5671 30.6833 50.5322 30.6928 50.5006 30.6897L50.205 30.6506C50.1744 30.6453 50.1386 30.6548 50.1037 30.6749C50.0689 30.6949 50.0341 30.7255 50.0024 30.7646C49.7882 31.0327 49.5549 31.2796 49.3101 31.4971C49.2393 31.5583 49.1855 31.6522 49.1686 31.743L49.0895 32.1778C49.0694 32.2886 48.9913 32.4058 48.9016 32.4575L48.2188 32.8512C48.129 32.9039 48.0509 32.8775 48.0298 32.7889L47.9486 32.4469C47.9317 32.3762 47.8768 32.3456 47.8061 32.3657C47.5591 32.4311 47.3269 32.4533 47.1116 32.4343C47.08 32.4311 47.0451 32.4406 47.0103 32.4617C46.9755 32.4818 46.9406 32.5124 46.909 32.5525L46.6156 32.9324C46.5839 32.9725 46.548 33.0031 46.5132 33.0242C46.4636 33.0527 46.414 33.0591 46.376 33.038L45.8905 32.7625C45.8272 32.7266 45.8156 32.619 45.862 32.5039L46.0435 32.0596C46.0826 31.9657 46.0815 31.877 46.0435 31.8263C45.919 31.6511 45.8208 31.4401 45.7544 31.1952C45.7354 31.1255 45.6815 31.0939 45.6108 31.115L45.2731 31.2184C45.1855 31.2448 45.1232 31.191 45.1232 31.0886L45.1211 30.3023C45.1201 30.1999 45.1823 30.0744 45.2689 30.0005L45.6066 29.7134C45.6773 29.6532 45.7311 29.5593 45.7501 29.4675C45.8145 29.1477 45.9116 28.8237 46.0351 28.506C46.072 28.411 46.072 28.3224 46.033 28.2728L45.8493 28.0406C45.8029 27.9783 45.8135 27.858 45.8768 27.7493L46.3581 26.9155C46.396 26.8511 46.4457 26.8005 46.4953 26.7709C46.5301 26.7509 46.566 26.7414 46.5976 26.7456L46.8931 26.7846C46.9238 26.7888 46.9586 26.7793 46.9934 26.7593C47.0293 26.7392 47.0641 26.7076 47.0958 26.6685C47.31 26.4015 47.5412 26.1556 47.7881 25.9382C47.8578 25.8759 47.9127 25.782 47.9296 25.6912L48.0087 25.2574C48.0288 25.1445 48.1069 25.0284 48.1966 24.9767L48.8794 24.582C48.9692 24.5313 49.0483 24.5566 49.0684 24.6453L49.1496 24.9873C49.1665 25.058 49.2214 25.0886 49.2921 25.0696C49.538 25.0031 49.7713 24.9809 49.9866 25.001C50.0182 25.0031 50.0531 24.9936 50.0868 24.9735C50.1227 24.9535 50.1575 24.9218 50.1882 24.8817L50.4826 24.5028C50.5143 24.4617 50.5491 24.431 50.585 24.411C50.6346 24.3814 50.6842 24.3751 50.7222 24.3962L51.2056 24.6727C51.27 24.7086 51.2816 24.8163 51.2351 24.9313L51.0536 25.3746C51.0156 25.4675 51.0167 25.5551 51.0536 25.6068C51.1781 25.782 51.2763 25.9941 51.3438 26.239C51.3618 26.3097 51.4167 26.3413 51.4874 26.3192L51.824 26.2168ZM48.5533 30.4089C49.367 29.9382 50.0235 28.8015 50.0203 27.8675C50.0182 26.9334 49.3575 26.5567 48.5438 27.0263C47.7311 27.496 47.0736 28.6337 47.0768 29.5678C47.0789 30.5018 47.7406 30.8775 48.5533 30.4089Z" fill="#6A95D3"/>
<path d="M62.36 82.4196L62.608 85.4022C62.6597 86.028 62.1499 86.5579 61.522 86.5294L55.7815 86.2676C55.3499 86.2486 54.9193 86.1726 54.5193 86.008C53.657 85.6523 53.3224 85.1352 53.5198 84.4555C53.6802 83.8993 54.1541 83.4887 54.7103 83.3304L58.5309 82.2412L62.36 82.4196Z" fill="#FC6C85"/>
<path d="M62.5847 85.7118C62.4781 86.1931 62.0411 86.5519 61.5197 86.5298L55.7793 86.268C55.3487 86.249 54.9171 86.1741 54.5181 86.0084C53.6527 85.6527 53.3192 85.1345 53.5155 84.4538C53.6189 84.0981 53.8532 83.8015 54.1529 83.5957C54.1339 83.639 54.115 83.6865 54.1023 83.7329C53.906 84.4105 54.2405 84.9287 55.1018 85.2844C55.5007 85.4501 55.9324 85.525 56.3662 85.5429L62.1034 85.8057C62.2754 85.8121 62.438 85.7804 62.5847 85.7118Z" fill="#F95070"/>
<path d="M67.9029 80.7036L67.7657 83.4656C67.7446 84.2635 67.0913 84.8989 66.2934 84.8989C65.4839 84.8989 64.7124 84.5569 64.1699 83.9564L60.5625 80.14C61.0638 79.454 62.4897 79.6186 64.3504 80.3659L67.9029 80.7036Z" fill="#FC6C85"/>
<path d="M67.7323 83.7166C67.5982 84.3942 67.0019 84.8997 66.2906 84.8997C65.8842 84.8997 65.4906 84.8121 65.1285 84.6538C64.7665 84.4945 64.4394 84.257 64.1671 83.9573L60.5586 80.1398C60.6895 79.9593 60.8868 79.8401 61.1359 79.7715L64.4795 83.305C64.7507 83.6079 65.0789 83.8422 65.4409 84.0005C65.803 84.1631 66.1966 84.2475 66.6019 84.2475C67.0578 84.2475 67.4673 84.0417 67.7323 83.7166Z" fill="#F95070"/>
<path d="M69.4111 54.3939L68.1836 65.8842C68.1023 66.6451 68.1171 67.4124 68.2279 68.1692L68.5794 70.5861C68.6839 71.2995 68.7029 72.0225 68.6364 72.7402L67.9166 80.5492C67.9282 81.8188 64.3788 81.8505 64.3672 80.5808L63.3424 69.8905L61.7656 55.7575L67.4891 52.8276L69.4111 54.3939Z" fill="#35489E"/>
<path d="M68.5801 70.585C68.6825 71.3006 68.7015 72.0214 68.6361 72.7391L67.9152 80.5492C67.9216 81.1233 67.1965 81.4442 66.4007 81.5033C66.292 81.2078 66.273 80.87 66.2603 80.546C66.2202 79.4347 66.2139 78.3202 66.2107 77.2056C66.2107 76.7624 66.2076 76.3159 66.2762 75.879C66.3975 75.099 66.7321 74.3718 66.9379 73.613C67.1469 72.852 67.2123 71.9993 66.825 71.3133C66.7321 71.1444 66.6097 70.9882 66.5632 70.8014C66.4102 70.1829 67.1184 69.6056 66.9875 68.984C66.9347 68.7285 66.7437 68.5196 66.6698 68.2663C66.4598 67.5423 67.2345 66.6156 66.6846 66.0974C66.5379 65.9634 66.3289 65.9032 66.2012 65.7502C65.9078 65.4008 66.2202 64.8984 66.4503 64.5079C67.1279 63.3691 67.1004 61.9612 67.053 60.6346C67.0435 60.357 67.0287 60.0636 66.8968 59.8198C66.8134 59.6636 66.6846 59.5359 66.616 59.3733C66.3194 58.681 67.2092 58.0351 67.2841 57.2826C67.3495 56.6335 66.7849 56.015 66.9347 55.3786C67.0128 55.0387 67.2809 54.7791 67.5374 54.5416C67.8213 54.2767 68.1643 53.9517 68.539 53.6836L69.4097 54.3918L68.1833 65.8853C68.102 66.6462 68.1179 67.4114 68.2266 68.1692L68.5801 70.585Z" fill="#263966"/>
<path d="M55.9935 54.3357C55.9935 54.3357 55.2125 65.6941 55.5777 69.3574C55.9007 72.6018 58.4653 81.9992 58.4653 81.9992C58.6732 83.5728 62.4453 83.7417 62.4453 81.9992L62.0632 73.9696C62.0316 73.3174 61.9028 72.6736 61.6801 72.0604C61.0806 70.4076 61.1767 68.5817 61.9429 66.9996C63.7667 63.2381 65.0881 59.8566 64.4749 57.9473L58.898 52.3062L55.9935 54.3357Z" fill="#35489E"/>
<path d="M62.0623 73.969L62.4465 82.0007C62.4465 83.1089 60.9193 83.4424 59.7552 83.1332C59.6518 82.787 59.6117 82.4281 59.6803 82.0693C59.7837 81.5543 60.095 80.9896 59.8048 80.5516C59.7056 80.4028 59.5431 80.293 59.4681 80.1305C59.3278 79.8276 59.5177 79.4878 59.6613 79.188C60.2702 77.9025 59.9863 76.3912 59.6898 74.9991C59.6243 74.6782 59.5494 74.35 59.3615 74.0788C59.2718 73.9479 59.1526 73.8318 59.084 73.6882C58.9869 73.4856 58.9964 73.2545 59.0027 73.0297C59.0185 72.1188 58.9119 71.2006 58.6903 70.3172C58.5351 69.6998 58.322 69.0434 58.5351 68.4449C58.7568 67.8201 59.4206 67.3178 59.3214 66.6655C59.2739 66.3594 59.0586 66.0977 59.0185 65.7916C58.9119 65.017 59.8702 64.5526 60.1985 63.8433C60.4549 63.2787 60.2892 62.5895 60.5415 62.0206C60.7484 61.5594 61.1916 61.2628 61.5441 60.9008C61.8966 60.5388 62.1711 59.989 61.9431 59.5425C61.865 59.3895 61.7341 59.2649 61.675 59.1056C61.5747 58.8185 61.7214 58.5124 61.865 58.2475C62.1246 57.7694 62.3927 57.2797 62.7927 56.9145C62.9077 56.8079 63.0365 56.7151 63.1769 56.6338L64.1204 57.5889C64.3948 57.8665 64.57 58.2275 64.608 58.6159C64.7969 60.5916 63.5705 63.6439 61.9431 66.999C61.5093 67.8919 61.2908 68.8661 61.2908 69.8402C61.2908 70.5885 61.4196 71.341 61.6813 72.0587C61.903 72.674 62.0307 73.3167 62.0623 73.969Z" fill="#263966"/>
<path d="M68.0714 30.1787C63.5384 30.1829 59.8793 32.3085 56.7426 35.6996C56.2571 36.2241 55.9922 36.9175 55.9922 37.6331V54.3361C56.864 60.0026 70.3923 58.5979 69.5194 52.9324C69.0593 49.6152 68.9421 46.4469 69.245 43.459C69.3548 42.373 69.5838 41.3028 69.8899 40.2537C70.9485 36.6252 71.1585 33.3217 69.3326 30.8004C69.0424 30.4003 68.5654 30.1787 68.0714 30.1787Z" fill="#54D391"/>
<path d="M69.244 43.4588C68.9411 46.4488 69.0593 49.6172 69.5184 52.9312C70.3923 58.5967 56.8629 60.0014 55.9922 54.336V52.9344C56.7479 53.4431 57.5025 53.9518 58.2582 54.4605C58.7795 54.8141 59.3474 55.1792 59.9785 55.1602C60.3532 55.1507 60.7088 55.004 61.0708 54.8974C61.873 54.6705 62.7384 54.6547 63.55 54.8637C63.8276 54.9323 64.1273 55.0294 64.3922 54.9164C64.6519 54.8077 64.7922 54.5354 64.9674 54.3138C65.2513 53.9581 65.6355 53.7301 66.063 53.5866C66.9432 53.29 67.3991 52.3887 67.2767 51.4673C67.2704 51.4241 67.2672 51.3797 67.2672 51.3333C67.283 50.6462 68.1105 50.2093 68.1822 49.5264C68.2572 48.8425 67.5522 48.3148 67.4171 47.6404C67.2894 47.0008 67.6925 46.3771 67.7358 45.7248C67.8012 44.7876 67.13 43.8705 67.377 42.9649C67.4983 42.5121 67.8392 42.1322 67.8888 41.6667C67.9669 40.9364 67.3084 40.2493 67.4709 39.5348C67.6482 38.7675 68.7226 38.224 68.4535 37.481C68.388 37.2942 68.2445 37.1506 68.1453 36.9786C67.7917 36.3665 68.0883 35.6055 68.3258 34.9374C68.5632 34.2725 68.6751 33.3986 68.1073 32.9743C67.8667 32.796 67.5363 32.7337 67.3611 32.4899C67.2492 32.3337 67.2239 32.1342 67.2239 31.9443C67.2271 31.3131 67.6081 30.6514 68.1326 30.1807C68.6065 30.1954 69.0561 30.4171 69.3316 30.8012C71.1606 33.3237 70.9485 36.6261 69.8899 40.2525C69.5838 41.3016 69.3559 42.3718 69.244 43.4588Z" fill="#54D391"/>
<path d="M45.9557 37.1708C45.9557 37.1708 45.5821 34.9017 45.0375 33.9824C44.97 33.8684 44.8011 33.88 44.7473 34.0014L44.3663 34.8616C44.2935 35.0262 44.0887 35.0885 43.9388 34.9893C43.1093 34.4405 42.6132 33.6109 42.3536 32.5829C42.3061 32.3961 42.0834 32.3106 41.9283 32.4257C41.2613 32.9217 41.0491 33.842 41.3035 35.2004C41.6148 36.0637 42.5953 37.3798 44.1816 38.8331L45.9557 37.1708Z" fill="#F7B2B2"/>
<path d="M59.4228 35.6866C58.4898 35.0713 57.2497 35.2116 56.4772 36.0201L51.3763 41.8903C51.2191 42.0592 50.9521 42.0623 50.7927 41.8956L45.9821 36.9003C45.1589 36.1678 43.4132 37.8977 44.1098 39.0069C44.1098 39.0069 48.1848 47.0154 50.9183 47.2349C53.4481 47.4386 57.6655 41.98 59.9706 39.0417C60.8054 37.9789 60.5511 36.4306 59.4228 35.6866Z" fill="#46C17E"/>
<path d="M59.9714 39.0418C57.6643 41.979 53.4468 47.4376 50.9181 47.235C48.1835 47.0165 44.1096 39.007 44.1096 39.007C43.8415 38.5795 43.9354 38.0613 44.2004 37.6275C44.8093 38.0708 45.4246 38.5489 45.7486 39.2223C45.9956 39.7405 46.0579 40.3526 46.4104 40.8054C46.9075 41.445 47.9249 41.6951 48.0906 42.4909C48.1276 42.6809 48.1086 42.8867 48.1772 43.0714C48.3587 43.5357 48.9919 43.6265 49.317 44.0075C49.4299 44.1384 49.5049 44.3009 49.6199 44.4286C49.9534 44.7906 50.5413 44.7537 50.9993 44.5785C51.4584 44.4012 51.8859 44.1173 52.3767 44.0603C52.764 44.017 53.1819 44.1204 53.5376 43.9579C53.85 43.8175 54.04 43.5051 54.2152 43.2117C54.4242 42.8592 54.6331 42.5067 54.8421 42.1532C55.0574 41.7911 55.3012 41.4049 55.6917 41.2518C55.8944 41.1769 56.116 41.1674 56.3155 41.0861C57.1841 40.7273 57.0437 39.3162 57.8173 38.779C58.1825 38.5267 58.7197 38.5014 58.9698 38.1331C59.1788 37.8207 59.0912 37.3932 59.2316 37.0439C59.3751 36.6787 59.7656 36.4824 60.1614 36.4761C60.6078 37.2624 60.5709 38.2766 59.9714 39.0418Z" fill="#3CAF6D"/>
<path d="M64.7495 30.0763C64.8835 30.7296 63.2307 33.2868 60.6238 31.633L60.6133 30.223L61.7721 28.7602L64.626 28.7222L64.7495 30.0763Z" fill="#F7B2B2"/>
<path d="M58.2487 21.5624C57.5964 23.8843 57.4455 26.2484 57.8603 28.6632C58.0165 29.5719 58.7785 30.2537 59.6999 30.2854C60.827 30.3245 62.0534 30.0743 63.3421 29.6427L63.2651 23.8643L59.0371 21.4199L58.2487 21.5624Z" fill="#F7B2B2"/>
<path d="M63.3437 29.6427C62.0529 30.0744 60.8265 30.3235 59.6994 30.2865C59.0133 30.2612 58.4117 29.8749 58.0898 29.3039C58.379 29.5045 58.7263 29.6195 59.0978 29.6343C60.2239 29.6744 61.4482 29.4221 62.7379 28.9905L62.6672 23.5171L63.2667 23.8664L63.3437 29.6427Z" fill="#EAA7A7"/>
<path d="M64.7546 30.0752C64.7546 30.0752 62.9889 32.0815 60.6279 31.633L59.543 33.1454C62.2459 33.1823 64.6649 32.3201 65.2485 30.471L64.7546 30.0752Z" fill="#329E5E"/>
<path d="M59.6127 18.4483C58.6269 18.043 57.5335 18.7259 57.4649 19.7898C57.3783 20.88 58.0084 21.6399 59.2739 22.1064C59.4185 22.1592 59.5113 22.2985 59.5008 22.4515C59.4512 23.222 59.5134 23.9418 59.8607 24.5296C59.9103 24.613 59.9282 24.7112 59.9018 24.8051L59.5926 25.9017C59.5514 26.0515 59.6285 26.2077 59.772 26.2647C59.8997 26.3154 60.0433 26.2711 60.1266 26.1624C60.3905 25.8162 60.6755 25.6325 60.9931 25.7096C61.277 25.7782 61.4617 26.0568 61.4575 26.3481L61.4396 27.7824C61.4354 28.0716 61.4512 28.3608 61.505 28.6447C61.8164 30.2901 62.8053 30.5529 64.2512 29.9365C64.5467 29.8109 64.781 29.5798 64.933 29.2969C65.1937 28.8125 65.5705 28.2616 66.018 27.6705C66.3494 27.2336 66.6364 26.7629 66.8602 26.2647C67.0523 25.8415 67.1979 25.3982 67.2876 24.9402C67.5705 23.4922 67.3035 22.2827 66.5678 21.2768C66.4465 21.109 66.3473 20.9254 66.2945 20.7249L66.1562 20.1961C65.9726 19.4942 65.3182 19.0204 64.5942 19.0647L63.8153 19.1111C63.6359 19.1227 63.4586 19.0974 63.2855 19.0467C62.4644 18.8051 61.561 18.6964 60.5847 18.708C60.3726 18.7101 60.1604 18.6742 59.9641 18.5929L59.6127 18.4483Z" fill="#353437"/>
<path d="M67.2861 24.938C67.1953 25.3993 67.0507 25.8415 66.8576 26.2658C66.6317 26.7629 66.3478 27.2346 66.0154 27.6695C65.5689 28.2605 65.1921 28.8125 64.9304 29.2969C64.7795 29.5787 64.5441 29.8098 64.2486 29.9375C64.027 30.0315 63.819 30.1043 63.6206 30.1539C63.6438 30.1201 63.6639 30.0874 63.6839 30.0536C63.9415 29.5692 64.3183 29.0204 64.7689 28.4294C65.0982 27.9914 65.3853 27.5196 65.6111 27.0225C65.8001 26.5982 65.9489 26.156 66.0365 25.6979C66.3183 24.2489 66.0534 23.0415 65.3167 22.0346C65.1964 21.8689 65.0961 21.6831 65.0465 21.4847L64.9061 20.9528C64.7214 20.2509 64.0671 19.7792 63.3441 19.8214L62.5663 19.8699C62.3868 19.8794 62.2095 19.8562 62.0343 19.8045C61.2122 19.5649 60.3119 19.4541 59.3346 19.4668C59.1224 19.4678 58.9092 19.4319 58.714 19.3528L58.3615 19.2061C58.1367 19.1143 57.9045 19.0794 57.6797 19.091C58.0554 18.4567 58.8618 18.1412 59.6111 18.4494L59.9604 18.5929C60.1589 18.6752 60.3689 18.7111 60.581 18.7069C61.5583 18.6984 62.4628 18.804 63.285 19.0478C63.456 19.0963 63.6333 19.1227 63.8127 19.11L64.5905 19.0647C65.3135 19.0193 65.9679 19.4953 66.1536 20.1971L66.2929 20.7248C66.3468 20.9264 66.4428 21.109 66.5663 21.2779C67.2998 22.2816 67.5689 23.4921 67.2861 24.938Z" fill="#29282B"/>
</svg>
