<svg width="75" height="60" viewBox="0 0 75 60" fill="none" xmlns="http://www.w3.org/2000/svg">
<mask id="mask0_388_2" style="mask-type:luminance" maskUnits="userSpaceOnUse" x="0" y="10" width="72" height="50">
<path d="M0 10.5288H71.1605V59.9998H0V10.5288Z" fill="white"/>
</mask>
<g mask="url(#mask0_388_2)">
<path d="M4.66343 10.7144H66.4539C66.6068 10.7144 66.7589 10.721 66.9109 10.735C67.0629 10.7491 67.214 10.7689 67.3634 10.797C67.5136 10.8243 67.6611 10.8582 67.8078 10.8987C67.9535 10.9401 68.0974 10.9872 68.2387 11.0409C68.3799 11.0946 68.5175 11.1542 68.6525 11.2203C68.7865 11.2864 68.9178 11.3584 69.0447 11.4369C69.1715 11.5146 69.2939 11.5981 69.4126 11.6874C69.5305 11.7759 69.6438 11.8701 69.7518 11.9693C69.8597 12.0685 69.9623 12.1727 70.0585 12.281C70.1557 12.3901 70.2465 12.5026 70.3311 12.6191C70.4166 12.7357 70.4948 12.8564 70.5668 12.9796C70.6387 13.1036 70.7035 13.2301 70.762 13.3599C70.8205 13.4897 70.8717 13.6219 70.9167 13.7559C70.9608 13.8906 70.9977 14.0262 71.0274 14.1643C71.058 14.3015 71.0795 14.4404 71.0948 14.5801C71.1101 14.7198 71.1173 14.8595 71.1173 15.0001V55.7144C71.1173 55.8549 71.1101 55.9947 71.0948 56.1344C71.0795 56.2741 71.058 56.413 71.0274 56.5502C70.9977 56.6883 70.9608 56.8239 70.9167 56.9586C70.8717 57.0925 70.8205 57.2248 70.762 57.3546C70.7035 57.4844 70.6387 57.6109 70.5668 57.7349C70.4948 57.8581 70.4166 57.9788 70.3311 58.0954C70.2465 58.2119 70.1557 58.3244 70.0585 58.4335C69.9623 58.5418 69.8597 58.646 69.7518 58.7452C69.6438 58.8444 69.5305 58.9386 69.4126 59.0271C69.2939 59.1164 69.1715 59.1999 69.0447 59.2776C68.9178 59.3561 68.7865 59.428 68.6525 59.4942C68.5175 59.5603 68.3799 59.6198 68.2387 59.6736C68.0974 59.7273 67.9535 59.7744 67.8078 59.8158C67.6611 59.8563 67.5136 59.8902 67.3634 59.9174C67.214 59.9456 67.0629 59.9654 66.9109 59.9795C66.7589 59.9935 66.6068 60.0001 66.4539 60.0001H4.66343C4.5105 60.0001 4.35847 59.9935 4.20644 59.9795C4.05441 59.9654 3.90328 59.9456 3.75395 59.9174C3.60372 59.8902 3.45619 59.8563 3.30956 59.8158C3.16383 59.7744 3.0199 59.7273 2.87866 59.6736C2.73743 59.6198 2.59979 59.5603 2.46485 59.4942C2.33082 59.428 2.19948 59.3561 2.07264 59.2776C1.9458 59.1999 1.82345 59.1164 1.70471 59.0271C1.58686 58.9386 1.47351 58.8444 1.36556 58.7452C1.25762 58.646 1.15506 58.5418 1.05881 58.4335C0.961653 58.3244 0.870795 58.2119 0.786234 58.0954C0.700774 57.9788 0.62251 57.8581 0.550544 57.7349C0.478577 57.6109 0.413808 57.4844 0.355335 57.3546C0.296862 57.2248 0.245586 57.0925 0.200607 56.9586C0.156527 56.8239 0.119644 56.6883 0.0899582 56.5502C0.0593723 56.413 0.0377824 56.2741 0.0224895 56.1344C0.00719671 55.9947 0 55.8549 0 55.7144V15.0001C0 14.8595 0.00719671 14.7198 0.0224895 14.5801C0.0377824 14.4404 0.0593723 14.3015 0.0899582 14.1643C0.119644 14.0262 0.156527 13.8906 0.200607 13.7559C0.245586 13.6219 0.296862 13.4897 0.355335 13.3599C0.413808 13.2301 0.478577 13.1036 0.550544 12.9796C0.62251 12.8564 0.700774 12.7357 0.786234 12.6191C0.870795 12.5026 0.961653 12.3901 1.05881 12.281C1.15506 12.1727 1.25762 12.0685 1.36556 11.9693C1.47351 11.8701 1.58686 11.7759 1.70471 11.6874C1.82345 11.5981 1.9458 11.5146 2.07264 11.4369C2.19948 11.3584 2.33082 11.2864 2.46485 11.2203C2.59979 11.1542 2.73743 11.0946 2.87866 11.0409C3.0199 10.9872 3.16383 10.9401 3.30956 10.8987C3.45619 10.8582 3.60372 10.8243 3.75395 10.797C3.90328 10.7689 4.05441 10.7491 4.20644 10.735C4.35847 10.721 4.5105 10.7144 4.66343 10.7144Z" fill="#50D9D7"/>
<path d="M6.33213 14.0029H59.2074C59.3582 14.0029 59.508 14.017 59.6562 14.0444C59.8043 14.0718 59.948 14.1124 60.0872 14.1664C60.2265 14.2203 60.3595 14.2867 60.4846 14.3655C60.6105 14.4435 60.7258 14.5331 60.8331 14.6326C60.9396 14.733 61.0353 14.8409 61.1187 14.9587C61.203 15.0757 61.2739 15.2001 61.3316 15.3304C61.3892 15.4606 61.4327 15.595 61.462 15.7336C61.4912 15.8721 61.5063 16.0124 61.5063 16.1534V54.8618C61.5063 55.0029 61.4912 55.1431 61.462 55.2816C61.4327 55.4202 61.3892 55.5546 61.3316 55.6848C61.2739 55.8151 61.203 55.9395 61.1187 56.0565C61.0353 56.1743 60.9396 56.2822 60.8331 56.3826C60.7258 56.4821 60.6105 56.5717 60.4846 56.6497C60.3595 56.7285 60.2265 56.7949 60.0872 56.8488C59.948 56.9028 59.8043 56.9434 59.6562 56.9708C59.508 56.9982 59.3582 57.0123 59.2074 57.0123H6.33213C6.18135 57.0123 6.03146 56.9982 5.88334 56.9708C5.73522 56.9434 5.59154 56.9028 5.45229 56.8488C5.31304 56.7949 5.18 56.7285 5.05495 56.6497C4.929 56.5717 4.8137 56.4821 4.70638 56.3826C4.59995 56.2822 4.50416 56.1743 4.42079 56.0565C4.33653 55.9395 4.26558 55.8151 4.20793 55.6848C4.15028 55.5546 4.10682 55.4202 4.07755 55.2816C4.04828 55.1431 4.0332 55.0029 4.0332 54.8618V16.1534C4.0332 16.0124 4.04828 15.8721 4.07755 15.7336C4.10682 15.595 4.15028 15.4606 4.20793 15.3304C4.26558 15.2001 4.33653 15.0757 4.42079 14.9587C4.50416 14.8409 4.59995 14.733 4.70638 14.6326C4.8137 14.5331 4.929 14.4435 5.05495 14.3655C5.18 14.2867 5.31304 14.2203 5.45229 14.1664C5.59154 14.1124 5.73522 14.0718 5.88334 14.0444C6.03146 14.017 6.18135 14.0029 6.33213 14.0029Z" fill="white"/>
<path d="M68.5645 35.5077C68.5645 35.6061 68.5512 35.7039 68.5255 35.8005C68.4999 35.8972 68.4618 35.991 68.4112 36.0818C68.3606 36.1727 68.2984 36.2596 68.2245 36.3412C68.1513 36.4234 68.0673 36.4986 67.9739 36.5686C67.8798 36.6381 67.7787 36.7006 67.6682 36.755C67.5585 36.81 67.4418 36.8563 67.3196 36.8939C67.1975 36.9316 67.0715 36.9599 66.9415 36.979C66.8116 36.9981 66.6801 37.008 66.5479 37.008C66.4156 37.008 66.2841 36.9981 66.1542 36.979C66.0242 36.9599 65.8982 36.9316 65.7761 36.8939C65.6539 36.8563 65.5372 36.81 65.4275 36.755C65.317 36.7006 65.2159 36.6381 65.1218 36.5686C65.0284 36.4986 64.9444 36.4234 64.8712 36.3412C64.7973 36.2596 64.7351 36.1727 64.6845 36.0818C64.6339 35.991 64.5958 35.8972 64.5702 35.8005C64.5445 35.7039 64.5312 35.6061 64.5312 35.5077C64.5312 35.4092 64.5445 35.3114 64.5702 35.2148C64.5958 35.1181 64.6339 35.0243 64.6845 34.9335C64.7351 34.8426 64.7973 34.7558 64.8712 34.6741C64.9444 34.5919 65.0284 34.5167 65.1218 34.4467C65.2159 34.3772 65.317 34.3147 65.4275 34.2603C65.5372 34.2053 65.6539 34.159 65.7761 34.1214C65.8982 34.0837 66.0242 34.0554 66.1542 34.0363C66.2841 34.0172 66.4156 34.0073 66.5479 34.0073C66.6801 34.0073 66.8116 34.0172 66.9415 34.0363C67.0715 34.0554 67.1975 34.0837 67.3196 34.1214C67.4418 34.159 67.5585 34.2053 67.6682 34.2603C67.7787 34.3147 67.8798 34.3772 67.9739 34.4467C68.0673 34.5167 68.1513 34.5919 68.2245 34.6741C68.2984 34.7558 68.3606 34.8426 68.4112 34.9335C68.4618 35.0243 68.4999 35.1181 68.5255 35.2148C68.5512 35.3114 68.5645 35.4092 68.5645 35.5077Z" fill="#00BEBD"/>
<path d="M7.05859 17.0044H58.4819V45.0105H7.05859V17.0044Z" fill="#50D9D7"/>
<path d="M71.5893 15.0033V22.2448C70.9095 22.6894 70.1898 23.0838 69.4303 23.4287C68.6717 23.773 67.8835 24.0631 67.0666 24.2978C66.2487 24.5324 65.4142 24.7099 64.562 24.828C63.709 24.9468 62.8504 25.0062 61.9862 25.0055V16.0035C61.9862 15.8723 61.9704 15.7419 61.9399 15.613C61.9093 15.4841 61.8639 15.3591 61.8037 15.2379C61.7435 15.1168 61.6694 15.001 61.5814 14.8922C61.4944 14.7826 61.3943 14.6823 61.2832 14.5889C61.1711 14.4963 61.0507 14.4129 60.9192 14.3404C60.7886 14.267 60.6496 14.2053 60.5042 14.1551C60.3588 14.105 60.2087 14.0671 60.0541 14.0417C59.8994 14.0162 59.7429 14.0031 59.5854 14.0031H46.5608C46.3727 13.0067 46.3329 12.0065 46.4413 11.0024H66.7878C66.9452 11.0024 67.1018 11.0086 67.2583 11.0217C67.4148 11.0349 67.5704 11.0534 67.7242 11.0796C67.8789 11.1051 68.0308 11.1367 68.1817 11.1745C68.3318 11.2131 68.48 11.2571 68.6254 11.3073C68.7708 11.3575 68.9125 11.413 69.0515 11.4748C69.1895 11.5365 69.3247 11.6037 69.4553 11.677C69.5859 11.7495 69.7119 11.8275 69.8341 11.9108C69.9555 11.9934 70.0722 12.0814 70.1833 12.174C70.2945 12.2666 70.4001 12.3638 70.4992 12.4649C70.5992 12.5668 70.6927 12.6718 70.7798 12.7806C70.8678 12.8894 70.9484 13.0021 71.0225 13.1171C71.0966 13.2329 71.1633 13.3509 71.2235 13.4721C71.2837 13.5933 71.3365 13.7168 71.3828 13.8418C71.4282 13.9676 71.4661 14.0942 71.4967 14.223C71.5282 14.3512 71.5504 14.4808 71.5662 14.6112C71.5819 14.7417 71.5893 14.8721 71.5893 15.0033Z" fill="#00BEBD"/>
</g>
<mask id="mask1_388_2" style="mask-type:luminance" maskUnits="userSpaceOnUse" x="48" y="0" width="27" height="24">
<path d="M48.8203 0H74.6131V23.6508H48.8203V0Z" fill="white"/>
</mask>
<g mask="url(#mask1_388_2)">
<path d="M74.6147 11.7857C74.6147 12.1718 74.594 12.5571 74.5526 12.9407C74.5121 13.3251 74.4501 13.7062 74.3682 14.0848C74.2863 14.4635 74.1847 14.838 74.0623 15.2067C73.9409 15.5762 73.7988 15.9392 73.6386 16.2963C73.4776 16.6526 73.2986 17.0007 73.1007 17.3413C72.9028 17.6819 72.6869 18.0126 72.453 18.3333C72.22 18.6541 71.9699 18.9641 71.7036 19.2626C71.4374 19.561 71.1558 19.8462 70.8589 20.1199C70.5612 20.3927 70.2508 20.6515 69.9261 20.8962C69.6013 21.1409 69.264 21.3707 68.9149 21.5848C68.5659 21.7998 68.2061 21.9982 67.8354 22.1801C67.4648 22.362 67.0861 22.5265 66.6984 22.6745C66.3098 22.8216 65.9148 22.9522 65.5127 23.0638C65.1106 23.1763 64.704 23.2697 64.292 23.3449C63.88 23.4202 63.4653 23.4772 63.047 23.5144C62.6296 23.5524 62.2104 23.5714 61.7903 23.5714C61.3702 23.5714 60.9509 23.5524 60.5335 23.5144C60.1152 23.4772 59.7005 23.4202 59.2885 23.3449C58.8765 23.2697 58.469 23.1763 58.0678 23.0638C57.6657 22.9522 57.2708 22.8216 56.8821 22.6745C56.4944 22.5265 56.1157 22.362 55.7451 22.1801C55.3744 21.9982 55.0146 21.7998 54.6656 21.5848C54.3165 21.3707 53.9792 21.1409 53.6544 20.8962C53.3297 20.6515 53.0193 20.3927 52.7216 20.1199C52.4247 19.8462 52.1431 19.561 51.8769 19.2626C51.6106 18.9641 51.3605 18.6541 51.1275 18.3333C50.8936 18.0126 50.6777 17.6819 50.4798 17.3413C50.2819 17.0007 50.1029 16.6526 49.9419 16.2963C49.7808 15.9392 49.6396 15.5762 49.5182 15.2067C49.3958 14.838 49.2942 14.4635 49.2123 14.0848C49.1304 13.7062 49.0684 13.3251 49.0279 12.9407C48.9865 12.5571 48.9658 12.1718 48.9658 11.7857C48.9658 11.3996 48.9865 11.0144 49.0279 10.6308C49.0684 10.2464 49.1304 9.86525 49.2123 9.48662C49.2942 9.10798 49.3958 8.73347 49.5182 8.36476C49.6396 7.99521 49.7808 7.63228 49.9419 7.27514C50.1029 6.91882 50.2819 6.57077 50.4798 6.23016C50.6777 5.88956 50.8936 5.55887 51.1275 5.2381C51.3605 4.91733 51.6106 4.60731 51.8769 4.30887C52.1431 4.01042 52.4247 3.7252 52.7216 3.45156C53.0193 3.17874 53.3297 2.91998 53.6544 2.67527C53.9792 2.43056 54.3165 2.20073 54.6656 1.98661C55.0146 1.77166 55.3744 1.57325 55.7451 1.39137C56.1157 1.20949 56.4944 1.04497 56.8821 0.896992C57.2708 0.749009 57.6657 0.619213 58.0678 0.507606C58.469 0.395172 58.8765 0.301753 59.2885 0.226521C59.7005 0.15129 60.1152 0.0942461 60.5335 0.0570437C60.9509 0.0190147 61.3702 0 61.7903 0C62.2104 0 62.6296 0.0190147 63.047 0.0570437C63.4653 0.0942461 63.88 0.15129 64.292 0.226521C64.704 0.301753 65.1106 0.395172 65.5127 0.507606C65.9148 0.619213 66.3098 0.749009 66.6984 0.896992C67.0861 1.04497 67.4648 1.20949 67.8354 1.39137C68.2061 1.57325 68.5659 1.77166 68.9149 1.98661C69.264 2.20073 69.6013 2.43056 69.9261 2.67527C70.2508 2.91998 70.5612 3.17874 70.8589 3.45156C71.1558 3.7252 71.4374 4.01042 71.7036 4.30887C71.9699 4.60731 72.22 4.91733 72.453 5.2381C72.6869 5.55887 72.9028 5.88956 73.1007 6.23016C73.2986 6.57077 73.4776 6.91882 73.6386 7.27514C73.7988 7.63228 73.9409 7.99521 74.0623 8.36476C74.1847 8.73347 74.2863 9.10798 74.3682 9.48662C74.4501 9.86525 74.5121 10.2464 74.5526 10.6308C74.594 11.0144 74.6147 11.3996 74.6147 11.7857Z" fill="#F3F3F3"/>
<path d="M64.5308 16.0034C64.5308 16.1346 64.5142 16.265 64.4821 16.3939C64.45 16.5228 64.4024 16.6478 64.3392 16.769C64.276 16.8901 64.1982 17.0059 64.1058 17.1147C64.0144 17.2243 63.9093 17.3246 63.7926 17.418C63.6749 17.5106 63.5485 17.594 63.4104 17.6665C63.2733 17.7399 63.1274 17.8016 62.9747 17.8518C62.8221 17.9019 62.6645 17.9397 62.5021 17.9652C62.3397 17.9907 62.1753 18.0038 62.01 18.0038C61.8447 18.0038 61.6803 17.9907 61.5179 17.9652C61.3555 17.9397 61.198 17.9019 61.0453 17.8518C60.8926 17.8016 60.7467 17.7399 60.6096 17.6665C60.4715 17.594 60.3451 17.5106 60.2274 17.418C60.1107 17.3246 60.0057 17.2243 59.9142 17.1147C59.8219 17.0059 59.7441 16.8901 59.6808 16.769C59.6176 16.6478 59.57 16.5228 59.5379 16.3939C59.5058 16.265 59.4893 16.1346 59.4893 16.0034C59.4893 15.8722 59.5058 15.7417 59.5379 15.6128C59.57 15.484 59.6176 15.3589 59.6808 15.2378C59.7441 15.1166 59.8219 15.0008 59.9142 14.892C60.0057 14.7824 60.1107 14.6821 60.2274 14.5887C60.3451 14.4961 60.4715 14.4127 60.6096 14.3402C60.7467 14.2669 60.8926 14.2051 61.0453 14.155C61.198 14.1048 61.3555 14.067 61.5179 14.0415C61.6803 14.016 61.8447 14.0029 62.01 14.0029C62.1753 14.0029 62.3397 14.016 62.5021 14.0415C62.6645 14.067 62.8221 14.1048 62.9747 14.155C63.1274 14.2051 63.2733 14.2669 63.4104 14.3402C63.5485 14.4127 63.6749 14.4961 63.7926 14.5887C63.9093 14.6821 64.0144 14.7824 64.1058 14.892C64.1982 15.0008 64.276 15.1166 64.3392 15.2378C64.4024 15.3589 64.45 15.484 64.4821 15.6128C64.5142 15.7417 64.5308 15.8722 64.5308 16.0034Z" fill="#FFAC00"/>
<path d="M66.3317 13.0038C66.1704 13.0029 66.0149 12.9744 65.8659 12.9156C65.717 12.8577 65.5851 12.7757 65.4713 12.6688C65.3546 12.5654 65.2332 12.4674 65.1061 12.3738C64.9799 12.2811 64.849 12.1947 64.7133 12.1127C64.5786 12.0317 64.4391 11.9568 64.2968 11.8882C64.1536 11.8196 64.0075 11.7572 63.8586 11.7011C63.7096 11.6449 63.5578 11.5959 63.4042 11.554C63.2495 11.5113 63.0939 11.4765 62.9365 11.448C62.778 11.4195 62.6196 11.3981 62.4602 11.3838C62.2999 11.3696 62.1396 11.3625 61.9793 11.3625C61.8189 11.3625 61.6586 11.3696 61.4983 11.3838C61.3389 11.3981 61.1805 11.4195 61.0221 11.448C60.8646 11.4765 60.709 11.5113 60.5544 11.554C60.4007 11.5959 60.2489 11.6449 60.1 11.7011C59.951 11.7572 59.8049 11.8196 59.6617 11.8882C59.5194 11.9568 59.3799 12.0317 59.2452 12.1127C59.1096 12.1947 58.9786 12.2811 58.8525 12.3738C58.7254 12.4674 58.6039 12.5654 58.4872 12.6688C58.4294 12.716 58.3658 12.757 58.2994 12.7917C58.233 12.8274 58.1628 12.8568 58.0898 12.8799C58.0177 12.9031 57.9437 12.92 57.8668 12.9298C57.7909 12.9405 57.715 12.9441 57.6382 12.9405C57.5613 12.937 57.4855 12.9272 57.4115 12.9102C57.3365 12.8942 57.2644 12.871 57.1942 12.8416C57.124 12.8122 57.0576 12.7775 56.994 12.7365C56.9314 12.6955 56.8726 12.6492 56.8185 12.5975C56.7645 12.5467 56.7161 12.4905 56.6734 12.4308C56.6307 12.3711 56.5947 12.3079 56.5643 12.2419C56.5339 12.1751 56.5102 12.1074 56.4941 12.037C56.477 11.9666 56.4675 11.8953 56.4656 11.8231C56.4628 11.751 56.4675 11.6797 56.4799 11.6084C56.4913 11.5371 56.5102 11.4676 56.5358 11.399C56.5615 11.3313 56.5937 11.2662 56.6326 11.2039C56.6715 11.1424 56.7161 11.0836 56.7664 11.0292C56.9371 10.8688 57.1155 10.7173 57.3024 10.573C57.4892 10.4295 57.6828 10.295 57.8839 10.1684C58.085 10.0428 58.2918 9.92696 58.5043 9.82003C58.7178 9.71311 58.935 9.61598 59.1579 9.52955C59.3818 9.44311 59.6086 9.36648 59.8391 9.30054C60.0706 9.23461 60.3049 9.18025 60.5411 9.1357C60.7783 9.09114 61.0164 9.05818 61.2564 9.0359C61.4973 9.01362 61.7383 9.00293 61.9793 9.00293C62.2202 9.00293 62.4612 9.01362 62.7021 9.0359C62.9422 9.05818 63.1803 9.09114 63.4174 9.1357C63.6537 9.18025 63.888 9.23461 64.1194 9.30054C64.35 9.36648 64.5767 9.44311 64.8006 9.52955C65.0235 9.61598 65.2408 9.71311 65.4542 9.82003C65.6667 9.92696 65.8735 10.0428 66.0746 10.1684C66.2758 10.295 66.4693 10.4295 66.6562 10.573C66.843 10.7173 67.0214 10.8688 67.1922 11.0292C67.2785 11.1094 67.3506 11.2003 67.4085 11.301C67.4663 11.4008 67.5071 11.5068 67.5308 11.6191C67.5555 11.7314 67.5621 11.8436 67.5508 11.9577C67.5394 12.0709 67.51 12.1813 67.4644 12.2865C67.4179 12.3925 67.3572 12.4897 67.2804 12.5779C67.2035 12.667 67.1144 12.7427 67.0138 12.8069C66.9133 12.8701 66.8042 12.9191 66.6884 12.953C66.5717 12.986 66.4531 13.0038 66.3317 13.0038Z" fill="#FFAC00"/>
<path d="M69.4254 9.9553C69.2696 9.9553 69.1209 9.93289 68.9785 9.88806C68.8353 9.84388 68.7099 9.78059 68.6006 9.69949C68.3857 9.54126 68.161 9.3916 67.9263 9.24985C67.6917 9.1081 67.4473 8.97558 67.1947 8.85163C66.9422 8.72768 66.6825 8.61296 66.4148 8.50748C66.1461 8.40265 65.8721 8.30705 65.5918 8.222C65.3115 8.13629 65.0259 8.06113 64.7348 7.99652C64.4447 7.9319 64.1501 7.87718 63.8528 7.83367C63.5546 7.79015 63.2546 7.75785 62.9528 7.73609C62.6501 7.71367 62.3475 7.70313 62.0439 7.70313C61.7403 7.70313 61.4376 7.71367 61.135 7.73609C60.8332 7.75785 60.5332 7.79015 60.235 7.83367C59.9377 7.87718 59.6431 7.9319 59.353 7.99652C59.0619 8.06113 58.7763 8.13629 58.496 8.222C58.2157 8.30705 57.9417 8.40265 57.673 8.50748C57.4053 8.61296 57.1456 8.72768 56.8931 8.85163C56.6405 8.97558 56.3961 9.1081 56.1614 9.24985C55.9268 9.3916 55.7021 9.54126 55.4871 9.69949C55.4352 9.74433 55.3779 9.78454 55.3152 9.82081C55.2516 9.85707 55.1845 9.88871 55.1128 9.91443C55.0412 9.9408 54.9669 9.96058 54.889 9.97574C54.8119 9.99025 54.7331 9.99882 54.6534 10.0015C54.5729 10.0041 54.4941 10.0008 54.4152 9.99157C54.3355 9.98168 54.2594 9.96651 54.1842 9.94541C54.1099 9.92432 54.0391 9.89794 53.972 9.8663C53.9048 9.83399 53.8421 9.79773 53.7857 9.75619C53.7284 9.71532 53.6783 9.66983 53.6335 9.62104C53.5896 9.57159 53.552 9.52016 53.5224 9.46544C53.4929 9.41072 53.4714 9.35402 53.4571 9.296C53.4436 9.23864 53.4374 9.17996 53.4401 9.12129C53.4428 9.06195 53.4535 9.00393 53.4723 8.94723C53.4911 8.88987 53.518 8.83449 53.552 8.78109C53.586 8.72834 53.6272 8.67823 53.6756 8.63142C53.7239 8.58461 53.7786 8.54176 53.8386 8.50286C54.1072 8.30507 54.3893 8.11783 54.683 7.93982C54.9767 7.76246 55.2812 7.59632 55.5973 7.44072C55.9134 7.28513 56.2385 7.1414 56.5743 7.00954C56.9092 6.87768 57.2521 6.75834 57.6032 6.65154C57.9542 6.54473 58.3124 6.45045 58.676 6.36936C59.0395 6.2876 59.4076 6.21969 59.7801 6.16563C60.1526 6.11091 60.5287 6.07003 60.9066 6.04234C61.2845 6.01531 61.6642 6.00146 62.0439 6.00146C62.4236 6.00146 62.8033 6.01531 63.1812 6.04234C63.5591 6.07003 63.9352 6.11091 64.3077 6.16563C64.6802 6.21969 65.0482 6.2876 65.4118 6.36936C65.7754 6.45045 66.1336 6.54473 66.4846 6.65154C66.8356 6.75834 67.1786 6.87768 67.5135 7.00954C67.8493 7.1414 68.1744 7.28513 68.4905 7.44072C68.8066 7.59632 69.1111 7.76246 69.4048 7.93982C69.6985 8.11783 69.9806 8.30507 70.2492 8.50286C70.3289 8.56286 70.3952 8.63011 70.448 8.70461C70.5009 8.77911 70.5385 8.85756 70.56 8.93998C70.5815 9.02239 70.5859 9.10546 70.5743 9.18919C70.5626 9.27227 70.5349 9.3527 70.491 9.4305C70.4471 9.50764 70.3889 9.57884 70.3164 9.64411C70.2439 9.70872 70.1606 9.76477 70.0657 9.81158C69.9707 9.85773 69.8686 9.89333 69.7594 9.91838C69.651 9.94278 69.5391 9.9553 69.4254 9.9553Z" fill="#FFAC00"/>
</g>
</svg>
