<svg width="134" height="105" viewBox="0 0 134 105" fill="none" xmlns="http://www.w3.org/2000/svg">
<g clip-path="url(#clip0_188_77)">
<path fill-rule="evenodd" clip-rule="evenodd" d="M109.451 79.7837C113.659 88.4627 112.323 90.1757 119.01 98.4034L110.342 95.9723L107.986 104.767C102.045 97.1403 102.132 94.8606 98.9524 87.6192C98.615 86.8535 98.2401 86.0287 97.8205 85.1376C97.571 84.6156 97.3302 84.0922 97.0923 83.563C98.0483 83.7908 99.0476 83.912 100.071 83.912C103.877 83.912 107.366 82.2061 109.451 79.7837Z" fill="#57A4FE"/>
<path fill-rule="evenodd" clip-rule="evenodd" d="M95.8347 89.1823C96.9998 88.8406 98.051 88.3027 98.9522 87.6193C98.6148 86.8536 98.2399 86.0288 97.8203 85.1377C97.1108 86.385 96.4591 87.7447 95.8347 89.1823Z" fill="#DEDBEE"/>
<path fill-rule="evenodd" clip-rule="evenodd" d="M28.4112 21.544L10.1058 26.1207C8.75324 21.407 11.7554 16.5534 16.8065 15.2903C21.859 14.0286 27.0572 16.8288 28.4112 21.544Z" fill="#DEDBEE"/>
<path fill-rule="evenodd" clip-rule="evenodd" d="M89.3188 33.8046L81.9533 8.15394C80.6022 3.43737 75.3997 0.637128 70.3501 1.90026L16.8066 15.2901C21.8592 14.0284 27.0574 16.8286 28.4113 21.5438L48.5941 91.8483C49.9481 96.5648 46.9474 101.418 41.8963 102.68L80.8402 92.9413C82.7579 88.1021 84.3311 83.0452 86.458 79.2458C84.4493 78.6762 82.4753 77.5745 80.8589 75.9581C78.6441 73.7419 77.3968 70.8638 77.1603 68.1385C77.1041 67.4925 77.1041 66.8537 77.1603 66.2366C75.7098 65.0326 74.5057 63.3282 73.7502 61.3513C73.2094 59.9296 72.8994 58.3679 72.8994 56.7486C72.8994 53.1856 74.3962 49.9009 76.5749 47.787C76.7638 47.6039 76.9599 47.4265 77.1603 47.2607C76.9268 44.7416 77.6419 41.8996 79.2713 39.4714C79.7284 38.7908 80.2576 38.1419 80.8589 37.5406C83.2468 35.1513 86.4089 33.8911 89.3188 33.8046Z" fill="#DEDBEE"/>
<path fill-rule="evenodd" clip-rule="evenodd" d="M49.426 70.9621L54.2666 73.8633L58.7481 65.1021" fill="#DEDBEE"/>
<path fill-rule="evenodd" clip-rule="evenodd" d="M38.4443 32.7145L43.2849 35.6157L47.7693 26.853" fill="#DEDBEE"/>
<path fill-rule="evenodd" clip-rule="evenodd" d="M43.9351 51.839L48.7756 54.7402L53.2572 45.9775" fill="#DEDBEE"/>
<path fill-rule="evenodd" clip-rule="evenodd" d="M80.8402 92.9411C79.3737 96.6455 77.7054 100.224 75.4358 103.019L84.1018 100.588L86.458 109.379C90.6468 104.004 92.9467 95.812 95.8349 89.182C96.4592 87.7444 97.111 86.3846 97.8204 85.1374C97.571 84.6154 97.3302 84.092 97.0922 83.5628C94.4261 82.9312 92.106 81.4893 90.5819 79.6551C89.2596 79.7762 87.8494 79.6393 86.458 79.2456C84.3311 83.0451 82.7579 88.102 80.8402 92.9411Z" fill="#57A4FE"/>
<path fill-rule="evenodd" clip-rule="evenodd" d="M41.8962 102.68C36.8436 103.943 31.644 101.14 30.29 96.4263L48.594 91.8481C49.948 96.5647 46.9473 101.418 41.8962 102.68Z" fill="#DEDBEE"/>
<path fill-rule="evenodd" clip-rule="evenodd" d="M89.3187 33.8046C89.747 33.793 90.168 33.8046 90.5819 33.8449C92.6511 31.3518 96.1953 29.5854 100.071 29.5854C103.944 29.5854 107.489 31.3518 109.561 33.8449C112.786 33.5464 116.544 34.8024 119.282 37.5406C122.022 40.2803 123.279 44.0365 122.981 47.2607C125.471 49.3299 127.24 52.8756 127.24 56.7487C127.24 60.6231 125.471 64.1674 122.981 66.2366C123.279 69.4608 122.022 73.217 119.282 75.9581C116.544 78.6949 112.786 79.9537 109.561 79.6553C109.523 79.6971 109.489 79.7418 109.451 79.7836C107.366 82.206 103.877 83.9119 100.071 83.9119C99.0475 83.9119 98.0482 83.7907 97.0922 83.5629C94.4261 82.9313 92.106 81.4894 90.5819 79.6553C89.2596 79.7764 87.8494 79.6394 86.4579 79.2458C84.4493 78.6762 82.4753 77.5745 80.8589 75.9581C78.6441 73.7419 77.3968 70.8638 77.1603 68.1385C77.1041 67.4925 77.1041 66.8537 77.1603 66.2366C75.7097 65.0326 74.5057 63.3282 73.7502 61.3513C73.2094 59.9296 72.8994 58.3679 72.8994 56.7487C72.8994 53.1856 74.3961 49.9009 76.5749 47.787C76.7638 47.6039 76.9599 47.4265 77.1603 47.2607C76.9267 44.7416 77.6419 41.8996 79.2713 39.4714C79.7284 38.7908 80.2576 38.1419 80.8589 37.5406C83.2468 35.1513 86.4089 33.8911 89.3187 33.8046ZM100.071 37.8146C110.521 37.8146 119.01 46.2989 119.01 56.7487C119.01 67.1984 110.521 75.6827 100.071 75.6827C89.6187 75.6827 81.1329 67.1984 81.1329 56.7487C81.1329 46.2989 89.6187 37.8146 100.071 37.8146Z" fill="#57A4FE"/>
<path fill-rule="evenodd" clip-rule="evenodd" d="M100.071 37.8145C110.521 37.8145 119.01 46.2988 119.01 56.7485C119.01 67.1982 110.521 75.6826 100.071 75.6826C89.6186 75.6826 81.1328 67.1982 81.1328 56.7485C81.1328 46.2988 89.6186 37.8145 100.071 37.8145ZM89.4369 58.8134C88.6093 57.9021 88.6741 56.4919 89.5854 55.6627C90.4967 54.8351 91.907 54.9028 92.7375 55.8127L97.046 60.5495C97.046 60.5495 110.302 46.5829 111.236 47.3846C112.172 48.1834 98.7937 65.367 98.7937 65.367C98.3769 65.8544 97.7728 66.137 97.1325 66.1485C96.4938 66.1572 95.8781 65.8918 95.4498 65.4189L89.4369 58.8134Z" fill="#DEDBEE"/>
<path fill-rule="evenodd" clip-rule="evenodd" d="M89.437 58.8136C88.6093 57.9023 88.6742 56.4921 89.5855 55.663C90.4968 54.8353 91.907 54.9031 92.7376 55.8129L97.0461 60.5497C97.0461 60.5497 110.302 46.5831 111.236 47.3848C112.172 48.1836 98.7937 65.3672 98.7937 65.3672C98.377 65.8546 97.7728 66.1372 97.1326 66.1487C96.4938 66.1574 95.8781 65.8921 95.4499 65.4191L89.437 58.8136Z" fill="#57A4FE"/>
<mask id="mask0_188_77" style="mask-type:luminance" maskUnits="userSpaceOnUse" x="8" y="0" width="121" height="111">
<path d="M8.84985 0.498535H128.173V110.501H8.84985V0.498535Z" fill="white"/>
</mask>
<g mask="url(#mask0_188_77)">
<path fill-rule="evenodd" clip-rule="evenodd" d="M79.2842 94.2908L42.1226 103.584C36.574 104.971 30.8813 101.861 29.3946 96.683C29.3254 96.4407 29.3572 96.1797 29.484 95.9605C29.6095 95.7414 29.82 95.5842 30.0651 95.5222L47.4333 91.1791L27.7638 22.6669L10.3337 27.0259C9.84631 27.147 9.34884 26.8615 9.21041 26.3784C7.71512 21.1673 10.9984 15.7816 16.5816 14.3859L70.1236 0.996029C75.6707 -0.392555 81.3635 2.7177 82.8501 7.8957L90.0223 32.8744C90.0757 32.8773 90.129 32.8787 90.1824 32.8816C92.4433 30.3942 96.0943 28.6524 100.071 28.6524C104.048 28.6524 107.698 30.3942 109.959 32.8816C113.317 32.7215 117.129 34.0697 119.942 36.8815C122.754 39.6933 124.104 43.5058 123.944 46.8626C126.431 49.1236 128.173 52.7717 128.173 56.7485C128.173 60.7254 126.431 64.3735 123.944 66.6344C124.104 69.9927 122.754 73.8037 119.942 76.6155C117.383 79.1735 113.997 80.5203 110.878 80.6227C114.339 88.1539 113.448 90.0803 119.732 97.8134C119.989 98.1292 120.01 98.5733 119.788 98.9136C119.565 99.2525 119.148 99.4082 118.757 99.2986L110.998 97.1242L108.886 105.006C108.795 105.348 108.518 105.607 108.171 105.678C107.824 105.748 107.468 105.616 107.251 105.337C101.532 97.9951 101.339 95.5698 98.5427 89.0162C97.914 89.3882 97.2334 89.7025 96.5096 89.9462C93.6603 96.5546 91.3446 104.625 87.1947 109.952C86.9769 110.231 86.6208 110.363 86.2747 110.293C85.9272 110.223 85.6504 109.962 85.5595 109.621L83.4471 101.74L75.688 103.914C75.2973 104.024 74.8805 103.868 74.657 103.528C74.435 103.189 74.4566 102.745 74.7133 102.429C76.5791 100.134 78.0211 97.2915 79.2842 94.2908ZM88.1089 32.9681L81.0592 8.41047C79.8379 4.1582 75.1314 1.66509 70.5764 2.80422C70.5764 2.80422 36.9288 11.2179 22.9809 14.7074C25.9845 15.7917 28.4112 18.1623 29.3081 21.287L49.4924 91.5915C50.3965 94.7421 49.5544 97.9562 47.5126 100.315L80.1494 92.1524C80.3109 91.7357 80.4724 91.319 80.631 90.9008C82.1234 86.9686 83.4673 83.0091 85.1168 79.7806C83.3447 79.113 81.6403 78.056 80.1998 76.6155C78.1119 74.529 76.83 71.8903 76.3744 69.2948L69.3175 71.0597C68.8186 71.1837 68.3125 70.8809 68.1871 70.382C68.0631 69.8831 68.3659 69.377 68.8662 69.2516L76.1884 67.4203C76.1826 67.1564 76.1855 66.894 76.1985 66.6344C74.9829 65.5299 73.9447 64.0923 73.2007 62.4471L67.2714 63.9308C66.7725 64.0548 66.265 63.752 66.141 63.2531C66.0155 62.7542 66.3198 62.2466 66.8187 62.1226L72.546 60.6908C72.174 59.4435 71.9693 58.1155 71.9678 56.7485C71.9678 54.0189 72.7897 51.4422 74.1105 49.3644L63.8281 51.9353C63.3292 52.0608 62.8216 51.7565 62.6976 51.2576C62.5722 50.7587 62.8764 50.2526 63.3753 50.1271L76.112 46.9419C76.1408 46.9159 76.1696 46.8886 76.1985 46.8626C76.1062 44.9318 76.5128 42.8526 77.4097 40.8987L61.782 44.8064C61.2816 44.9318 60.7755 44.6276 60.6501 44.1287C60.5261 43.6298 60.8289 43.1237 61.3292 42.9982L78.706 38.6522C79.1458 38.0307 79.6447 37.4367 80.1998 36.8815C82.4449 34.6364 85.3288 33.3243 88.1089 32.9681ZM108.755 79.1634C108.785 79.1288 108.815 79.0942 108.844 79.0582C109.04 78.8217 109.34 78.6977 109.647 78.7265C112.626 79.0019 116.093 77.8282 118.625 75.2976C121.155 72.767 122.329 69.302 122.053 66.323C122.025 66.0158 122.149 65.7159 122.385 65.5198C124.688 63.6078 126.309 60.3274 126.309 56.7485C126.309 53.1696 124.688 49.8892 122.385 47.9787C122.15 47.7811 122.025 47.4812 122.053 47.1755C122.329 44.1965 121.155 40.73 118.625 38.1994C116.093 35.6688 112.626 34.4965 109.647 34.772C109.34 34.7994 109.04 34.6753 108.844 34.4389C106.932 32.1375 103.65 30.5168 100.071 30.5168C96.4908 30.5168 93.2104 32.1375 91.2984 34.4389C91.1009 34.6753 90.801 34.7994 90.4953 34.7705C90.1305 34.7374 89.7584 34.7258 89.3821 34.7345C89.3576 34.7359 89.3331 34.7374 89.31 34.7374C86.6294 34.8239 83.7196 35.999 81.5178 38.1994C80.9684 38.7488 80.4839 39.3415 80.0643 39.9644C80.0513 39.9817 80.0398 40.0004 80.0268 40.0177C78.5358 42.2527 77.874 44.8612 78.0888 47.1755C78.1162 47.4812 77.9922 47.7811 77.7558 47.9772C77.5798 48.1243 77.4068 48.28 77.2395 48.4415C77.228 48.4516 77.2179 48.4617 77.2078 48.4718C75.2006 50.4256 73.8322 53.4609 73.8337 56.7485C73.8337 58.2308 74.1105 59.6598 74.5994 60.9633C74.6152 60.9979 74.6296 61.0354 74.6412 61.0729C75.3362 62.871 76.4335 64.4211 77.7558 65.5198C77.9922 65.7159 78.1177 66.0158 78.0888 66.3215C78.0384 66.8724 78.0369 67.439 78.0831 68.0129C78.0874 68.0432 78.0903 68.0735 78.0917 68.1023C78.3196 70.6127 79.4789 73.2587 81.5178 75.2976C83.003 76.7828 84.8097 77.7994 86.6511 78.3314C86.6914 78.3401 86.7333 78.3516 86.7736 78.366C88.031 78.715 89.3013 78.8361 90.4953 78.7265C90.801 78.6977 91.1023 78.8217 91.2984 79.0582C92.6957 80.7409 94.8254 82.0603 97.2695 82.6471C97.2954 82.6529 97.3214 82.6601 97.3474 82.6659C98.2226 82.8706 99.1368 82.9817 100.071 82.9802C103.584 82.9817 106.808 81.4201 108.734 79.1879C108.742 79.1793 108.749 79.1706 108.755 79.1634ZM99.8246 87.2931C102.716 93.8971 102.857 96.3282 107.576 102.689L109.442 95.7313C109.506 95.4905 109.664 95.2857 109.881 95.1617C110.097 95.0392 110.354 95.0074 110.594 95.0752L116.532 96.7392C111.989 90.6167 112.39 88.3442 109.181 81.3927C106.907 83.459 103.62 84.8447 100.071 84.8447C99.6011 84.8447 99.1368 84.8201 98.6783 84.774C99.0892 85.6449 99.4555 86.4495 99.7842 87.2008C99.8001 87.2311 99.8131 87.2613 99.8246 87.2931ZM97.7078 87.3421C97.7352 87.3248 97.7612 87.3089 97.7871 87.2931C97.7785 87.2729 97.7698 87.2541 97.7612 87.2354C97.7439 87.27 97.7251 87.306 97.7078 87.3421ZM81.698 93.3059C80.5589 96.1783 79.2972 98.9728 77.7428 101.402L83.8508 99.6894C84.0916 99.6231 84.3483 99.6548 84.5646 99.7774C84.7809 99.9014 84.9395 100.105 85.0029 100.345L86.8486 107.231C90.2804 102.007 92.3813 94.8647 94.9379 88.9282C94.9595 88.8489 94.9927 88.7739 95.0345 88.7033C95.5867 87.4344 96.1592 86.2246 96.772 85.1013C96.6567 84.8533 96.5413 84.6039 96.4288 84.3544C93.9228 83.668 91.7281 82.3169 90.1824 80.6169C89.1298 80.6659 88.0324 80.5679 86.9337 80.3227C85.238 83.5469 83.8883 87.5699 82.3743 91.5626C82.158 92.1293 81.9403 92.696 81.7168 93.2598C81.711 93.2742 81.7038 93.2901 81.698 93.3059ZM17.0329 16.194C12.8268 17.2467 10.178 21.0606 10.8066 24.9855L27.1899 20.889C25.6009 17.2005 21.252 15.1385 17.0329 16.194ZM41.6698 101.776C45.876 100.723 48.5248 96.9093 47.8961 92.9844C44.3072 93.8813 31.5128 97.0809 31.5128 97.0809C33.1019 100.769 37.4507 102.831 41.6698 101.776ZM37.9655 33.5146C37.5257 33.2493 37.3815 32.6768 37.6454 32.2356C37.9107 31.7944 38.4832 31.6502 38.9244 31.9155L42.9099 34.3033L46.9387 26.4289C47.1737 25.9704 47.7361 25.7887 48.1932 26.0237C48.6517 26.2573 48.8334 26.8197 48.5984 27.2782L44.1154 36.0394C43.9986 36.2687 43.7909 36.4403 43.5429 36.5109C43.2949 36.5816 43.0282 36.547 42.8061 36.4143L37.9655 33.5146ZM43.4564 52.639C43.0152 52.3737 42.8724 51.8012 43.1363 51.36C43.4002 50.9188 43.9741 50.7746 44.4153 51.0399L48.4008 53.4277L52.4296 45.5533C52.6632 45.0948 53.2255 44.9131 53.6841 45.1467C54.1412 45.3817 54.3228 45.9441 54.0893 46.4012L49.6063 55.1638C49.488 55.3931 49.2804 55.5647 49.0324 55.6353C48.7844 55.706 48.5176 55.6714 48.297 55.5387L43.4564 52.639ZM56.2911 25.682C55.7922 25.8074 55.2846 25.5032 55.1606 25.0043C55.0352 24.5054 55.3394 23.9992 55.8383 23.8738L78.7219 18.1508C79.2208 18.0267 79.7283 18.331 79.8523 18.8299C79.9778 19.3288 79.6735 19.8349 79.1746 19.9604L56.2911 25.682ZM48.9473 71.762C48.5061 71.4981 48.3619 70.9242 48.6272 70.483C48.8911 70.0417 49.4635 69.899 49.9062 70.1629L53.8903 72.5521L57.919 64.6763C58.1541 64.2192 58.7164 64.0375 59.175 64.2711C59.6321 64.5061 59.8137 65.0671 59.5787 65.5256L55.0972 74.2882C54.9789 74.5175 54.7713 74.6877 54.5233 74.7583C54.2753 74.8304 54.0085 74.7944 53.7864 74.6631L48.9473 71.762ZM58.3372 32.8109C57.8383 32.9364 57.3322 32.6336 57.2067 32.1332C57.0827 31.6343 57.3855 31.1282 57.8844 31.0027L80.7694 25.2797C81.2683 25.1557 81.7744 25.4599 81.8999 25.9588C82.0239 26.4577 81.7196 26.9639 81.2207 27.0879L58.3372 32.8109ZM100.071 36.883C111.037 36.883 119.941 45.784 119.941 56.7485C119.941 67.713 111.037 76.6141 100.071 76.6141C89.1038 76.6141 80.2013 67.713 80.2013 56.7485C80.2013 45.784 89.1038 36.883 100.071 36.883ZM100.071 38.7474C90.1333 38.7474 82.0657 46.8136 82.0657 56.7485C82.0657 66.6849 90.1333 74.7497 100.071 74.7497C110.008 74.7497 118.077 66.6835 118.077 56.7485C118.077 46.8136 110.009 38.7474 100.071 38.7474ZM97.0633 59.1825C99.1757 56.9807 105.585 50.3622 108.812 47.7234C109.767 46.9433 110.532 46.505 110.904 46.4387C111.327 46.3622 111.633 46.4949 111.843 46.6751C112.058 46.8583 112.25 47.1568 112.212 47.6297C112.181 48.0234 111.8 48.9001 111.098 50.0478C108.136 54.8812 99.529 65.9394 99.529 65.9394C99.5203 65.951 99.5117 65.9611 99.5016 65.9726C98.9118 66.6618 98.0553 67.0656 97.1484 67.08C96.2399 67.093 95.3705 66.7166 94.7605 66.0461L88.7476 59.4406C87.5739 58.1501 87.6676 56.1487 88.9596 54.9749C90.2501 53.7998 92.2515 53.8935 93.4253 55.1855L97.0633 59.1825ZM108.791 50.1992C104.631 53.9093 97.7223 61.1897 97.7223 61.1897C97.5463 61.3757 97.3027 61.4795 97.046 61.481C97.046 61.481 96.6942 61.5458 96.3553 61.1738L96.2371 61.0426L92.0468 56.4399C91.5652 55.9093 90.7433 55.8704 90.2141 56.3534C89.6835 56.835 89.6445 57.6555 90.1276 58.1861L96.139 64.7916C96.3899 65.0671 96.7461 65.2213 97.1181 65.2156C97.4843 65.2098 97.8304 65.0498 98.0726 64.7758C98.4403 64.3028 105.481 55.2417 108.791 50.1992Z" fill="black"/>
</g>
</g>
<defs>
<clipPath id="clip0_188_77">
<rect width="134" height="105" fill="white"/>
</clipPath>
</defs>
</svg>
