<svg width="114" height="113" viewBox="0 0 114 113" fill="none" xmlns="http://www.w3.org/2000/svg">
<g clip-path="url(#clip0_197_40)">
<mask id="mask0_197_40" style="mask-type:luminance" maskUnits="userSpaceOnUse" x="8" y="-1" width="71" height="95">
<path d="M8.47681 -0.15625H78.3653V93.6192H8.47681V-0.15625Z" fill="white"/>
</mask>
<g mask="url(#mask0_197_40)">
<path d="M16.7416 14.452C16.7416 10.8807 19.7006 7.98089 23.3477 7.98089H78.1667V6.34168C78.1829 2.77046 75.2227 -0.129395 71.5605 -0.129395H15.1029C11.4407 -0.129395 8.48047 2.77046 8.48047 6.34168V86.8723C8.48047 90.4436 11.4394 93.3434 15.0854 93.3434H16.7416V14.452Z" fill="#8ABA55"/>
</g>
<path d="M71.5606 -0.128906H51.5935C51.5935 2.95104 54.1515 5.45763 57.2954 5.45763H72.4636V16.3208C72.4636 19.4007 75.0217 21.9073 78.1667 21.9073H78.183V6.34217C78.183 2.77095 75.2228 -0.128906 71.5606 -0.128906Z" fill="white" fill-opacity="0.3"/>
<path d="M79.8219 7.96387H23.3642C19.7183 7.96387 16.7581 10.8637 16.7581 14.4362V94.9668C16.7581 98.5381 19.7183 101.438 23.3642 101.438H79.8393C83.4853 101.438 86.4442 98.5381 86.4442 94.9668V14.4521C86.4442 10.8637 83.4853 7.96387 79.8219 7.96387Z" fill="#E2E2E2"/>
<path d="M23.7314 40.9307H37.5957V54.5135H23.7314V40.9307Z" fill="#EF4A51"/>
<path d="M23.7314 60.3955H37.5957V73.9784H23.7314V60.3955Z" fill="#FFAB03"/>
<path d="M23.7314 79.876H37.5957V93.4589H23.7314V79.876Z" fill="#7CB5E8"/>
<path d="M23.7314 79.876H37.5957V93.4589H23.7314V79.876Z" fill="#7CB5E8"/>
<path d="M28.7488 85.2665C28.7488 87.0686 30.2539 88.5437 32.0937 88.5437H37.5957V79.876H28.7488V85.2665Z" fill="white" fill-opacity="0.3"/>
<path d="M28.7488 65.786C28.7488 67.5882 30.2539 69.0632 32.0937 69.0632H37.5957V60.3955H28.7488V65.786Z" fill="white" fill-opacity="0.3"/>
<path d="M28.7488 46.3041C28.7488 48.1062 30.2539 49.5813 32.0937 49.5813H37.5957V40.9136H28.7488V46.3041Z" fill="white" fill-opacity="0.3"/>
<path d="M79.8218 7.96387H39.5354V28.5593C39.5354 43.5352 51.9271 55.6761 67.2128 55.6761H86.4442V14.4521C86.4442 10.8637 83.4852 7.96387 79.8218 7.96387Z" fill="white" fill-opacity="0.3"/>
<path d="M79.8219 7.98096H54.6201C54.6201 11.6673 57.6803 14.6652 61.4436 14.6652H79.6046V27.6747C79.6046 31.3611 82.6647 34.3602 86.4281 34.3602H86.4443V14.452C86.4443 10.8808 83.4853 7.98096 79.8219 7.98096Z" fill="white" fill-opacity="0.5"/>
<path d="M95.2237 57.8874C95.2237 58.2329 95.2162 58.5772 95.1987 58.9214C95.1812 59.2669 95.155 59.61 95.1213 59.953C95.0863 60.296 95.0426 60.6391 94.9914 60.9796C94.9402 61.3202 94.8802 61.6608 94.8115 61.9989C94.7428 62.3371 94.6654 62.6728 94.5792 63.0072C94.4943 63.3417 94.4006 63.6749 94.2982 64.0045C94.1957 64.334 94.0858 64.6623 93.9672 64.987C93.8485 65.3117 93.7224 65.6326 93.5875 65.9512C93.4526 66.2697 93.3102 66.5846 93.159 66.897C93.0092 67.2081 92.8505 67.5169 92.6844 67.8207C92.5195 68.1245 92.3459 68.4247 92.1648 68.7199C91.9837 69.0164 91.7951 69.308 91.6002 69.5947C91.4041 69.8814 91.2018 70.1631 90.992 70.44C90.7821 70.7169 90.566 70.9889 90.3425 71.2547C90.1189 71.5218 89.8891 71.7827 89.653 72.0376C89.4169 72.2936 89.1746 72.5435 88.9248 72.7873C88.6763 73.0311 88.4215 73.2688 88.1604 73.5004C87.8994 73.7319 87.6333 73.9573 87.361 74.1754C87.09 74.3947 86.8114 74.6066 86.5292 74.8125C86.2469 75.017 85.9584 75.2155 85.6661 75.4079C85.3738 75.599 85.0765 75.784 84.7743 75.9604C84.472 76.138 84.166 76.3083 83.8562 76.47C83.5452 76.633 83.2317 76.7886 82.9132 76.9356C82.5947 77.0826 82.2737 77.2223 81.9477 77.3546C81.623 77.4869 81.2945 77.6106 80.9635 77.727C80.6325 77.8434 80.2977 77.9512 79.9605 78.0517C79.6245 78.1509 79.2848 78.2428 78.9438 78.3273C78.6028 78.4106 78.2593 78.4866 77.9133 78.554C77.5686 78.6213 77.2214 78.6801 76.8741 78.7304C76.5256 78.7806 76.1759 78.8235 75.8262 78.8566C75.4752 78.8909 75.1255 78.9166 74.7732 78.9325C74.4223 78.9497 74.07 78.9582 73.7178 78.9582C73.3656 78.9582 73.0146 78.9497 72.6624 78.9325C72.3114 78.9166 71.9604 78.8909 71.6107 78.8566C71.2597 78.8235 70.9112 78.7806 70.5627 78.7304C70.2143 78.6801 69.867 78.6213 69.5223 78.554C69.1776 78.4866 68.8341 78.4106 68.4931 78.3273C68.1509 78.2428 67.8124 78.1509 67.4751 78.0517C67.1379 77.9512 66.8044 77.8434 66.4734 77.727C66.1412 77.6106 65.8127 77.4869 65.4879 77.3546C65.1632 77.2223 64.8409 77.0826 64.5224 76.9356C64.2052 76.7886 63.8904 76.633 63.5806 76.47C63.2696 76.3083 62.9636 76.138 62.6613 75.9604C62.3603 75.784 62.0631 75.599 61.7695 75.4079C61.4773 75.2155 61.19 75.017 60.9065 74.8125C60.6242 74.6066 60.3469 74.3947 60.0746 74.1754C59.8023 73.9573 59.5363 73.7319 59.2752 73.5004C59.0142 73.2688 58.7594 73.0311 58.5108 72.7873C58.2622 72.5435 58.0199 72.2936 57.7826 72.0376C57.5465 71.7827 57.3167 71.5218 57.0931 71.2547C56.8708 70.9889 56.6535 70.7169 56.4436 70.44C56.2351 70.1631 56.0315 69.8814 55.8366 69.5947C55.6405 69.308 55.4519 69.0164 55.2721 68.7199C55.0909 68.4247 54.9173 68.1245 54.7512 67.8207C54.5851 67.5169 54.4277 67.2081 54.2766 66.897C54.1267 66.5846 53.983 66.2697 53.8494 65.9512C53.7145 65.6326 53.5871 65.3117 53.4684 64.987C53.351 64.6623 53.2399 64.334 53.1374 64.0045C53.0363 63.6749 52.9414 63.3417 52.8564 63.0072C52.7702 62.6728 52.694 62.3371 52.6253 61.9989C52.5566 61.6608 52.4967 61.3202 52.4442 60.9796C52.393 60.6391 52.3493 60.296 52.3156 59.953C52.2806 59.61 52.2556 59.2669 52.2381 58.9214C52.2207 58.5772 52.2119 58.2329 52.2119 57.8874C52.2119 57.5432 52.2207 57.1989 52.2381 56.8547C52.2556 56.5092 52.2806 56.1662 52.3156 55.8231C52.3493 55.4801 52.393 55.1371 52.4442 54.7965C52.4967 54.4559 52.5566 54.1153 52.6253 53.7772C52.694 53.439 52.7702 53.1034 52.8564 52.7689C52.9414 52.4344 53.0363 52.1012 53.1374 51.7717C53.2399 51.4421 53.351 51.1138 53.4684 50.7891C53.5871 50.4645 53.7145 50.1435 53.8494 49.8249C53.983 49.5064 54.1267 49.1916 54.2766 48.8792C54.4277 48.568 54.5851 48.2592 54.7512 47.9554C54.9173 47.6516 55.0909 47.3514 55.2721 47.0562C55.4519 46.7597 55.6405 46.4681 55.8366 46.1814C56.0315 45.8948 56.2351 45.613 56.4436 45.3361C56.6535 45.0592 56.8708 44.7873 57.0931 44.5214C57.3167 44.2543 57.5465 43.9934 57.7826 43.7386C58.0199 43.4825 58.2622 43.2326 58.5108 42.9888C58.7594 42.745 59.0142 42.5073 59.2752 42.2758C59.5363 42.0442 59.8023 41.8188 60.0746 41.6007C60.3469 41.3814 60.6242 41.1695 60.9065 40.9637C61.19 40.7591 61.4773 40.5606 61.7695 40.3683C62.0631 40.1771 62.3603 39.9922 62.6613 39.8157C62.9636 39.6381 63.2696 39.4678 63.5806 39.3061C63.8904 39.1431 64.2052 38.9876 64.5224 38.8405C64.8409 38.6935 65.1632 38.5539 65.4879 38.4216C65.8127 38.2892 66.1412 38.1655 66.4734 38.0491C66.8044 37.9327 67.1379 37.8249 67.4751 37.7245C67.8124 37.6252 68.1509 37.5333 68.4931 37.4488C68.8341 37.3655 69.1776 37.2895 69.5223 37.2222C69.867 37.1548 70.2143 37.096 70.5627 37.0457C70.9112 36.9955 71.2597 36.9526 71.6107 36.9196C71.9604 36.8853 72.3114 36.8595 72.6624 36.8436C73.0146 36.8264 73.3656 36.8179 73.7178 36.8179C74.07 36.8179 74.4223 36.8264 74.7732 36.8436C75.1255 36.8595 75.4752 36.8853 75.8262 36.9196C76.1759 36.9526 76.5256 36.9955 76.8741 37.0457C77.2214 37.096 77.5686 37.1548 77.9133 37.2222C78.2593 37.2895 78.6028 37.3655 78.9438 37.4488C79.2848 37.5333 79.6245 37.6252 79.9605 37.7245C80.2977 37.8249 80.6325 37.9327 80.9635 38.0491C81.2945 38.1655 81.623 38.2892 81.9477 38.4216C82.2737 38.5539 82.5947 38.6935 82.9132 38.8405C83.2317 38.9876 83.5452 39.1431 83.8562 39.3061C84.166 39.4678 84.472 39.6381 84.7743 39.8157C85.0765 39.9922 85.3738 40.1771 85.6661 40.3683C85.9584 40.5606 86.2469 40.7591 86.5292 40.9637C86.8114 41.1695 87.09 41.3814 87.361 41.6007C87.6333 41.8188 87.9006 42.0442 88.1604 42.2758C88.4215 42.5073 88.6763 42.745 88.9248 42.9888C89.1746 43.2326 89.4169 43.4825 89.653 43.7386C89.8891 43.9934 90.1189 44.2543 90.3425 44.5214C90.566 44.7873 90.7821 45.0592 90.992 45.3361C91.2018 45.613 91.4041 45.8948 91.6002 46.1814C91.7951 46.4681 91.9837 46.7597 92.1648 47.0562C92.3459 47.3514 92.5195 47.6516 92.6844 47.9554C92.8505 48.2592 93.0092 48.568 93.159 48.8792C93.3102 49.1916 93.4526 49.5064 93.5875 49.8249C93.7224 50.1435 93.8485 50.4645 93.9672 50.7891C94.0858 51.1138 94.1957 51.4421 94.2982 51.7717C94.4006 52.1012 94.4943 52.4344 94.5792 52.7689C94.6654 53.1034 94.7428 53.439 94.8115 53.7772C94.8802 54.1153 94.9402 54.4559 94.9914 54.7965C95.0426 55.1371 95.0863 55.4801 95.1213 55.8231C95.155 56.1662 95.1812 56.5092 95.1987 56.8547C95.2162 57.1989 95.2237 57.5432 95.2237 57.8874Z" fill="white"/>
<path d="M73.7178 73.6339C78.0157 73.6339 82.0464 71.9947 85.0728 69.0299C88.1004 66.0639 89.7729 62.0994 89.7729 57.9046C89.7729 53.6939 88.1004 49.7453 85.0728 46.7793C82.0464 43.8133 77.9995 42.1753 73.7178 42.1753C69.4199 42.1753 65.3905 43.8133 62.3628 46.7793C56.1089 52.9233 56.1089 62.9018 62.3628 69.0299C65.4067 71.9947 69.4373 73.6339 73.7178 73.6339Z" fill="#7CB5E8"/>
<path d="M73.7177 42.1597C70.6913 42.1597 67.7985 42.9952 65.2892 44.518C61.4597 50.5811 62.2128 58.6583 67.5799 63.9178C70.6076 66.8838 74.6545 68.5218 78.9362 68.5218C81.9626 68.5218 84.8553 67.6862 87.3809 66.1622C88.9359 63.7046 89.789 60.8709 89.789 57.889C89.789 53.677 88.1166 49.7284 85.0902 46.7637C82.0463 43.7977 78.0156 42.1597 73.7177 42.1597Z" fill="white" fill-opacity="0.3"/>
<path d="M95.5421 74.7648L90.9594 79.2537C90.6758 79.5318 90.3411 79.7609 90.0063 79.9581L102.667 92.3612C104.389 94.0494 107.198 94.0494 108.92 92.3612C110.643 90.6742 110.643 87.9214 108.92 86.2332L96.2615 73.8301C96.0604 74.1743 95.8269 74.4855 95.5421 74.7648Z" fill="#EF4A51"/>
<path d="M96.2616 73.8462C96.0605 74.1745 95.8269 74.4857 95.5421 74.765L92.5657 77.6808L102.683 87.5932C104.405 89.2815 107.214 89.2815 108.938 87.5932C109.155 87.3813 109.339 87.151 109.506 86.9219C109.339 86.6928 109.155 86.4637 108.938 86.2505L96.2616 73.8462Z" fill="#E2E2E2" fill-opacity="0.3"/>
<path d="M88.936 72.7987C91.0107 70.7662 92.5657 68.4397 93.6024 65.9331L95.5422 67.8333C97.4994 69.7506 97.4994 72.8636 95.5422 74.7809L90.9595 79.2697C89.0035 81.187 85.8259 81.187 83.8687 79.2697L81.929 77.3696C84.472 76.3368 86.8626 74.814 88.936 72.7987Z" fill="#4E6575"/>
<path d="M90.9433 75.8784L95.5261 71.3884C96.0606 70.8652 96.4291 70.2588 96.6789 69.6034C96.4291 68.9479 96.0606 68.3415 95.5261 67.8171L93.5851 65.917C92.5321 68.4064 90.9771 70.7501 88.9199 72.7813C87.4985 74.1743 85.9422 75.3051 84.271 76.2227C86.2607 77.7627 89.1198 77.6646 90.9433 75.8784Z" fill="#E2E2E2" fill-opacity="0.3"/>
<path d="M51.5936 12.8794L53.9843 17.6157L59.3189 18.3691L55.4556 22.0555L56.3587 27.266L51.5936 24.8084L46.8273 27.266L47.7303 22.0555L43.8833 18.3691L49.2017 17.6157L51.5936 12.8794Z" fill="#FFAB03"/>
<path d="M53.9843 17.6157L51.5936 12.8794L49.2017 17.6157L47.8977 17.7958C48.767 21.0558 51.7772 23.4803 55.3732 23.4803C55.4731 23.4803 55.573 23.4485 55.673 23.4485L55.4231 22.0555L59.2864 18.3691L53.9843 17.6157Z" fill="white" fill-opacity="0.3"/>
<path d="M34.7529 18.647L37.1273 23.3821L42.4619 24.1355L38.5987 27.8219L39.5192 33.0323L34.7529 30.5747L29.9703 33.0323L30.8896 27.8219L27.0264 24.1355L32.361 23.3821L34.7529 18.647Z" fill="#FFAB03"/>
<path d="M37.1274 23.3821L34.7367 18.647L32.3448 23.3821L31.0396 23.5634C31.9101 26.8234 34.9203 29.2479 38.515 29.2479C38.6162 29.2479 38.7161 29.2161 38.816 29.2161L38.5662 27.8231L42.4283 24.1367L37.1274 23.3821Z" fill="white" fill-opacity="0.3"/>
<path d="M68.4507 18.647L70.8251 23.3821L76.1597 24.1355L72.2964 27.8219L73.217 33.0323L68.4507 30.5747L63.6681 33.0323L64.5874 27.8219L60.7241 24.1355L66.0588 23.3821L68.4507 18.647Z" fill="#FFAB03"/>
<path d="M70.8251 23.3821L68.4332 18.647L66.0425 23.3821L64.7373 23.5634C65.6066 26.8234 68.6168 29.2479 72.2128 29.2479C72.314 29.2479 72.4139 29.2161 72.5138 29.2161L72.2627 27.8231L76.126 24.1367L70.8251 23.3821Z" fill="white" fill-opacity="0.3"/>
<path d="M58.7843 88.7569H45.4059C44.7202 88.7569 44.1519 88.1995 44.1519 87.5281C44.1519 86.8567 44.7202 86.2993 45.4059 86.2993H58.7843C59.47 86.2993 60.0383 86.8567 60.0383 87.5281C60.0383 88.1995 59.4863 88.7569 58.7843 88.7569Z" fill="#5E7588"/>
<path d="M68.0995 88.7569H64.922C64.2363 88.7569 63.668 88.1995 63.668 87.5281C63.668 86.8567 64.2363 86.2993 64.922 86.2993H68.0995C68.7853 86.2993 69.3536 86.8567 69.3536 87.5281C69.3536 88.1995 68.784 88.7569 68.0995 88.7569Z" fill="#5E7588"/>
<path d="M58.7843 94.6876H45.4059C44.7202 94.6876 44.1519 94.1301 44.1519 93.4588C44.1519 92.7874 44.7202 92.23 45.4059 92.23H58.7843C59.47 92.23 60.0383 92.7874 60.0383 93.4588C60.0383 94.1301 59.4863 94.6876 58.7843 94.6876Z" fill="#5E7588"/>
<path d="M68.0995 94.6876H64.922C64.2363 94.6876 63.668 94.1301 63.668 93.4588C63.668 92.7874 64.2363 92.23 64.922 92.23H68.0995C68.7853 92.23 69.3536 92.7874 69.3536 93.4588C69.3536 94.1301 68.784 94.6876 68.0995 94.6876Z" fill="#5E7588"/>
<path d="M29.5857 50.9745C29.2672 50.9745 28.9499 50.8593 28.6988 50.6131L26.7091 48.6639C26.2233 48.1886 26.2233 47.402 26.7091 46.9267C27.1938 46.4526 27.9969 46.4526 28.4815 46.9267L29.5682 47.9925L32.8294 44.7974C33.314 44.3221 34.1172 44.3221 34.6018 44.7974C35.0877 45.2728 35.0877 46.0593 34.6018 46.5334L30.455 50.5971C30.2202 50.8593 29.9029 50.9745 29.5857 50.9745Z" fill="#5E7588"/>
<path d="M29.5857 70.4549C29.2509 70.4549 28.9324 70.3239 28.6988 70.0948L26.7091 68.1456C26.2233 67.6702 26.2233 66.8837 26.7091 66.4084C27.1938 65.933 27.9969 65.933 28.4815 66.4084L29.5682 67.473L32.8294 64.2779C33.314 63.8026 34.1172 63.8026 34.6018 64.2779C35.0877 64.7532 35.0877 65.5398 34.6018 66.0151L30.455 70.0788C30.2377 70.3239 29.9192 70.4549 29.5857 70.4549Z" fill="#5E7588"/>
<path d="M29.5857 89.9369C29.2509 89.9369 28.9324 89.8058 28.6988 89.5767L26.7091 87.6263C26.2233 87.151 26.2233 86.3644 26.7091 85.8891C27.1938 85.4137 27.9969 85.4137 28.4815 85.8891L29.5682 86.9549L32.8294 83.7598C33.314 83.2845 34.1172 83.2845 34.6018 83.7598C35.0877 84.2352 35.0877 85.0217 34.6018 85.497L30.455 89.5595C30.2377 89.8058 29.9192 89.9369 29.5857 89.9369Z" fill="#5E7588"/>
<path d="M70.5402 64.1306C70.2229 64.1306 69.9056 64.0154 69.6546 63.7704L65.8076 60.0019C65.3229 59.5266 65.3229 58.74 65.8076 58.2647C66.2934 57.7893 67.0953 57.7893 67.5812 58.2647L70.5402 61.1645L79.8555 52.0386C80.3401 51.5633 81.1432 51.5633 81.6278 52.0386C82.1137 52.514 82.1137 53.3005 81.6278 53.7746L71.427 63.7691C71.1922 63.9995 70.8749 64.1306 70.5402 64.1306Z" fill="#5E7588"/>
</g>
<defs>
<clipPath id="clip0_197_40">
<rect width="114" height="113" fill="white"/>
</clipPath>
</defs>
</svg>
