<svg width="94" height="110" viewBox="0 0 94 110" fill="none" xmlns="http://www.w3.org/2000/svg">
<g clip-path="url(#clip0_188_64)">
<path fill-rule="evenodd" clip-rule="evenodd" d="M47.0519 -0.081543C49.2987 -0.081543 51.1635 1.11904 53.0056 2.30497C54.1782 3.05833 55.3402 3.80636 56.4037 4.05526C57.4885 4.30949 58.882 4.13645 60.269 3.96475C62.3587 3.70387 64.4364 3.44566 66.3384 4.37604C68.2418 5.30908 69.3026 7.11794 70.3594 8.92147C71.0476 10.0941 71.7344 11.2654 72.5662 11.9309C73.3995 12.5991 74.6945 13.013 75.9883 13.4256C77.9755 14.0592 79.9627 14.6941 81.2711 16.3219C82.5808 17.9511 82.7738 20.0248 82.9668 22.1039C83.0933 23.4682 83.2197 24.8351 83.6962 25.8028C84.1621 26.7531 85.1564 27.6928 86.1559 28.6392C87.7013 30.0993 89.2572 31.5714 89.7524 33.6771C90.2408 35.7561 89.5274 37.7713 88.8073 39.8078C88.3295 41.1601 87.8477 42.523 87.8477 43.713C87.8477 44.9029 88.3295 46.2659 88.8073 47.6168C89.5274 49.6546 90.2408 51.6685 89.7524 53.7488C89.2572 55.8545 87.7013 57.3253 86.1559 58.7867C85.1564 59.7318 84.1621 60.6728 83.6962 61.6218C83.2197 62.5908 83.0933 63.9577 82.9668 65.322C82.7738 67.3998 82.5808 69.4735 81.2711 71.104C79.9627 72.7318 77.9755 73.3654 75.9883 73.999C75.8512 74.0429 75.7141 74.0868 75.5783 74.1307L88.81 97.3038C89.007 97.6152 89.0882 97.9999 89.0057 98.3885C88.838 99.1778 88.0606 99.681 87.27 99.5146L74.8689 96.8925L70.8226 108.854C70.7148 109.194 70.4845 109.496 70.1505 109.685C69.4477 110.083 68.5559 109.837 68.1579 109.137L54.0638 84.4528C53.7137 84.6657 53.3596 84.8933 53.0056 85.1209C51.1648 86.3069 49.3 87.5061 47.0533 87.5061C44.8052 87.5061 42.9418 86.3069 41.0996 85.1209C40.7456 84.8933 40.3915 84.6657 40.0428 84.4528L25.9473 109.137C25.5493 109.837 24.6576 110.083 23.9548 109.685C23.6207 109.496 23.3904 109.194 23.2826 108.854L19.2363 96.8925L6.83522 99.5146C6.0446 99.6823 5.26728 99.1778 5.10091 98.3885C5.01838 97.9999 5.09824 97.6152 5.29523 97.3038L18.5269 74.1321C18.3911 74.0881 18.254 74.0429 18.1156 74.0003C16.1297 73.3667 14.1425 72.7318 12.8341 71.104C11.5244 69.4735 11.3314 67.3998 11.1384 65.322C11.012 63.9577 10.8855 62.5908 10.4103 61.6218C9.94315 60.6728 8.94888 59.7318 7.94929 58.7867C6.40397 57.3253 4.84934 55.8545 4.3542 53.7488C3.86439 51.6685 4.57782 49.6546 5.2979 47.6168C5.77573 46.2659 6.25889 44.9029 6.25889 43.713C6.25889 42.523 5.77573 41.1601 5.2979 39.8091C4.57782 37.7713 3.86572 35.7561 4.3542 33.6771C4.84801 31.5714 6.40397 30.1006 7.94929 28.6392C8.94888 27.6928 9.94315 26.7531 10.4103 25.8028C10.8855 24.8351 11.012 23.4682 11.1397 22.1039C11.3327 20.0262 11.5244 17.9511 12.8341 16.3219C14.1438 14.6941 16.1311 14.0592 18.1169 13.4256C19.4107 13.013 20.7058 12.5991 21.5403 11.9309C22.3709 11.2654 23.0577 10.0941 23.7458 8.92147C24.8026 7.11794 25.8635 5.30908 27.7682 4.37604C29.6688 3.44566 31.7466 3.70387 33.8363 3.96475C35.2232 4.13645 36.6168 4.31082 37.7015 4.05659C38.765 3.80636 39.927 3.05966 41.0996 2.30497C42.9418 1.11904 44.8065 -0.080212 47.0533 -0.080212L47.0519 -0.081543Z" fill="#121B22"/>
<path fill-rule="evenodd" clip-rule="evenodd" d="M72.8671 75.2754C72.762 75.3459 72.6608 75.4178 72.5663 75.4937C71.7344 76.1605 71.0476 77.3305 70.3595 78.5044C69.3026 80.3066 68.2418 82.1168 66.3385 83.0485C64.4378 83.9789 62.3587 83.7207 60.269 83.4612C59.0338 83.3068 57.7933 83.1524 56.7698 83.3001L69.0857 104.871L72.5157 94.7322C72.754 94.0215 73.4874 93.6155 74.2048 93.7672V93.7659L84.6906 95.982L72.8671 75.2754Z" fill="#72B2F2"/>
<path fill-rule="evenodd" clip-rule="evenodd" d="M72.8669 75.2754C72.7618 75.3459 72.6606 75.4178 72.5661 75.4937C71.7342 76.1605 71.0474 77.3305 70.3593 78.5044C69.3024 80.3066 68.2416 82.1168 66.3383 83.0485C65.541 83.4385 64.7131 83.6195 63.8652 83.6794C69.4369 87.7417 75.8085 90.7724 82.6991 92.4948L72.8669 75.2754Z" fill="#7AB7F4"/>
<path fill-rule="evenodd" clip-rule="evenodd" d="M37.3354 83.3001C36.3119 83.1524 35.0714 83.3068 33.8362 83.4612C31.7465 83.7207 29.6674 83.9789 27.7667 83.0485C25.8634 82.1168 24.8026 80.3066 23.7444 78.5044C23.0563 77.3305 22.3695 76.1592 21.5389 75.4937C21.4444 75.4178 21.3433 75.3446 21.2381 75.2754L9.41333 95.982L19.9004 93.7659V93.7672C20.6178 93.6142 21.3512 94.0201 21.5895 94.7309L25.0182 104.869L37.3354 83.3001Z" fill="#72B2F2"/>
<path fill-rule="evenodd" clip-rule="evenodd" d="M51.4257 4.76188C49.9456 3.8102 48.4469 2.84521 47.052 2.84521C45.6571 2.84521 44.1597 3.8102 42.6796 4.76188C41.2926 5.65499 39.9204 6.53879 38.3657 6.90216C36.7672 7.27751 35.1207 7.07253 33.4809 6.86888C31.8118 6.66124 30.1533 6.45494 29.0486 6.99533C27.9399 7.53839 27.1 8.96923 26.2641 10.3961C25.4375 11.8056 24.6123 13.2112 23.3705 14.2068C22.1233 15.2064 20.5607 15.7055 18.9981 16.2033C17.4381 16.7011 15.8768 17.2002 15.1128 18.1506C14.3502 19.0996 14.1984 20.7314 14.0467 22.3659C13.895 23.9991 13.7432 25.6336 13.0311 27.0831C12.3257 28.5206 11.1477 29.6346 9.96446 30.754C8.73593 31.9147 7.49941 33.0846 7.20526 34.3398C6.90977 35.5923 7.48078 37.2055 8.05711 38.8373C8.62146 40.4292 9.18981 42.0371 9.18981 43.7128C9.18981 45.3886 8.62146 46.9964 8.05711 48.5883C7.48078 50.2202 6.90977 51.8334 7.20526 53.0858C7.49941 54.341 8.73593 55.511 9.96446 56.6716C11.1477 57.7923 12.3257 58.9051 13.0311 60.3412C13.7432 61.792 13.895 63.4265 14.0467 65.0597C14.1984 66.6942 14.3502 68.326 15.1128 69.275C15.8768 70.2254 17.4381 70.7245 18.9981 71.2223C19.7341 71.4566 20.4715 71.6921 21.1743 71.9796C21.2009 71.989 21.2262 72.0009 21.2528 72.0116C22.0128 72.3284 22.7329 72.7077 23.3705 73.2188C24.6136 74.2144 25.4375 75.62 26.2641 77.0295C27.1013 78.4564 27.9399 79.8872 29.0499 80.4303C30.1533 80.9707 31.8118 80.7644 33.4809 80.5567C35.1207 80.3531 36.7672 80.1481 38.3657 80.5235C39.9204 80.8868 41.2926 81.7706 42.6796 82.6637C44.1597 83.6154 45.6571 84.5804 47.052 84.5804C48.4469 84.5804 49.9456 83.6154 51.4257 82.6624C52.8113 81.7706 54.1849 80.8868 55.7395 80.5221C57.3381 80.1481 58.9845 80.3531 60.6244 80.5567C62.2935 80.7644 63.9519 80.9707 65.0553 80.4303C66.1654 79.8872 67.0039 78.4564 67.8411 77.0295C68.6677 75.62 69.4916 74.2144 70.7348 73.2188C71.3723 72.7077 72.0924 72.327 72.8524 72.0116C72.8777 71.9996 72.9043 71.989 72.9296 71.9796C73.6337 71.6921 74.3711 71.4566 75.1072 71.221C76.6671 70.7232 78.2284 70.2254 78.9924 69.2737C79.7551 68.326 79.9068 66.6942 80.0586 65.0583C80.209 63.4265 80.362 61.792 81.0728 60.3412C81.7782 58.9051 82.9562 57.791 84.1408 56.6716C85.3693 55.5096 86.6058 54.341 86.9 53.0858C87.1942 51.832 86.6245 50.2202 86.0468 48.5883C85.4838 46.9964 84.9155 45.3886 84.9155 43.7128C84.9155 42.0371 85.4838 40.4292 86.0468 38.836C86.6245 37.2055 87.1955 35.5923 86.9 34.3398C86.6058 33.0846 85.3693 31.9147 84.1408 30.754C82.9562 29.6333 81.7782 28.5192 81.0728 27.0831C80.3607 25.6336 80.209 23.9978 80.0586 22.3659C79.9055 20.7314 79.7538 19.0996 78.9924 18.1506C78.2284 17.1989 76.6671 16.7011 75.1072 16.2033C73.5446 15.7055 71.9819 15.2064 70.7348 14.2055C69.4916 13.2112 68.6677 11.8043 67.8411 10.3961C67.0053 8.96923 66.1654 7.53706 65.0553 6.994C63.9519 6.45361 62.2935 6.65991 60.6244 6.86755C58.9845 7.07253 57.3381 7.27751 55.7395 6.90216C54.1849 6.53879 52.8126 5.65499 51.4257 4.76188ZM47.052 16.7331C54.5137 16.7331 61.2686 19.7531 66.1587 24.6353C71.0476 29.5175 74.0716 36.2618 74.0716 43.7128C74.0716 51.1625 71.0476 57.9081 66.1587 62.7903C61.2686 67.6725 54.5137 70.6926 47.052 70.6926C39.5916 70.6926 32.8367 67.6725 27.9465 62.7903C23.0564 57.9081 20.0323 51.1625 20.0323 43.7128C20.0323 36.2618 23.0577 29.5175 27.9465 24.6353C32.8367 19.7518 39.5916 16.7331 47.052 16.7331Z" fill="#FFBD43"/>
<path fill-rule="evenodd" clip-rule="evenodd" d="M59.8643 80.4653C60.1172 80.4946 60.3701 80.5252 60.6243 80.5571C62.2934 80.7648 63.9518 80.9711 65.0553 80.4307C66.1653 79.8876 67.0039 78.4568 67.8411 77.0299C68.6676 75.6204 69.4915 74.2148 70.7347 73.2192C71.3723 72.7081 72.0924 72.3274 72.8524 72.012C72.8777 72 72.9043 71.9894 72.9296 71.98C73.6337 71.6925 74.3711 71.457 75.1071 71.2214C76.6671 70.7236 78.2284 70.2258 78.9924 69.2741C79.755 68.3264 79.9068 66.6946 80.0585 65.0587C80.2089 63.4269 80.362 61.7924 81.0727 60.3416C81.7782 58.9054 82.9561 57.7914 84.1407 56.672C85.3693 55.51 86.6058 54.3414 86.8999 53.0862C87.1941 51.8324 86.6244 50.2192 86.0468 48.5887C85.4837 46.9955 84.9154 45.389 84.9154 43.7132C84.9154 42.0361 85.4837 40.4296 86.0468 38.8363C86.6244 37.2059 87.1954 35.5927 86.8999 34.3402C86.6058 33.085 85.3693 31.9151 84.1407 30.7544C82.9561 29.6337 81.7782 28.5196 81.0727 27.0835C80.3606 25.634 80.2089 23.9982 80.0585 22.3663C79.9054 20.7305 79.7537 19.1 78.9924 18.151C78.2284 17.1993 76.6671 16.7015 75.1071 16.2037C73.5445 15.7046 71.9819 15.2068 70.7347 14.2059C69.4915 13.2103 68.6676 11.8047 67.8411 10.3951C67.0052 8.96963 66.1653 7.53745 65.0553 6.99439C63.9518 6.454 62.2934 6.66031 60.6243 6.86795C58.9845 7.07159 57.338 7.27657 55.7395 6.90255C54.8676 6.69891 54.0517 6.33022 53.2598 5.88965C50.6177 9.21187 48.359 12.8509 46.5435 16.7374C46.7138 16.7348 46.8829 16.7321 47.0532 16.7321C54.5136 16.7321 61.2685 19.7522 66.1587 24.6344C71.0488 29.5179 74.0729 36.2622 74.0729 43.7132C74.0729 51.1629 71.0475 57.9072 66.1587 62.7907C62.1403 66.8024 56.8628 69.5563 50.9704 70.4108C53.5127 74.1177 56.5035 77.4945 59.8643 80.464V80.4653Z" fill="#FFC95F"/>
<path fill-rule="evenodd" clip-rule="evenodd" d="M41.4218 67.1045L47.796 55.5526L47.7973 55.5539C48.0369 55.12 48.4908 54.8192 49.0219 54.7979C50.9678 54.7154 52.8698 54.1324 54.531 53.1049C56.1269 52.1186 57.5005 50.7157 58.4761 48.9481C59.5569 46.9902 59.9961 44.8539 59.863 42.7788C59.7792 41.4425 59.4584 40.1314 58.9207 38.9122L56.7578 42.8321C55.8447 44.4865 54.338 45.6166 52.6449 46.1064C50.9518 46.5962 49.0751 46.4444 47.422 45.5367L47.4193 45.5354C45.7622 44.6236 44.6295 43.1182 44.1397 41.4278C43.6499 39.7374 43.8003 37.8634 44.7107 36.2129L46.8763 32.2891C45.5519 32.4861 44.2701 32.9146 43.0948 33.5562C41.2727 34.5505 39.7007 36.0612 38.62 38.0204C37.6443 39.7894 37.1904 41.702 37.2064 43.5788C37.2251 45.522 37.7495 47.4387 38.7238 49.1331V49.1344C38.9674 49.5604 38.99 50.1008 38.7358 50.5626L32.106 62.5764C34.8026 64.71 37.9678 66.278 41.4218 67.1045Z" fill="#CCCCCC"/>
<path fill-rule="evenodd" clip-rule="evenodd" d="M45.3681 59.9543L47.7959 55.5526L47.7972 55.5539C48.0368 55.12 48.4907 54.8192 49.0218 54.7979C50.9677 54.7154 52.8697 54.1324 54.5309 53.1049C56.1267 52.1186 57.5004 50.7157 58.476 48.9481C59.5568 46.9902 59.996 44.8539 59.8629 42.7802C59.7791 41.4425 59.4583 40.1328 58.9206 38.9122L56.7576 42.8321C55.8446 44.4865 54.3379 45.6166 52.6448 46.1064C50.9517 46.5962 49.075 46.4444 47.4219 45.5367L47.4192 45.5354C45.7621 44.6236 44.6294 43.1182 44.1396 41.4278C43.6498 39.7388 43.8002 37.8647 44.7106 36.2129L46.8762 32.2891C45.5518 32.4861 44.27 32.9146 43.0947 33.5562C42.6182 33.8171 42.1577 34.1126 41.7185 34.4427C41.5534 36.173 41.4656 37.9259 41.4656 39.6988C41.4656 46.8584 42.8525 53.6932 45.3681 59.953V59.9543Z" fill="#E6E6E6"/>
<path fill-rule="evenodd" clip-rule="evenodd" d="M29.8723 60.573L35.7874 49.8503C34.8237 47.919 34.3073 45.7787 34.2873 43.6012C34.266 41.232 34.833 38.8282 36.0549 36.6133C37.4126 34.1549 39.3944 32.2516 41.6984 30.9951C44.073 29.6987 46.7843 29.0931 49.4969 29.2728C50.3035 29.3234 50.9157 30.0168 50.8652 30.8221C50.8519 31.0444 50.788 31.252 50.6881 31.4343C49.5754 33.4735 48.4427 35.5033 47.3193 37.5384C47.2967 37.5876 47.2701 37.6369 47.2408 37.6835C46.747 38.6179 46.6698 39.6694 46.9453 40.6157C47.2195 41.5634 47.8464 42.4099 48.7608 42.937C48.8061 42.9583 48.8513 42.9836 48.8939 43.0102C49.831 43.5027 50.8825 43.5799 51.8315 43.3057C52.8031 43.0249 53.6696 42.3753 54.1927 41.4263L57.6041 35.2437C57.9928 34.537 58.8819 34.2774 59.5913 34.6661C59.8229 34.7938 60.0066 34.9749 60.1357 35.1865C61.701 37.368 62.6141 39.9449 62.7831 42.5963C62.9495 45.2077 62.3971 47.8951 61.0408 50.3548C59.8176 52.5723 58.0846 54.3372 56.0655 55.5857C54.218 56.7277 52.1323 57.4331 49.9787 57.6528L44.4736 67.6287C45.3215 67.7192 46.1813 67.7658 47.0531 67.7658C53.7042 67.7658 59.7271 65.0732 64.0862 60.7207C68.4453 56.3683 71.1419 50.3548 71.1419 43.713C71.1419 37.0699 68.4453 31.0563 64.0862 26.7039C59.7271 22.3515 53.7042 19.6602 47.0531 19.6602C40.4007 19.6602 34.3778 22.3515 30.0188 26.7039C25.6597 31.0563 22.9644 37.0699 22.9644 43.713C22.9644 50.2802 25.5998 56.2326 29.8723 60.573Z" fill="#F0AC1A"/>
<path fill-rule="evenodd" clip-rule="evenodd" d="M42.2056 30.7316C44.455 29.6175 46.9746 29.1064 49.4969 29.2741C50.3035 29.3234 50.9158 30.0181 50.8652 30.8221C50.8519 31.0444 50.7893 31.252 50.6881 31.4343C49.5754 33.4735 48.4427 35.5046 47.3207 37.5384C47.2967 37.5876 47.2701 37.6369 47.2408 37.6835C46.7483 38.6192 46.6698 39.6694 46.9453 40.617C47.2195 41.5647 47.8464 42.4099 48.7608 42.937C48.8061 42.9583 48.8513 42.9836 48.8939 43.0102C49.831 43.5027 50.8825 43.5799 51.8315 43.3057C52.8045 43.0249 53.6696 42.3753 54.1927 41.4263L57.6041 35.2437C57.9928 34.537 58.8832 34.2787 59.5913 34.6661C59.8229 34.7938 60.0079 34.9749 60.1357 35.1865C61.701 37.368 62.6154 39.9449 62.7831 42.5963C62.9495 45.2077 62.3984 47.8951 61.0408 50.3548C59.8176 52.5723 58.0846 54.3372 56.0655 55.587C54.218 56.729 52.1323 57.4345 49.9787 57.6527L46.8522 63.3189C47.5722 64.8083 48.3602 66.2604 49.2081 67.6713C55.0006 67.1576 60.2036 64.598 64.0862 60.7207C68.4453 56.3683 71.1419 50.3548 71.1419 43.713C71.1419 37.0712 68.4453 31.0577 64.0862 26.7052C59.7271 22.3528 53.7042 19.6602 47.0531 19.6602C46.4475 19.6602 45.8472 19.6828 45.2536 19.7267C43.868 23.2313 42.8405 26.9155 42.2056 30.7329V30.7316Z" fill="#FFB822"/>
</g>
<defs>
<clipPath id="clip0_188_64">
<rect width="94" height="110" fill="white"/>
</clipPath>
</defs>
</svg>
