<svg width="131" height="127" viewBox="0 0 131 127" fill="none" xmlns="http://www.w3.org/2000/svg">
<g clip-path="url(#clip0_200_296)">
<path fill-rule="evenodd" clip-rule="evenodd" d="M79.2859 9.31104C81.9093 9.31104 84.0484 11.4091 84.0484 13.9808V99.9141C84.0484 102.486 81.9093 104.584 79.2859 104.584H5.96089C3.33901 104.584 1.19995 102.486 1.19995 99.9141V13.9808C1.19995 11.4091 3.33901 9.31104 5.96089 9.31104H79.2859Z" fill="#837683"/>
<path fill-rule="evenodd" clip-rule="evenodd" d="M73.1421 104.584H79.2858C81.9093 104.584 84.0483 102.486 84.0483 99.9141V13.9808C84.0483 11.4091 81.9093 9.31104 79.2858 9.31104H73.1421V104.584Z" fill="#685E68"/>
<path fill-rule="evenodd" clip-rule="evenodd" d="M75.2829 15.8076H9.96411C8.78599 15.8076 7.82349 16.7517 7.82349 17.9088V95.9876C7.82349 97.1432 8.78599 98.0872 9.96411 98.0872H75.2829C76.4625 98.0872 77.425 97.1432 77.425 95.9876V17.9088C77.425 16.7517 76.4625 15.8076 75.2829 15.8076Z" fill="#ECEFF1"/>
<path fill-rule="evenodd" clip-rule="evenodd" d="M73.1421 98.0872H75.2827C75.3499 98.0872 75.4171 98.0842 75.4827 98.078C76.5687 97.9784 77.4233 97.0773 77.4233 95.9876V17.9088C77.4233 16.8176 76.5687 15.9164 75.4827 15.8168C75.4171 15.8107 75.3499 15.8076 75.2827 15.8076H73.1421V98.0872Z" fill="#D1D1D6"/>
<path fill-rule="evenodd" clip-rule="evenodd" d="M26.4344 6.48803H33.2204C34.0938 6.48803 34.8407 6.0068 35.1875 5.21905C36.4266 2.39451 39.2891 0.41748 42.6235 0.41748C45.9579 0.41748 48.8204 2.39451 50.061 5.21905C50.4063 6.0068 51.1532 6.48803 52.0266 6.48803H58.8141C59.9938 6.48803 60.9547 7.4321 60.9547 8.5892V16.531C60.9547 17.6881 59.9938 18.6307 58.8141 18.6307H26.4344C25.2547 18.6307 24.2922 17.6881 24.2922 16.531V8.5892C24.2922 7.4321 25.2547 6.48803 26.4344 6.48803Z" fill="#E3A76F"/>
<path fill-rule="evenodd" clip-rule="evenodd" d="M56.6735 16.5308H24.2922C24.2922 17.6879 25.2547 18.6304 26.4344 18.6304H58.8141C59.9938 18.6304 60.9563 17.6879 60.9563 16.5308V8.58896C60.9563 7.43186 59.9938 6.48779 58.8141 6.48779V14.4312C58.8141 14.9568 58.6157 15.4396 58.2875 15.8074C57.8938 16.2503 57.3157 16.5308 56.6735 16.5308Z" fill="#C48958"/>
<path fill-rule="evenodd" clip-rule="evenodd" d="M42.6234 9.3399C43.9796 9.3399 45.0859 8.25483 45.0859 6.92609C45.0859 5.59581 43.9796 4.51074 42.6234 4.51074C41.2671 4.51074 40.1609 5.59428 40.1609 6.92609C40.1609 8.25637 41.2671 9.3399 42.6234 9.3399Z" fill="#ECEFF1"/>
<path fill-rule="evenodd" clip-rule="evenodd" d="M41.6532 79.5553C40.25 79.5553 39.1125 78.4396 39.1125 77.0633C39.1125 75.687 40.25 74.5713 41.6532 74.5713H68.2672C69.6704 74.5713 70.8079 75.687 70.8079 77.0633C70.8079 78.4396 69.6704 79.5553 68.2672 79.5553H41.6532ZM41.6532 31.9733C40.25 31.9733 39.1125 30.8576 39.1125 29.4798C39.1125 28.1035 40.25 26.9878 41.6532 26.9878H68.2672C69.6704 26.9878 70.8079 28.1035 70.8079 29.4798C70.8079 30.8576 69.6704 31.9733 68.2672 31.9733H41.6532ZM41.6532 40.4331C40.25 40.4331 39.1125 39.3174 39.1125 37.9411C39.1125 36.5649 40.25 35.4492 41.6532 35.4492H68.2672C69.6704 35.4492 70.8079 36.5649 70.8079 37.9411C70.8079 39.3174 69.6704 40.4331 68.2672 40.4331H41.6532ZM41.6532 55.7635C40.25 55.7635 39.1125 54.6478 39.1125 53.2715C39.1125 51.8953 40.25 50.7796 41.6532 50.7796H68.2672C69.6704 50.7796 70.8079 51.8953 70.8079 53.2715C70.8079 54.6478 69.6704 55.7635 68.2672 55.7635H41.6532ZM41.6532 64.2249C40.25 64.2249 39.1125 63.1092 39.1125 61.7329C39.1125 60.3551 40.25 59.2394 41.6532 59.2394H68.2672C69.6704 59.2394 70.8079 60.3551 70.8079 61.7329C70.8079 63.1092 69.6704 64.2249 68.2672 64.2249H41.6532ZM41.6532 88.0151C40.25 88.0151 39.1125 86.8994 39.1125 85.5231C39.1125 84.1469 40.25 83.0312 41.6532 83.0312H68.2672C69.6704 83.0312 70.8079 84.1469 70.8079 85.5231C70.8079 86.8994 69.6704 88.0151 68.2672 88.0151H41.6532Z" fill="#A79BA7"/>
<path fill-rule="evenodd" clip-rule="evenodd" d="M18.5453 26.2949H30.5343C31.3953 26.2949 32.1 26.9861 32.1 27.8306V39.5901C32.1 40.4345 31.3953 41.1257 30.5343 41.1257H18.5453C17.6843 41.1257 16.9812 40.4345 16.9812 39.5901V27.8306C16.9812 26.9861 17.6843 26.2949 18.5453 26.2949Z" fill="#8AC9FE"/>
<path fill-rule="evenodd" clip-rule="evenodd" d="M28.9468 26.2949H30.5343C31.3952 26.2949 32.0999 26.9861 32.0999 27.8306V39.5901C32.0999 40.4345 31.3952 41.1257 30.5343 41.1257H28.9468C29.8077 41.1257 30.5124 40.4345 30.5124 39.5901V27.8306C30.5124 26.9861 29.8077 26.2949 28.9468 26.2949Z" fill="#60B7FF"/>
<path fill-rule="evenodd" clip-rule="evenodd" d="M19.5547 35.1687C18.5625 34.1955 18.5625 32.6185 19.5547 31.6453C20.5469 30.6721 22.1547 30.6721 23.1469 31.6453L23.7797 32.2645L25.7547 29.8706C26.6375 28.7993 28.2359 28.6338 29.3281 29.4997C30.4188 30.3656 30.5875 31.935 29.7047 33.0047L25.9656 37.5381C25.9078 37.6101 25.8438 37.6791 25.775 37.7465C24.7828 38.7197 23.175 38.7197 22.1828 37.7465L19.5547 35.1687Z" fill="#ECEFF1"/>
<path fill-rule="evenodd" clip-rule="evenodd" d="M18.5453 50.0869H30.5343C31.3953 50.0869 32.1 50.7781 32.1 51.6226V63.382C32.1 64.2265 31.3953 64.9162 30.5343 64.9162H18.5453C17.6843 64.9162 16.9812 64.2265 16.9812 63.382V51.6226C16.9812 50.7781 17.6843 50.0869 18.5453 50.0869Z" fill="#FFE177"/>
<path fill-rule="evenodd" clip-rule="evenodd" d="M19.5547 58.9603C18.5625 57.9872 18.5625 56.4086 19.5547 55.4354C20.5469 54.4622 22.1547 54.4622 23.1469 55.4354L23.7797 56.0561L25.7547 53.6607C26.6375 52.5909 28.2359 52.4254 29.3281 53.2913C30.4188 54.1572 30.5875 55.7251 29.7047 56.7948L25.9656 61.3282C25.9078 61.4002 25.8438 61.4707 25.775 61.5381C24.7828 62.5098 23.175 62.5098 22.1828 61.5381L19.5547 58.9603Z" fill="#ECEFF1"/>
<path fill-rule="evenodd" clip-rule="evenodd" d="M28.9468 50.0869H30.5343C31.3952 50.0869 32.0999 50.7781 32.0999 51.6226V63.382C32.0999 64.2265 31.3952 64.9162 30.5343 64.9162H28.9468C29.8077 64.9162 30.5124 64.2265 30.5124 63.382V51.6226C30.5124 50.7781 29.8077 50.0869 28.9468 50.0869Z" fill="#FFD064"/>
<path fill-rule="evenodd" clip-rule="evenodd" d="M18.5453 73.8784H30.5343C31.3953 73.8784 32.1 74.5681 32.1 75.4125V87.1735C32.1 88.0165 31.3953 88.7077 30.5343 88.7077H18.5453C17.6843 88.7077 16.9812 88.0165 16.9812 87.1735V75.4125C16.9812 74.5681 17.6843 73.8784 18.5453 73.8784Z" fill="#6CF5C2"/>
<path fill-rule="evenodd" clip-rule="evenodd" d="M27.3594 73.8784H30.5344C31.3953 73.8784 32.1 74.5681 32.1 75.4125V87.1735C32.1 88.0165 31.3953 88.7077 30.5344 88.7077H27.3594C28.2203 88.7077 28.9234 88.0165 28.9234 87.1735V75.4125C28.9234 74.5681 28.2203 73.8784 27.3594 73.8784Z" fill="#00E499"/>
<path fill-rule="evenodd" clip-rule="evenodd" d="M19.5547 82.7508C18.5625 81.7776 18.5625 80.2005 19.5547 79.2274C20.5469 78.2542 22.1547 78.2542 23.1469 79.2274L23.7797 79.8465L25.7547 77.4526C26.6375 76.3829 28.2359 76.2158 29.3281 77.0817C30.4188 77.9476 30.5875 79.517 29.7047 80.5868L25.9656 85.1201C25.9078 85.1922 25.8438 85.2611 25.775 85.3286C24.7828 86.3017 23.175 86.3017 22.1828 85.3286L19.5547 82.7508Z" fill="#ECEFF1"/>
<path fill-rule="evenodd" clip-rule="evenodd" d="M101.248 94.5283C99.9562 96.3368 98.4344 97.9782 96.7266 99.4111L109.023 111.233L113.705 106.502L101.248 94.5283Z" fill="#A79BA7"/>
<path fill-rule="evenodd" clip-rule="evenodd" d="M101.333 94.4473C101.091 95.2258 100.639 95.8159 99.9937 96.2082L112.208 108.11L113.705 106.503L101.333 94.4473Z" fill="#837683"/>
<path fill-rule="evenodd" clip-rule="evenodd" d="M124.594 126.579L129.877 121.24C130.805 120.302 130.781 118.789 129.825 117.879L115.192 103.952C114.236 103.042 112.694 103.065 111.767 104.003L106.484 109.342C105.556 110.28 105.58 111.793 106.536 112.703L121.169 126.63C122.125 127.54 123.666 127.517 124.594 126.579Z" fill="#F1BA84"/>
<path fill-rule="evenodd" clip-rule="evenodd" d="M113.028 103.952L127.661 117.879C128.616 118.789 128.641 120.302 127.712 121.24L122.43 126.579C122.233 126.777 122.011 126.933 121.773 127.05C122.692 127.497 123.844 127.338 124.594 126.579L129.876 121.24C130.805 120.302 130.781 118.789 129.825 117.879L115.192 103.952C114.437 103.233 113.317 103.097 112.423 103.532C112.641 103.638 112.845 103.777 113.028 103.952Z" fill="#E3A76F"/>
<path d="M100.122 62.89C100.43 63.1935 100.73 63.5031 101.023 63.8203C101.316 64.136 101.6 64.4609 101.878 64.7904C102.155 65.1215 102.422 65.4586 102.681 65.8019C102.942 66.1452 103.192 66.4947 103.434 66.8518C103.678 67.2073 103.911 67.5675 104.134 67.9353C104.359 68.3016 104.573 68.674 104.78 69.051C104.984 69.428 105.181 69.8096 105.367 70.1974C105.555 70.5836 105.731 70.9744 105.897 71.3698C106.064 71.7652 106.222 72.1637 106.369 72.5667C106.516 72.9683 106.651 73.3744 106.778 73.7836C106.905 74.1943 107.022 74.6051 107.126 75.0204C107.233 75.4357 107.328 75.8526 107.414 76.2725C107.498 76.6924 107.573 77.1124 107.637 77.5369C107.701 77.9599 107.755 78.3829 107.797 78.8089C107.841 79.235 107.872 79.6611 107.894 80.0886C107.916 80.5162 107.926 80.9438 107.926 81.3714C107.926 81.799 107.916 82.2266 107.894 82.6542C107.872 83.0802 107.841 83.5078 107.798 83.9324C107.755 84.3584 107.701 84.7829 107.637 85.2059C107.573 85.6289 107.498 86.0504 107.414 86.4703C107.33 86.8887 107.233 87.3071 107.128 87.7209C107.022 88.1362 106.905 88.5485 106.778 88.9577C106.651 89.3669 106.516 89.773 106.369 90.1761C106.222 90.5792 106.064 90.9776 105.898 91.373C105.731 91.7684 105.555 92.1592 105.367 92.5455C105.181 92.9317 104.986 93.3148 104.78 93.6918C104.575 94.0688 104.359 94.4413 104.136 94.8075C103.911 95.1738 103.678 95.5355 103.436 95.8911C103.194 96.2466 102.942 96.5961 102.683 96.9394C102.423 97.2842 102.155 97.6214 101.878 97.9509C101.601 98.2819 101.317 98.6053 101.023 98.9225C100.731 99.2398 100.43 99.5493 100.122 99.8513C99.814 100.155 99.4983 100.449 99.1749 100.736C98.8515 101.024 98.5218 101.303 98.1843 101.574C97.8468 101.845 97.503 102.109 97.153 102.363C96.803 102.618 96.4468 102.864 96.0843 103.102C95.7218 103.339 95.353 103.568 94.9796 103.788C94.6046 104.008 94.2265 104.219 93.8405 104.421C93.4562 104.622 93.0671 104.815 92.6733 104.998C92.2796 105.18 91.8796 105.353 91.478 105.517C91.0749 105.681 90.6671 105.834 90.2577 105.979C89.8468 106.123 89.4327 106.257 89.0155 106.382C88.5983 106.506 88.178 106.619 87.7546 106.723C87.3327 106.828 86.9062 106.921 86.4796 107.005C86.0515 107.088 85.6218 107.162 85.1905 107.225C84.7593 107.287 84.3265 107.339 83.8921 107.381C83.4577 107.424 83.0233 107.454 82.5874 107.476C82.153 107.496 81.7171 107.506 81.2812 107.506C80.8452 107.506 80.4093 107.496 79.9733 107.476C79.5374 107.454 79.103 107.424 78.6687 107.381C78.2343 107.339 77.8015 107.287 77.3702 107.225C76.939 107.162 76.5093 107.088 76.0827 107.005C75.6546 106.921 75.2296 106.828 74.8062 106.723C74.3827 106.621 73.9624 106.506 73.5452 106.382C73.128 106.257 72.714 106.124 72.3046 105.98C71.8937 105.836 71.4858 105.681 71.0843 105.517C70.6812 105.355 70.2827 105.18 69.8874 104.998C69.4937 104.815 69.1046 104.622 68.7202 104.421C68.3358 104.219 67.9562 104.009 67.5812 103.788C67.2077 103.569 66.839 103.341 66.4765 103.102C66.114 102.864 65.7577 102.619 65.4077 102.365C65.0577 102.109 64.714 101.847 64.3765 101.575C64.039 101.304 63.7093 101.024 63.3858 100.737C63.0624 100.449 62.7468 100.155 62.439 99.8528C62.1312 99.5493 61.8296 99.2398 61.5374 98.924C61.2437 98.6068 60.9593 98.2834 60.6827 97.9524C60.4062 97.6214 60.1374 97.2842 59.878 96.9409C59.6187 96.5976 59.3671 96.2482 59.1249 95.8926C58.8827 95.537 58.6499 95.1754 58.4249 94.8075C58.2015 94.4413 57.9858 94.0688 57.7812 93.6918C57.5749 93.3148 57.3796 92.9332 57.1921 92.547C57.0062 92.1592 56.8296 91.7684 56.6624 91.373C56.4952 90.9776 56.339 90.5792 56.1921 90.1761C56.0452 89.7745 55.9077 89.3684 55.7812 88.9592C55.6546 88.55 55.539 88.1378 55.4327 87.7224C55.3265 87.3071 55.2312 86.8902 55.1468 86.4703C55.0608 86.0519 54.9874 85.6305 54.9233 85.2075C54.8593 84.7845 54.8062 84.3599 54.7624 83.9339C54.7202 83.5078 54.6874 83.0818 54.6671 82.6542C54.6452 82.2266 54.6343 81.799 54.6343 81.3714C54.6343 80.9438 54.6452 80.5162 54.6671 80.0902C54.6874 79.6626 54.7202 79.2365 54.7624 78.8105C54.8062 78.3844 54.8593 77.9599 54.9233 77.5369C54.9874 77.1139 55.0608 76.6924 55.1468 76.2725C55.2312 75.8541 55.3265 75.4357 55.4327 75.0219C55.539 74.6066 55.6546 74.1943 55.7812 73.7851C55.9077 73.3759 56.0452 72.9698 56.1921 72.5667C56.339 72.1637 56.4952 71.7652 56.6624 71.3698C56.8296 70.9744 57.0062 70.5836 57.1921 70.1974C57.3796 69.8112 57.5749 69.4296 57.7812 69.051C57.9858 68.674 58.2015 68.3031 58.4249 67.9353C58.6499 67.569 58.8827 67.2073 59.1249 66.8518C59.3671 66.4962 59.6187 66.1468 59.878 65.8035C60.1374 65.4586 60.4062 65.123 60.6827 64.792C60.9593 64.4609 61.2437 64.1376 61.5358 63.8203C61.8296 63.5031 62.1296 63.1935 62.439 62.8916C62.7468 62.5881 63.0624 62.2939 63.3858 62.0073C63.7093 61.7191 64.039 61.4402 64.3765 61.1689C64.7124 60.8977 65.0562 60.6341 65.4062 60.3797C65.7577 60.1253 66.114 59.8785 66.4765 59.641C66.839 59.4034 67.2077 59.1751 67.5812 58.9544C67.9546 58.7352 68.3343 58.5237 68.7187 58.3229C69.103 58.1206 69.4937 57.9291 69.8874 57.7452C70.2812 57.5628 70.6796 57.3896 71.0827 57.2256C71.4858 57.0616 71.8921 56.9084 72.303 56.7643C72.714 56.6202 73.128 56.4854 73.5452 56.3612C73.9624 56.2371 74.3827 56.1237 74.8046 56.0195C75.228 55.9153 75.653 55.8218 76.0812 55.739C76.5093 55.6547 76.939 55.5812 77.3702 55.5183C77.8015 55.4555 78.2343 55.4034 78.6687 55.362C79.1015 55.3206 79.5374 55.2884 79.9718 55.267C80.4077 55.2471 80.8437 55.2363 81.2796 55.2363C81.7155 55.2363 82.1515 55.2471 82.5874 55.267C83.0233 55.2884 83.4577 55.3206 83.8921 55.362C84.3249 55.4034 84.7577 55.4555 85.189 55.5183C85.6202 55.5812 86.0499 55.6547 86.478 55.7375C86.9062 55.8218 87.3312 55.9153 87.7546 56.0195C88.1765 56.1237 88.5968 56.2371 89.014 56.3612C89.4312 56.4854 89.8452 56.6202 90.2562 56.7643C90.6671 56.9084 91.0733 57.0616 91.4765 57.2256C91.8796 57.3896 92.278 57.5628 92.6718 57.7452C93.0671 57.9275 93.4562 58.1206 93.8405 58.3214C94.2249 58.5237 94.6046 58.7337 94.978 58.9544C95.353 59.1735 95.7202 59.4034 96.0827 59.641C96.4452 59.8785 96.803 60.1237 97.153 60.3797C97.503 60.6341 97.8468 60.8961 98.1843 61.1674C98.5202 61.4402 98.8515 61.7191 99.1733 62.0057C99.4968 62.2939 99.8124 62.5881 100.122 62.89Z" fill="#8AC9FE"/>
<path fill-rule="evenodd" clip-rule="evenodd" d="M81.2813 55.2363C95.9969 55.2363 107.927 66.9376 107.927 81.3714C107.927 95.8053 95.9969 107.506 81.2813 107.506C80.8485 107.506 80.4172 107.496 79.9875 107.476C94.1032 106.814 105.341 95.3807 105.341 81.3714C105.341 67.3621 94.1032 55.9291 79.9875 55.267C80.4172 55.2471 80.8469 55.2363 81.2813 55.2363Z" fill="#60B7FF"/>
<path d="M83.3359 63.0049C83.9484 63.0708 84.5577 63.1658 85.1609 63.2899C85.7655 63.4156 86.3624 63.5689 86.9499 63.7512C87.539 63.9336 88.1171 64.1436 88.6843 64.3811C89.2515 64.6187 89.8062 64.8838 90.3468 65.175C90.8874 65.4662 91.4124 65.7819 91.9218 66.1237C92.4312 66.4654 92.9218 66.8317 93.3952 67.221C93.8671 67.6103 94.3202 68.021 94.7515 68.4532C95.1827 68.8869 95.5905 69.339 95.978 69.8111C96.364 70.2831 96.7249 70.772 97.0624 71.2793C97.3999 71.7866 97.7108 72.3092 97.9952 72.8456C98.2796 73.382 98.5374 73.9322 98.7671 74.4931C98.9968 75.0555 99.1983 75.6272 99.3702 76.208C99.5437 76.7889 99.6858 77.3774 99.7999 77.972C99.914 78.5667 99.9968 79.1659 100.05 79.7682C100.105 80.3721 100.128 80.9759 100.12 81.5813C100.114 82.1866 100.076 82.7905 100.009 83.3912C99.9421 83.9935 99.8452 84.5897 99.7171 85.1828C99.5905 85.7744 99.4343 86.3599 99.2483 86.9376C99.0624 87.5139 98.8484 88.0809 98.6062 88.6373C98.364 89.1936 98.0937 89.7377 97.7968 90.2679C97.4999 90.7997 97.1765 91.3147 96.828 91.8143C96.4796 92.3124 96.1077 92.7952 95.7108 93.258C95.314 93.7224 94.8952 94.1653 94.453 94.5883C94.0124 95.0113 93.5515 95.4128 93.0702 95.7913C92.589 96.1699 92.089 96.5255 91.5718 96.855C91.0562 97.186 90.5233 97.491 89.9765 97.7699C89.428 98.0504 88.8687 98.3017 88.2952 98.527C87.7233 98.7523 87.1405 98.95 86.5484 99.1201C85.9562 99.2887 85.3562 99.4297 84.7499 99.54C84.1421 99.6519 83.5327 99.7331 82.9171 99.7868C82.303 99.8389 81.6874 99.8619 81.0702 99.8558C80.453 99.8481 79.8374 99.8128 79.2234 99.7454C78.6109 99.6795 78.0015 99.5845 77.3984 99.4603C76.7937 99.3347 76.1984 99.1814 75.6093 98.999C75.0218 98.8182 74.4437 98.6082 73.8749 98.3691C73.3077 98.1316 72.7546 97.868 72.2124 97.5753C71.6718 97.2841 71.1468 96.9684 70.6374 96.6266C70.128 96.2848 69.6374 95.9186 69.1655 95.5293C68.6921 95.14 68.2405 94.7293 67.8093 94.2971C67.378 93.8634 66.9687 93.4113 66.5827 92.9392C66.1968 92.4672 65.8343 91.9783 65.4968 91.471C65.1609 90.9637 64.8499 90.4411 64.564 89.9047C64.2796 89.3683 64.0218 88.8181 63.7921 88.2572C63.5624 87.6947 63.3624 87.1231 63.189 86.5422C63.0171 85.9614 62.8734 85.3729 62.7593 84.7782C62.6468 84.1836 62.5624 83.5844 62.5093 82.982C62.4562 82.3782 62.4327 81.7744 62.439 81.169C62.4452 80.5636 62.4827 79.9598 62.5499 79.359C62.6171 78.7567 62.7155 78.1606 62.8421 77.5674C62.9687 76.9759 63.1249 76.3904 63.3109 75.8142C63.4968 75.2364 63.7109 74.6693 63.953 74.113C64.1968 73.5567 64.4655 73.0126 64.7624 72.4823C65.0593 71.9521 65.3827 71.4371 65.7312 70.9375C66.0796 70.4379 66.4515 69.9551 66.8484 69.4923C67.2452 69.0294 67.6655 68.585 68.1062 68.162C68.5468 67.739 69.0077 67.3375 69.4905 66.9589C69.9718 66.5804 70.4702 66.2264 70.9874 65.8953C71.5046 65.5643 72.0358 65.2593 72.5843 64.9804C73.1312 64.7014 73.6905 64.4486 74.264 64.2233C74.8358 63.998 75.4187 63.8003 76.0124 63.6317C76.6046 63.4616 77.203 63.3221 77.8109 63.2102C78.4171 63.0984 79.028 63.0171 79.6421 62.9635C80.2577 62.9114 80.8734 62.8884 81.4905 62.8945C82.1077 62.9022 82.7218 62.939 83.3359 63.0049Z" fill="#ECEFF1"/>
<path fill-rule="evenodd" clip-rule="evenodd" d="M81.2812 62.8896C81.7093 62.8896 82.1343 62.905 82.5546 62.9326C72.7437 63.5762 64.9874 71.584 64.9874 81.371C64.9874 91.1581 72.7437 99.1673 82.5546 99.8095C82.1343 99.8371 81.7093 99.8524 81.2812 99.8524C70.8749 99.8524 62.439 91.578 62.439 81.371C62.439 71.164 70.8749 62.8896 81.2812 62.8896Z" fill="#D1D1D6"/>
<path fill-rule="evenodd" clip-rule="evenodd" d="M70.4703 83.4094C69.6281 82.5833 69.6281 81.2439 70.4703 80.4193C71.3109 79.5933 72.6765 79.5933 73.5187 80.4193L77.4859 84.3105L89.1203 73.9534C89.9984 73.1702 91.3593 73.2315 92.1593 74.0944C92.9593 74.9572 92.8953 76.2921 92.0171 77.0768L78.9468 88.7106L78.9359 88.7228C78.0937 89.5474 76.7281 89.5474 75.8859 88.7228L70.4703 83.4094Z" fill="#8AC9FE"/>
</g>
<defs>
<clipPath id="clip0_200_296">
<rect width="131" height="127" fill="white"/>
</clipPath>
</defs>
</svg>
