<svg width="113" height="113" viewBox="0 0 113 113" fill="none" xmlns="http://www.w3.org/2000/svg">
<g clip-path="url(#clip0_200_374)">
<path fill-rule="evenodd" clip-rule="evenodd" d="M56.3595 7.44873C69.9036 7.44873 82.1661 12.9406 91.0426 21.8185C99.9191 30.6977 105.41 42.9629 105.41 56.5111C105.41 70.0578 99.9191 82.3245 91.0439 91.2023C82.1661 100.082 69.9036 105.572 56.3595 105.572C42.8141 105.572 30.5516 100.082 21.6751 91.2023C12.7986 82.3245 7.30811 70.0578 7.30811 56.5111C7.30811 42.9629 12.7986 30.6977 21.6751 21.8185C30.5516 12.9406 42.8141 7.44873 56.3595 7.44873ZM88.3826 24.4811C80.1871 16.2829 68.865 11.2128 56.3595 11.2128C43.8527 11.2128 32.5305 16.2829 24.3364 24.4811C16.1409 32.678 11.0722 44.0015 11.0722 56.5111C11.0722 69.0192 16.1409 80.3442 24.3364 88.541C32.5305 96.7379 43.8527 101.808 56.3595 101.808C68.865 101.808 80.1871 96.7379 88.3826 88.541C96.5768 80.3442 101.647 69.0192 101.647 56.5111C101.647 44.0015 96.5781 32.678 88.3826 24.4811Z" fill="#9FACBA"/>
<path fill-rule="evenodd" clip-rule="evenodd" d="M31.3063 3.68848C32.3613 3.68848 33.2225 4.54965 33.2225 5.60462V40.8459C33.2225 41.9022 32.3613 42.762 31.3063 42.762H1.81761C0.762641 42.762 -0.097168 41.9009 -0.097168 40.8459V5.60462C-0.097168 4.54965 0.762641 3.68848 1.81761 3.68848H31.3063Z" fill="#ECEFF1"/>
<path fill-rule="evenodd" clip-rule="evenodd" d="M31.3063 3.68848C32.3613 3.68848 33.2225 4.54965 33.2225 5.60462V40.8459C33.2225 41.9022 32.3613 42.762 31.3063 42.762H28.9548C30.0098 42.762 30.8696 41.9009 30.8696 40.8459V5.60462C30.8696 4.54965 30.0098 3.68848 28.9548 3.68848H31.3063Z" fill="#D1D1D6"/>
<mask id="mask0_200_374" style="mask-type:luminance" maskUnits="userSpaceOnUse" x="8" y="0" width="17" height="8">
<path d="M8.98389 0.0419922H24.0073V7.58648H8.98389V0.0419922Z" fill="white"/>
</mask>
<g mask="url(#mask0_200_374)">
<path fill-rule="evenodd" clip-rule="evenodd" d="M10.3652 2.53134H12.5788C13.0388 2.53134 13.4332 2.28568 13.6352 1.87079C14.1633 0.788525 15.2756 0.0419922 16.5612 0.0419922C17.8482 0.0419922 18.9605 0.788525 19.4887 1.87079C19.6907 2.28568 20.0851 2.53134 20.545 2.53134H22.7573C23.4056 2.53134 23.9338 3.05951 23.9338 3.70778V6.33498C23.9338 6.98324 23.4056 7.51141 22.7573 7.51141H10.3652C9.71825 7.51141 9.18872 6.98324 9.18872 6.33498V3.70778C9.19009 3.05951 9.71825 2.53134 10.3652 2.53134Z" fill="#E3A76F"/>
</g>
<mask id="mask1_200_374" style="mask-type:luminance" maskUnits="userSpaceOnUse" x="15" y="0" width="10" height="8">
<path d="M15.6223 0.0419922H24.0075V7.58648H15.6223V0.0419922Z" fill="white"/>
</mask>
<g mask="url(#mask1_200_374)">
<path fill-rule="evenodd" clip-rule="evenodd" d="M15.771 0.138891C16.0248 0.0747467 16.2896 0.0419922 16.5612 0.0419922C17.8482 0.0419922 18.9605 0.788525 19.4886 1.87079C19.6906 2.28568 20.0851 2.53134 20.545 2.53134H18.9646C18.5033 2.53134 18.1102 2.28568 17.9082 1.87079C17.4906 1.01781 16.7127 0.373633 15.771 0.138891ZM21.1769 2.53134H22.7587C23.4056 2.53134 23.9337 3.05951 23.9337 3.70778V6.33498C23.9337 6.98324 23.4056 7.51141 22.7587 7.51141H21.1769C21.8251 7.51141 22.3533 6.98324 22.3533 6.33498V3.70778C22.3533 3.05951 21.8251 2.53134 21.1769 2.53134Z" fill="#C48958"/>
</g>
<path fill-rule="evenodd" clip-rule="evenodd" d="M6.8371 35.4608C5.79714 35.4608 4.95508 34.6187 4.95508 33.5788C4.95508 32.5402 5.79714 31.6967 6.8371 31.6967H26.2865C27.3265 31.6967 28.1686 32.5402 28.1686 33.5788C28.1686 34.6187 27.3265 35.4608 26.2865 35.4608H6.8371ZM6.8371 16.807C5.79714 16.807 4.95508 15.965 4.95508 14.925C4.95508 13.885 5.79714 13.043 6.8371 13.043H26.2865C27.3265 13.043 28.1686 13.885 28.1686 14.925C28.1686 15.965 27.3265 16.807 26.2865 16.807H6.8371ZM6.8371 23.0249C5.79714 23.0249 4.95508 22.1829 4.95508 21.1429C4.95508 20.103 5.79714 19.2609 6.8371 19.2609H26.2865C27.3265 19.2609 28.1686 20.103 28.1686 21.1429C28.1686 22.1829 27.3265 23.0249 26.2865 23.0249H6.8371ZM6.8371 29.2429C5.79714 29.2429 4.95508 28.4008 4.95508 27.3608C4.95508 26.3222 5.79714 25.4788 6.8371 25.4788H26.2865C27.3265 25.4788 28.1686 26.3222 28.1686 27.3608C28.1686 28.4008 27.3265 29.2429 26.2865 29.2429H6.8371Z" fill="#A79BA7"/>
<path fill-rule="evenodd" clip-rule="evenodd" d="M110.901 3.68848C111.955 3.68848 112.816 4.54965 112.816 5.60462V40.8459C112.816 41.9022 111.955 42.762 110.901 42.762H81.4114C80.3564 42.762 79.4966 41.9009 79.4966 40.8459V5.60462C79.4966 4.54965 80.3564 3.68848 81.4114 3.68848H110.901Z" fill="#ECEFF1"/>
<path fill-rule="evenodd" clip-rule="evenodd" d="M110.901 3.68848C111.955 3.68848 112.816 4.54965 112.816 5.60462V40.8459C112.816 41.9022 111.955 42.762 110.901 42.762H108.548C109.603 42.762 110.463 41.9009 110.463 40.8459V5.60462C110.463 4.54965 109.603 3.68848 108.548 3.68848H110.901Z" fill="#D1D1D6"/>
<mask id="mask2_200_374" style="mask-type:luminance" maskUnits="userSpaceOnUse" x="88" y="0" width="16" height="8">
<path d="M88.6433 0.0419922H103.667V7.58648H88.6433V0.0419922Z" fill="white"/>
</mask>
<g mask="url(#mask2_200_374)">
<path fill-rule="evenodd" clip-rule="evenodd" d="M89.959 2.53134H92.1727C92.6326 2.53134 93.027 2.28568 93.229 1.87079C93.7572 0.788525 94.8695 0.0419922 96.1565 0.0419922C97.4421 0.0419922 98.5544 0.788525 99.0825 1.87079C99.2845 2.28568 99.6789 2.53134 100.14 2.53134H102.353C102.999 2.53134 103.529 3.05951 103.529 3.70778V6.33498C103.529 6.98324 102.999 7.51141 102.353 7.51141H89.959C89.3121 7.51141 88.7839 6.98324 88.7839 6.33498V3.70778C88.7839 3.05951 89.3121 2.53134 89.959 2.53134Z" fill="#E3A76F"/>
</g>
<mask id="mask3_200_374" style="mask-type:luminance" maskUnits="userSpaceOnUse" x="95" y="0" width="9" height="8">
<path d="M95.2815 0.0419922H103.667V7.58648H95.2815V0.0419922Z" fill="white"/>
</mask>
<g mask="url(#mask3_200_374)">
<path fill-rule="evenodd" clip-rule="evenodd" d="M95.3647 0.138891C95.6186 0.0747467 95.8834 0.0419922 96.1563 0.0419922C97.4419 0.0419922 98.5542 0.788525 99.0824 1.87079C99.2844 2.28568 99.6788 2.53134 100.139 2.53134H98.5583C98.0984 2.53134 97.704 2.28568 97.502 1.87079C97.0857 1.01781 96.3064 0.373633 95.3647 0.138891ZM100.771 2.53134H102.352C103.001 2.53134 103.529 3.05951 103.529 3.70778V6.33498C103.529 6.98324 103.001 7.51141 102.352 7.51141H100.771C101.419 7.51141 101.947 6.98324 101.947 6.33498V3.70778C101.947 3.05951 101.419 2.53134 100.771 2.53134Z" fill="#C48958"/>
</g>
<path fill-rule="evenodd" clip-rule="evenodd" d="M86.4309 35.4608C85.3909 35.4608 84.5488 34.6187 84.5488 33.5788C84.5488 32.5402 85.3909 31.6967 86.4309 31.6967H105.88C106.92 31.6967 107.762 32.5402 107.762 33.5788C107.762 34.6187 106.92 35.4608 105.88 35.4608H86.4309ZM86.4309 16.807C85.3909 16.807 84.5488 15.965 84.5488 14.925C84.5488 13.885 85.3909 13.043 86.4309 13.043H105.88C106.92 13.043 107.762 13.885 107.762 14.925C107.762 15.965 106.92 16.807 105.88 16.807H86.4309ZM86.4309 23.0249C85.3909 23.0249 84.5488 22.1829 84.5488 21.1429C84.5488 20.103 85.3909 19.2609 86.4309 19.2609H105.88C106.92 19.2609 107.762 20.103 107.762 21.1429C107.762 22.1829 106.92 23.0249 105.88 23.0249H86.4309ZM86.4309 29.2429C85.3909 29.2429 84.5488 28.4008 84.5488 27.3608C84.5488 26.3222 85.3909 25.4788 86.4309 25.4788H105.88C106.92 25.4788 107.762 26.3222 107.762 27.3608C107.762 28.4008 106.92 29.2429 105.88 29.2429H86.4309Z" fill="#A79BA7"/>
<mask id="mask4_200_374" style="mask-type:luminance" maskUnits="userSpaceOnUse" x="39" y="73" width="35" height="40">
<path d="M39.3801 73.6196H73.2703V112.98H39.3801V73.6196Z" fill="white"/>
</mask>
<g mask="url(#mask4_200_374)">
<path fill-rule="evenodd" clip-rule="evenodd" d="M71.103 73.9062C72.1579 73.9062 73.0177 74.7674 73.0177 75.8224V111.064C73.0177 112.119 72.1579 112.98 71.103 112.98H41.6142C40.5593 112.98 39.6995 112.119 39.6995 111.064V75.8224C39.6995 74.7674 40.5593 73.9062 41.6142 73.9062H71.103Z" fill="#ECEFF1"/>
</g>
<mask id="mask5_200_374" style="mask-type:luminance" maskUnits="userSpaceOnUse" x="68" y="73" width="6" height="40">
<path d="M68.7285 73.6196H73.2705V112.98H68.7285V73.6196Z" fill="white"/>
</mask>
<g mask="url(#mask5_200_374)">
<path fill-rule="evenodd" clip-rule="evenodd" d="M71.1032 73.9062C72.1582 73.9062 73.018 74.7674 73.018 75.8224V111.064C73.018 112.119 72.1582 112.98 71.1032 112.98H68.7517C69.8067 112.98 70.6665 112.119 70.6665 111.064V75.8224C70.6665 74.7674 69.8067 73.9062 68.7517 73.9062H71.1032Z" fill="#D1D1D6"/>
</g>
<path fill-rule="evenodd" clip-rule="evenodd" d="M50.162 72.7491H52.3757C52.8356 72.7491 53.23 72.5035 53.432 72.0886C53.9602 71.0049 55.0725 70.2598 56.3595 70.2598C57.6451 70.2598 58.7574 71.0049 59.2856 72.0886C59.4875 72.5021 59.882 72.7491 60.3433 72.7491H62.5556C63.2025 72.7491 63.7306 73.2773 63.7306 73.9256V76.5527C63.7306 77.201 63.2025 77.7292 62.5556 77.7292H50.162C49.5151 77.7292 48.9856 77.201 48.9856 76.5527V73.9256C48.987 73.2773 49.5151 72.7491 50.162 72.7491Z" fill="#E3A76F"/>
<path fill-rule="evenodd" clip-rule="evenodd" d="M55.5679 70.3553C55.8217 70.2925 56.0865 70.2598 56.3594 70.2598C57.6451 70.2598 58.7574 71.0049 59.2855 72.0886C59.4875 72.5021 59.8819 72.7491 60.3432 72.7491H58.7614C58.3015 72.7491 57.9071 72.5035 57.7051 72.0886C57.2889 71.2356 56.5096 70.59 55.5679 70.3553ZM60.9737 72.7491H62.5555C63.2024 72.7491 63.732 73.2773 63.732 73.9256V76.5527C63.732 77.201 63.2024 77.7292 62.5555 77.7292H60.9737C61.622 77.7292 62.1502 77.201 62.1502 76.5527V73.9256C62.1502 73.2773 61.622 72.7491 60.9737 72.7491Z" fill="#C48958"/>
<path fill-rule="evenodd" clip-rule="evenodd" d="M46.634 105.679C45.594 105.679 44.752 104.836 44.752 103.797C44.752 102.757 45.594 101.915 46.634 101.915H66.0834C67.1234 101.915 67.9654 102.757 67.9654 103.797C67.9654 104.836 67.1234 105.679 66.0834 105.679H46.634ZM46.634 87.0248C45.594 87.0248 44.752 86.1827 44.752 85.1428C44.752 84.1028 45.594 83.2607 46.634 83.2607H66.0834C67.1234 83.2607 67.9654 84.1028 67.9654 85.1428C67.9654 86.1827 67.1234 87.0248 66.0834 87.0248H46.634ZM46.634 93.2427C45.594 93.2427 44.752 92.4006 44.752 91.3607C44.752 90.3207 45.594 89.4787 46.634 89.4787H66.0834C67.1234 89.4787 67.9654 90.3207 67.9654 91.3607C67.9654 92.4006 67.1234 93.2427 66.0834 93.2427H46.634ZM46.634 99.4606C45.594 99.4606 44.752 98.6186 44.752 97.5786C44.752 96.5386 45.594 95.6966 46.634 95.6966H66.0834C67.1234 95.6966 67.9654 96.5386 67.9654 97.5786C67.9654 98.6186 67.1234 99.4606 66.0834 99.4606H46.634Z" fill="#A79BA7"/>
<path fill-rule="evenodd" clip-rule="evenodd" d="M80.5392 66.7686C79.1157 68.7993 77.4411 70.6432 75.5591 72.2522L89.1004 85.5288L94.2552 80.2143L80.5392 66.7686Z" fill="#A79BA7"/>
<path fill-rule="evenodd" clip-rule="evenodd" d="M80.6307 66.6772C80.3646 67.5507 79.8692 68.214 79.1567 68.6534L92.608 82.0201L94.2553 80.2145L80.6307 66.6772Z" fill="#837683"/>
<path fill-rule="evenodd" clip-rule="evenodd" d="M106.247 102.76L112.066 96.7634C113.088 95.7098 113.062 94.012 112.008 92.9912L95.8943 77.3508C94.842 76.3286 93.1443 76.3545 92.122 77.4068L86.304 83.405C85.2832 84.4572 85.3077 86.155 86.3613 87.1772L102.475 102.818C103.529 103.838 105.225 103.814 106.247 102.76Z" fill="#F1BA84"/>
<path fill-rule="evenodd" clip-rule="evenodd" d="M93.5101 77.3513L109.624 92.9916C110.678 94.0138 110.704 95.7103 109.681 96.7639L103.863 102.761C103.649 102.982 103.403 103.159 103.141 103.289C104.153 103.792 105.421 103.612 106.248 102.761L112.066 96.7639C113.086 95.7103 113.061 94.0138 112.008 92.9916L95.8944 77.3513C95.0632 76.5447 93.8295 76.3905 92.8455 76.8791C93.0843 76.9992 93.3095 77.1561 93.5101 77.3513Z" fill="#E3A76F"/>
<path d="M79.2987 31.2394C79.6385 31.5792 79.9688 31.9273 80.2909 32.2835C80.6143 32.6383 80.9268 33.0027 81.2326 33.3739C81.5369 33.7451 81.8317 34.1232 82.1183 34.5094C82.4049 34.8956 82.6806 35.2873 82.9481 35.6872C83.2142 36.0871 83.4708 36.4924 83.7178 36.9046C83.9648 37.3168 84.2009 37.7344 84.4275 38.1575C84.654 38.5819 84.8697 39.0104 85.0758 39.4444C85.2805 39.8784 85.4756 40.3179 85.6585 40.7614C85.8428 41.205 86.0161 41.6526 86.1771 42.1058C86.3395 42.5575 86.4897 43.0133 86.6289 43.4733C86.7681 43.9332 86.8964 44.3958 87.0137 44.8612C87.1297 45.328 87.2348 45.7961 87.329 46.267C87.4232 46.7378 87.5051 47.2114 87.5747 47.6863C87.6456 48.1613 87.7043 48.6376 87.7521 49.1166C87.7985 49.5943 87.834 50.0733 87.8572 50.5524C87.8817 51.0328 87.8927 51.5132 87.8927 51.9922C87.8927 52.4726 87.8817 52.953 87.8572 53.4334C87.834 53.9124 87.7985 54.3915 87.7521 54.8691C87.7043 55.3482 87.6456 55.8245 87.576 56.2994C87.5051 56.7744 87.4232 57.2479 87.329 57.7188C87.2362 58.1896 87.1297 58.6578 87.0137 59.1245C86.8977 59.5899 86.7695 60.0526 86.6302 60.5125C86.4897 60.9724 86.3395 61.4283 86.1785 61.88C86.0161 62.3331 85.8428 62.7808 85.6599 63.2243C85.4756 63.6679 85.2818 64.1073 85.0758 64.5413C84.871 64.9753 84.6554 65.4052 84.4289 65.8283C84.2023 66.2514 83.9648 66.669 83.7192 67.0812C83.4721 67.4933 83.2142 67.8987 82.9481 68.2985C82.6819 68.6984 82.4049 69.0901 82.1183 69.4763C81.8331 69.8626 81.5369 70.2406 81.2326 70.6118C80.9282 70.9831 80.6143 71.3475 80.2922 71.7023C79.9701 72.0585 79.6385 72.4065 79.2987 72.7463C78.9588 73.0862 78.6122 73.4165 78.256 73.7399C77.8998 74.062 77.5367 74.3759 77.1655 74.6802C76.7943 74.9846 76.4163 75.2807 76.03 75.5673C75.6438 75.8526 75.2521 76.1296 74.8522 76.3958C74.4537 76.6633 74.047 76.9198 73.6362 77.1669C73.224 77.4139 72.8064 77.65 72.382 77.8765C71.9589 78.1031 71.5304 78.3187 71.0964 78.5248C70.6624 78.7295 70.2229 78.9247 69.7793 79.1089C69.3358 79.2918 68.8881 79.4651 68.4364 79.6275C67.9833 79.7886 67.5275 79.9401 67.0689 80.0793C66.609 80.2185 66.1463 80.3468 65.6796 80.4628C65.2142 80.5802 64.7461 80.6852 64.2752 80.7794C63.8044 80.8722 63.3308 80.9541 62.8558 81.0251C62.3809 81.096 61.9046 81.1547 61.4269 81.2011C60.9492 81.2489 60.4702 81.2844 59.9898 81.3076C59.5108 81.3308 59.0304 81.3431 58.55 81.3431C58.0696 81.3431 57.5905 81.3308 57.1101 81.3076C56.6311 81.2844 56.1521 81.2489 55.6744 81.2011C55.1967 81.1547 54.7204 81.096 54.2455 81.0251C53.7692 80.9555 53.2969 80.8722 52.8261 80.7794C52.3552 80.6852 51.8858 80.5802 51.4204 80.4628C50.955 80.3468 50.4923 80.2185 50.0324 80.0793C49.5725 79.9401 49.1166 79.7886 48.6649 79.6275C48.2132 79.4651 47.7655 79.2932 47.3206 79.1089C46.877 78.9247 46.4389 78.7309 46.0049 78.5248C45.5709 78.3201 45.141 78.1045 44.718 77.8779C44.2949 77.6514 43.8773 77.4139 43.4651 77.1682C43.0529 76.9212 42.6476 76.6633 42.2477 76.3971C41.8492 76.1296 41.4561 75.8539 41.0713 75.5673C40.685 75.2807 40.307 74.9859 39.9358 74.6816C39.5646 74.3759 39.2002 74.0634 38.844 73.7399C38.4891 73.4178 38.1411 73.0862 37.8013 72.7463C37.4614 72.4079 37.1312 72.0599 36.8091 71.7037C36.4856 71.3475 36.1717 70.9844 35.8674 70.6132C35.563 70.242 35.2682 69.8626 34.9816 69.4777C34.695 69.0915 34.4194 68.6984 34.1519 68.2999C33.8857 67.9 33.6292 67.4947 33.3821 67.0825C33.1351 66.6704 32.8976 66.2527 32.6724 65.8297C32.4459 65.4052 32.2289 64.9767 32.0242 64.5427C31.8195 64.1087 31.6243 63.6692 31.44 63.2257C31.2572 62.7821 31.0838 62.3331 30.9228 61.8814C30.7604 61.4296 30.6103 60.9738 30.4711 60.5139C30.3305 60.0539 30.2036 59.5913 30.0862 59.1259C29.9702 58.6591 29.8637 58.191 29.7709 57.7202C29.6768 57.2479 29.5949 56.7757 29.5239 56.3008C29.4543 55.8258 29.3956 55.3482 29.3478 54.8705C29.3014 54.3928 29.266 53.9138 29.2428 53.4334C29.2182 52.9544 29.2073 52.474 29.2073 51.9936C29.2073 51.5132 29.2182 51.0341 29.2414 50.5537C29.266 50.0747 29.3014 49.5956 29.3478 49.1166C29.3956 48.6389 29.4543 48.1626 29.5239 47.6877C29.5949 47.2127 29.6768 46.7392 29.7709 46.2683C29.8637 45.7975 29.9688 45.328 30.0862 44.8626C30.2022 44.3972 30.3305 43.9332 30.4697 43.4746C30.6089 43.0147 30.7604 42.5589 30.9214 42.1058C31.0838 41.654 31.2558 41.2064 31.44 40.7628C31.6243 40.3179 31.8181 39.8798 32.0242 39.4458C32.2289 39.0104 32.4445 38.5819 32.6711 38.1588C32.8976 37.7344 33.1337 37.3168 33.3808 36.9046C33.6278 36.4938 33.8844 36.0871 34.1519 35.6886C34.418 35.2887 34.695 34.8956 34.9803 34.5108C35.2669 34.1245 35.563 33.7465 35.8674 33.3753C36.1717 33.0027 36.4856 32.6397 36.8077 32.2835C37.1298 31.9273 37.4614 31.5806 37.8013 31.2408C38.1397 30.9009 38.4878 30.5693 38.844 30.2472C39.2002 29.9251 39.5632 29.6112 39.9344 29.3069C40.3056 29.0012 40.6837 28.7064 41.0699 28.4198C41.4561 28.1332 41.8478 27.8575 42.2477 27.59C42.6462 27.3239 43.0516 27.0673 43.4637 26.8203C43.8759 26.5732 44.2935 26.3358 44.7166 26.1092C45.141 25.8827 45.5696 25.667 46.0036 25.4623C46.4376 25.2562 46.877 25.0624 47.3206 24.8782C47.7641 24.6939 48.2118 24.522 48.6635 24.3596C49.1166 24.1985 49.5725 24.047 50.031 23.9078C50.491 23.7686 50.9536 23.6403 51.419 23.523C51.8858 23.407 52.3539 23.3019 52.8247 23.2077C53.2956 23.1135 53.7692 23.0316 54.2441 22.962C54.719 22.8911 55.1953 22.8324 55.673 22.7846C56.1507 22.7382 56.6297 22.7027 57.1101 22.6795C57.5892 22.6563 58.0696 22.644 58.55 22.644C59.029 22.644 59.5094 22.655 59.9898 22.6795C60.4688 22.7027 60.9479 22.7382 61.4256 22.7846C61.9032 22.8324 62.3795 22.8911 62.8545 22.962C63.3294 23.0316 63.803 23.1135 64.2738 23.2077C64.7447 23.3019 65.2128 23.407 65.6796 23.523C66.1449 23.6403 66.6076 23.7686 67.0675 23.9078C67.5275 24.047 67.9833 24.1972 68.435 24.3596C68.8868 24.5206 69.3344 24.6939 69.778 24.8782C70.2215 25.0611 70.661 25.2562 71.095 25.4609C71.529 25.667 71.9575 25.8827 72.382 26.1092C72.8051 26.3358 73.2227 26.5719 73.6348 26.8189C74.047 27.0659 74.4523 27.3225 74.8522 27.59C75.2507 27.8561 75.6438 28.1332 76.0287 28.4198C76.4149 28.705 76.7929 29.0012 77.1642 29.3055C77.5354 29.6099 77.8998 29.9238 78.2546 30.2458C78.6108 30.5693 78.9588 30.8996 79.2987 31.2394Z" fill="#8AC9FE"/>
<path fill-rule="evenodd" clip-rule="evenodd" d="M58.5513 22.644C74.7566 22.644 87.894 35.7841 87.894 51.9936C87.894 68.203 74.7566 81.3431 58.5513 81.3431C58.0736 81.3431 57.5987 81.3308 57.1265 81.3076C72.6699 80.5651 85.0457 67.7253 85.0457 51.9936C85.0457 36.2618 72.6699 23.422 57.1265 22.6782C57.5987 22.6563 58.0736 22.644 58.5513 22.644Z" fill="#60B7FF"/>
<path d="M68.4991 31.0129C68.843 31.1753 69.1815 31.3473 69.5159 31.5261C69.8516 31.7062 70.1819 31.8932 70.5067 32.0897C70.8329 32.2849 71.1536 32.4883 71.4689 32.6998C71.7841 32.9113 72.0953 33.1311 72.3997 33.3576C72.704 33.5842 73.0042 33.8189 73.2977 34.0605C73.5897 34.3007 73.8777 34.5491 74.1589 34.8056C74.44 35.0609 74.7143 35.3229 74.9832 35.5918C75.252 35.8606 75.5127 36.1363 75.7679 36.4188C76.0231 36.7 76.2702 36.9879 76.5104 37.2814C76.7519 37.5761 76.9853 37.8764 77.2105 38.1807C77.437 38.4865 77.6554 38.7976 77.8656 39.1142C78.0771 39.4295 78.2791 39.7516 78.4743 40.0778C78.6694 40.404 78.8564 40.7342 79.0352 41.07C79.214 41.4043 79.3832 41.7442 79.5456 42.0881C79.708 42.432 79.8609 42.7787 80.0069 43.1308C80.1516 43.4815 80.2881 43.8364 80.415 44.1939C80.5433 44.5515 80.662 44.9132 80.7712 45.2762C80.8817 45.6406 80.9814 46.0064 81.0742 46.3749C81.1656 46.7433 81.2489 47.1146 81.3226 47.4872C81.3963 47.8597 81.4604 48.235 81.5164 48.6104C81.571 48.987 81.6174 49.3637 81.6542 49.7418C81.6911 50.1198 81.7183 50.4992 81.7361 50.8786C81.7552 51.258 81.7634 51.6374 81.7634 52.0182C81.762 52.3976 81.7525 52.777 81.7334 53.1564C81.7143 53.5358 81.687 53.9152 81.6487 54.2933C81.6105 54.6713 81.5641 55.048 81.5082 55.4247C81.4522 55.8 81.3867 56.174 81.3116 56.5465C81.2366 56.9191 81.1533 57.2903 81.0605 57.6588C80.9677 58.0273 80.8667 58.3931 80.7562 58.7561C80.6456 59.1191 80.5255 59.4808 80.3972 59.8384C80.269 60.1959 80.1311 60.5494 79.9851 60.9002C79.8404 61.2509 79.6862 61.5989 79.5224 61.9415C79.36 62.2854 79.1894 62.6239 79.0093 62.9596C78.8305 63.294 78.6421 63.6243 78.447 63.9504C78.2505 64.2753 78.0471 64.596 77.8356 64.9126C77.624 65.2279 77.4057 65.5377 77.1791 65.8434C76.9525 66.1477 76.7178 66.448 76.4762 66.7414C76.236 67.0348 75.9877 67.3214 75.7311 67.6026C75.4759 67.8837 75.2138 68.1594 74.945 68.4269C74.6761 68.6958 74.4004 68.9578 74.1193 69.2117C73.8368 69.4669 73.5488 69.7153 73.2554 69.9555C72.9619 70.1957 72.6617 70.429 72.356 70.6556C72.0503 70.8821 71.7405 71.1005 71.4238 71.3107C71.1086 71.5209 70.7865 71.7242 70.4603 71.9194C70.1341 72.1145 69.8039 72.3015 69.4681 72.4803C69.1337 72.6591 68.7939 72.8283 68.45 72.9907C68.1074 73.1531 67.7594 73.306 67.4087 73.452C67.0566 73.5967 66.7031 73.7332 66.3455 73.8601C65.9866 73.9884 65.6263 74.1071 65.2632 74.2163C64.8988 74.3268 64.5331 74.4278 64.1646 74.5193C63.7961 74.6107 63.4249 74.694 63.0523 74.7677C62.6797 74.8414 62.3058 74.9055 61.9291 74.9615C61.5538 75.0161 61.1771 75.0625 60.7991 75.0993C60.4196 75.1362 60.0416 75.1634 59.6622 75.1826C59.2828 75.2003 58.9034 75.2099 58.5226 75.2085C58.1432 75.2085 57.7638 75.1989 57.3844 75.1798C57.005 75.1607 56.6256 75.1321 56.2475 75.0938C55.8695 75.057 55.4928 75.0092 55.1175 74.9533C54.7422 74.8973 54.3669 74.8318 53.9943 74.7567C53.6217 74.683 53.2518 74.5998 52.8834 74.507C52.5149 74.4142 52.1491 74.3118 51.7861 74.2013C51.4217 74.0907 51.0614 73.9706 50.7038 73.8423C50.3462 73.7141 49.9928 73.5762 49.642 73.4315C49.2913 73.2855 48.9446 73.1313 48.6007 72.9675C48.2581 72.8051 47.9183 72.6345 47.5839 72.4544C47.2482 72.2756 46.9179 72.0872 46.5931 71.8921C46.2669 71.6956 45.9462 71.4922 45.6309 71.2807C45.3157 71.0691 45.0045 70.8508 44.7002 70.6242C44.3958 70.3963 44.0969 70.1629 43.8035 69.9213C43.5101 69.6798 43.2221 69.4314 42.941 69.1762C42.6598 68.921 42.3855 68.6576 42.1166 68.3887C41.8478 68.1198 41.5871 67.8442 41.3319 67.563C41.0767 67.2805 40.8297 66.9925 40.5894 66.6991C40.3479 66.4057 40.1145 66.1054 39.8893 65.7997C39.6628 65.494 39.4444 65.1842 39.2342 64.8676C39.0227 64.5509 38.8207 64.2302 38.6255 63.904C38.4304 63.5779 38.2434 63.2476 38.0646 62.9118C37.8858 62.5761 37.7166 62.2363 37.5542 61.8937C37.3918 61.5498 37.2389 61.2018 37.0929 60.851C36.9482 60.5003 36.8117 60.1455 36.6848 59.7865C36.5565 59.4289 36.4378 59.0686 36.3286 58.7042C36.2181 58.3412 36.1184 57.9741 36.0256 57.6056C35.9342 57.2371 35.8509 56.8659 35.7772 56.4933C35.7036 56.1207 35.6394 55.7468 35.5848 55.3701C35.5289 54.9948 35.4825 54.6181 35.4456 54.2401C35.4088 53.862 35.3815 53.4826 35.3637 53.1032C35.3446 52.7238 35.3364 52.343 35.3364 51.9636C35.3378 51.5842 35.3473 51.2034 35.3665 50.824C35.3856 50.4446 35.4142 50.0666 35.4511 49.6885C35.4893 49.3105 35.5357 48.9324 35.5916 48.5571C35.6476 48.1818 35.7131 47.8065 35.7882 47.4339C35.8632 47.0613 35.9465 46.6915 36.0393 46.323C36.1321 45.9545 36.2331 45.5887 36.3436 45.2243C36.4555 44.8613 36.5743 44.501 36.7026 44.1434C36.8309 43.7859 36.9687 43.431 37.1147 43.0803C37.2594 42.7295 37.4136 42.3829 37.5774 42.039C37.7398 41.6964 37.9104 41.3566 38.0905 41.0222C38.2693 40.6865 38.4577 40.3562 38.6528 40.0314C38.8494 39.7052 39.0527 39.3845 39.2643 39.0692C39.4758 38.7526 39.6942 38.4428 39.9207 38.1384C40.1473 37.8327 40.382 37.5338 40.6236 37.2404C40.8638 36.947 41.1122 36.659 41.3687 36.3779C41.624 36.0967 41.886 35.8224 42.1548 35.5535C42.4237 35.286 42.6994 35.024 42.9805 34.7688C43.263 34.5136 43.551 34.2666 43.8444 34.025C44.1379 33.7848 44.4381 33.5514 44.7438 33.3262C45.0495 33.0997 45.3593 32.8813 45.676 32.6698C45.9926 32.4596 46.3133 32.2562 46.6395 32.0624C46.9657 31.8673 47.296 31.6803 47.6317 31.5015C47.9661 31.3227 48.3059 31.1521 48.6498 30.9897C48.9924 30.8287 49.3404 30.6745 49.6911 30.5298C50.0433 30.3851 50.3967 30.2487 50.7557 30.1204C51.1132 29.9934 51.4735 29.8747 51.8379 29.7642C52.201 29.655 52.5667 29.554 52.9352 29.4612C53.3037 29.3697 53.6749 29.2865 54.0475 29.2128C54.4201 29.1391 54.794 29.075 55.1707 29.0204C55.546 28.9644 55.9227 28.918 56.3021 28.8812C56.6802 28.8443 57.0582 28.817 57.4376 28.7993C57.817 28.7815 58.1964 28.772 58.5772 28.772C58.9566 28.7733 59.336 28.7829 59.7154 28.802C60.0948 28.8211 60.4742 28.8498 60.8523 28.8866C61.2303 28.9248 61.607 28.9712 61.9823 29.0272C62.359 29.0845 62.7329 29.1487 63.1055 29.2237C63.4781 29.2988 63.848 29.382 64.2165 29.4748C64.5849 29.5676 64.9507 29.6686 65.3137 29.7805C65.6781 29.8911 66.0384 30.0098 66.396 30.1381C66.7536 30.2678 67.1071 30.4042 67.4578 30.5503C67.8085 30.6963 68.1566 30.8505 68.4991 31.0129Z" fill="#ECEFF1"/>
<path fill-rule="evenodd" clip-rule="evenodd" d="M58.5514 28.7744C59.0782 28.7744 59.6009 28.7935 60.1195 28.829C48.0317 29.6356 38.4769 39.6981 38.4769 51.9934C38.4769 64.2886 48.0317 74.3498 60.1195 75.1577C59.6009 75.1918 59.0782 75.2109 58.5514 75.2109C45.7307 75.2109 35.3379 64.8168 35.3379 51.9934C35.3379 39.1699 45.7307 28.7744 58.5514 28.7744Z" fill="#D1D1D6"/>
<path fill-rule="evenodd" clip-rule="evenodd" d="M46.0048 62.467C45.362 63.2831 44.1815 63.4237 43.3654 62.7836C42.5492 62.1408 42.4073 60.9589 43.0487 60.1428L54.42 45.6611C55.0629 44.845 56.2434 44.703 57.0595 45.3445C57.4034 45.6134 57.6259 45.9791 57.7228 46.3722L60.5452 55.5612L66.9228 47.0791L65.9674 47.479C65.0093 47.8762 63.9093 47.4217 63.5122 46.4636C63.1137 45.5055 63.5681 44.4069 64.5262 44.0084L71.8537 40.9472C72.8118 40.5487 73.9118 41.0031 74.3089 41.9612C74.4563 42.3161 74.4877 42.69 74.4181 43.0407L73.4218 50.7954C73.2908 51.8231 72.3532 52.5505 71.3255 52.4209C70.2992 52.2912 69.5718 51.3522 69.7014 50.3246L69.8106 49.477L61.3818 60.6887C61.1498 61.0285 60.8058 61.2933 60.3841 61.4243C59.3933 61.7286 58.3424 61.1718 58.0381 60.181L55.1598 50.8077L46.0048 62.467Z" fill="#A79BA7"/>
</g>
<defs>
<clipPath id="clip0_200_374">
<rect width="113" height="113" fill="white"/>
</clipPath>
</defs>
</svg>
