<svg width="156" height="115" viewBox="0 0 156 115" fill="none" xmlns="http://www.w3.org/2000/svg">
<path fill-rule="evenodd" clip-rule="evenodd" d="M148.077 10.769H90.3164C87.6113 10.769 85.3916 12.987 85.3916 15.6974V100.812C85.3916 103.521 87.6077 105.74 90.3164 105.74H148.077C150.784 105.74 153 103.522 153 100.812V15.6974C153 12.9888 150.782 10.769 148.077 10.769Z" fill="#2F5274"/>
<path fill-rule="evenodd" clip-rule="evenodd" d="M93.4639 20.1436H144.94V96.3633H93.4639V20.1436Z" fill="#E2E7F0"/>
<path fill-rule="evenodd" clip-rule="evenodd" d="M132.75 9.48401H127.852C127.852 4.39509 123.98 0.271484 119.201 0.271484C114.412 0.271484 110.54 4.39509 110.54 9.48401H105.644C103.511 9.48401 101.761 11.3451 101.761 13.6237V18.536C101.761 20.8163 103.511 22.6685 105.644 22.6685H132.75C134.889 22.6685 136.63 20.8128 136.63 18.536V13.6237C136.632 11.3451 134.889 9.48401 132.75 9.48401Z" fill="#FF4646"/>
<path fill-rule="evenodd" clip-rule="evenodd" d="M5 49.8655C5 50.5935 5.59062 51.1788 6.32041 51.1788H39.4823C40.2103 51.1788 40.8045 50.5935 40.8045 49.8655V5.96903C40.8045 5.24995 40.2139 4.65576 39.4823 4.65576H6.32041C5.59418 4.65576 5 5.24638 5 5.96903V49.8655Z" fill="#E2E7F0"/>
<mask id="mask0_200_253" style="mask-type:luminance" maskUnits="userSpaceOnUse" x="5" y="65" width="37" height="47">
<path d="M5 65.1357H41.0864V111.907H5V65.1357Z" fill="white"/>
</mask>
<g mask="url(#mask0_200_253)">
<path fill-rule="evenodd" clip-rule="evenodd" d="M5 110.54C5 111.268 5.59062 111.862 6.32041 111.862H39.4823C40.2103 111.862 40.8045 111.27 40.8045 110.54V66.6399C40.8045 65.9208 40.2139 65.3267 39.4823 65.3267H6.32041C5.59418 65.3267 5 65.9191 5 66.6399V110.54Z" fill="#E2E7F0"/>
</g>
<path d="M50.0581 30.3072C48.7359 30.3072 47.6653 29.2402 47.6653 27.9162C47.6653 26.594 48.7395 25.527 50.0581 25.527H70.3799L67.1574 22.3009C66.2277 21.3695 66.2277 19.8528 67.1574 18.9214C68.087 17.9917 69.6019 17.9917 70.5316 18.9214L77.8295 26.23C78.7591 27.1596 78.7591 28.6763 77.8295 29.6077L70.5316 36.9057C69.6019 37.8371 68.087 37.8371 67.1574 36.9057C66.2277 35.976 66.2277 34.4594 67.1574 33.5279L70.3799 30.3001H50.0581V30.3072ZM67.1592 82.9772C66.2295 82.0476 66.2295 80.5381 67.1592 79.5995C68.0906 78.6681 69.6037 78.6681 70.5333 79.5995L77.8331 86.9064C78.7627 87.8378 78.7627 89.3545 77.8331 90.2841L70.5333 97.5838C69.6037 98.5152 68.0906 98.5152 67.1592 97.5838C66.2295 96.6524 66.2295 95.1357 67.1592 94.2061L70.3835 90.9782H50.0599C48.7395 90.9782 47.6689 89.9112 47.6689 88.589C47.6689 87.2668 48.743 86.1998 50.0599 86.1998H70.3835L67.1592 82.9772Z" fill="#0593FC"/>
<path fill-rule="evenodd" clip-rule="evenodd" d="M119.201 33.2441C110.44 33.2441 103.34 40.3476 103.34 49.114C103.34 57.8858 110.436 64.9928 119.201 64.9928C127.953 64.9928 135.051 57.8894 135.051 49.114C135.051 40.3476 127.955 33.2441 119.201 33.2441Z" fill="#70DA40"/>
<path d="M124.733 42.735C125.662 41.7947 127.177 41.7947 128.107 42.735C129.036 43.6647 129.036 45.1742 128.107 46.1128L118.734 55.4966C117.804 56.428 116.289 56.428 115.36 55.4966L110.285 50.4166C109.355 49.4852 109.355 47.9685 110.285 47.0371C111.216 46.1074 112.729 46.1074 113.659 47.0371L117.042 50.4255L124.733 42.735Z" fill="#E2E7F0"/>
<path d="M135.21 71.8076C136.532 71.8076 137.598 72.8747 137.598 74.1968C137.598 75.519 136.532 76.5861 135.21 76.5861H115.479C114.159 76.5861 113.086 75.519 113.086 74.1968C113.086 72.8747 114.16 71.8076 115.479 71.8076H135.21ZM106.208 83.4094C107.528 83.4094 108.6 84.4764 108.6 85.7986C108.6 87.1208 107.526 88.1896 106.208 88.1896H103.181C101.861 88.1896 100.794 87.1208 100.794 85.7986C100.794 84.4764 101.861 83.4094 103.181 83.4094H106.208ZM135.21 83.4094C136.532 83.4094 137.598 84.4764 137.598 85.7986C137.598 87.1208 136.532 88.1896 135.21 88.1896H115.479C114.159 88.1896 113.086 87.1208 113.086 85.7986C113.086 84.4764 114.16 83.4094 115.479 83.4094H135.21ZM106.208 71.8076C107.528 71.8076 108.6 72.8747 108.6 74.1968C108.6 75.519 107.526 76.5861 106.208 76.5861H103.181C101.861 76.5861 100.794 75.519 100.794 74.1968C100.794 72.8747 101.861 71.8076 103.181 71.8076H106.208Z" fill="#0593FC"/>
<path d="M33.1657 10.4976C34.4861 10.4976 35.5585 11.5646 35.5585 12.8868C35.5585 14.2108 34.4843 15.2778 33.1657 15.2778H12.8439C11.5217 15.2778 10.4511 14.2108 10.4511 12.8868C10.4511 11.5646 11.5252 10.4976 12.8439 10.4976H33.1657ZM32.973 81.1876C34.2934 81.1876 35.3586 82.2636 35.3586 83.584C35.3586 84.8973 34.2934 85.9732 32.973 85.9732H12.8439C11.5217 85.9732 10.4511 84.8973 10.4511 83.584C10.4511 82.2618 11.5252 81.1876 12.8439 81.1876H32.973ZM33.1657 101.235C34.4861 101.235 35.5585 102.302 35.5585 103.624C35.5585 104.946 34.4843 106.013 33.1657 106.013H12.6369C11.3165 106.013 10.2512 104.946 10.2512 103.624C10.2512 102.302 11.3165 101.235 12.6369 101.235H33.1657ZM32.973 91.2156C34.2934 91.2156 35.3586 92.2826 35.3586 93.6048C35.3586 94.927 34.2934 95.994 32.973 95.994H12.8439C11.5217 95.994 10.4511 94.927 10.4511 93.6048C10.4511 92.2826 11.5252 91.2156 12.8439 91.2156H32.973ZM33.1657 71.1721C34.4861 71.1721 35.5585 72.2392 35.5585 73.5614C35.5585 74.8836 34.4843 75.9577 33.1657 75.9577H12.8439C11.5217 75.9577 10.4511 74.8818 10.4511 73.5614C10.4511 72.2392 11.5252 71.1721 12.8439 71.1721H33.1657ZM32.973 20.5166C34.2934 20.5166 35.3586 21.5926 35.3586 22.913C35.3586 24.2262 34.2934 25.3022 32.973 25.3022H12.8439C11.5217 25.3022 10.4511 24.2262 10.4511 22.913C10.4511 21.589 11.5252 20.5166 12.8439 20.5166H32.973ZM33.1657 40.5601C34.4861 40.5601 35.5585 41.6271 35.5585 42.9493C35.5585 44.2715 34.4843 45.3385 33.1657 45.3385H12.6369C11.3165 45.3385 10.2512 44.2715 10.2512 42.9493C10.2512 41.6271 11.3165 40.5601 12.6369 40.5601H33.1657ZM32.973 30.541C34.2934 30.541 35.3586 31.608 35.3586 32.9302C35.3586 34.2524 34.2934 35.3195 32.973 35.3195H12.8439C11.5217 35.3195 10.4511 34.2524 10.4511 32.9302C10.4511 31.608 11.5252 30.541 12.8439 30.541H32.973Z" fill="#70DA40"/>
</svg>
