<svg width="21" height="22" viewBox="0 0 21 22" fill="none" xmlns="http://www.w3.org/2000/svg">
<path d="M8.77268 1.78125C7.23539 1.78125 5.73263 2.22554 4.45441 3.05792C3.1762 3.89031 2.17996 5.07342 1.59166 6.45763C1.00337 7.84184 0.849443 9.36498 1.14935 10.8345C1.44926 12.3039 2.18954 13.6537 3.27657 14.7131C4.3636 15.7726 5.74856 16.4941 7.25631 16.7863C8.76406 17.0786 10.3269 16.9286 11.7472 16.3553C13.1674 15.7819 14.3814 14.811 15.2354 13.5652C16.0895 12.3194 16.5454 10.8548 16.5454 9.35658C16.5452 7.34752 15.7263 5.42078 14.2687 4.00015C12.811 2.57953 10.8341 1.78138 8.77268 1.78125Z" stroke="#5B5C99" stroke-width="2" stroke-miterlimit="10"/>
<path d="M14.5717 15.0083L20 20.2988" stroke="#5B5C99" stroke-width="2" stroke-miterlimit="10" stroke-linecap="round"/>
</svg>
