<svg width="66" height="57" viewBox="0 0 66 57" fill="none" xmlns="http://www.w3.org/2000/svg">
<path d="M60.934 20.0394C59.2247 18.9668 57.0887 18.1869 54.7362 17.7581C54.3397 17.6832 53.9743 17.4951 53.6851 17.2171C53.396 16.9391 53.1958 16.5835 53.1094 16.1944C52.0962 11.8035 49.9383 8.03484 46.7736 5.17843C43.074 1.83853 38.1833 0 33 0C28.4432 0 24.2344 1.40976 20.8351 4.0715C18.5393 5.87818 16.6901 8.1768 15.4275 10.7933C15.287 11.0883 15.0771 11.3459 14.8151 11.5444C14.5532 11.743 14.2469 11.8768 13.9219 11.9346C10.4246 12.558 7.40824 13.8024 5.1034 15.5862C1.76602 18.1729 0 21.8283 0 26.1594C0 34.7349 7.20973 40.715 17.5312 40.715H30.9375V24.4862C30.9375 23.3907 31.7909 22.4505 32.9007 22.3958C33.1796 22.3825 33.4583 22.4253 33.7199 22.5215C33.9816 22.6177 34.2207 22.7653 34.4228 22.9554C34.6249 23.1455 34.7859 23.3741 34.8958 23.6274C35.0058 23.8807 35.0625 24.1534 35.0625 24.429V40.715H51.0469C60.4106 40.715 66 36.3585 66 29.0603C66 25.2369 64.2482 22.1171 60.934 20.0394ZM30.9375 50.0565L26.2066 45.3946C25.8176 45.0225 25.2958 44.8163 24.754 44.8208C24.2122 44.8253 23.6939 45.0401 23.3113 45.4186C22.9286 45.7972 22.7122 46.3092 22.7088 46.8439C22.7055 47.3787 22.9154 47.8933 23.2934 48.2765L31.5434 56.4055C31.93 56.7862 32.4539 57 33 57C33.5461 57 34.07 56.7862 34.4566 56.4055L42.7066 48.2765C43.0846 47.8933 43.2945 47.3787 43.2912 46.8439C43.2878 46.3092 43.0714 45.7972 42.6887 45.4186C42.3061 45.0401 41.7878 44.8253 41.246 44.8208C40.7042 44.8163 40.1824 45.0225 39.7934 45.3946L35.0625 50.0565V40.715H30.9375V50.0565Z" fill="#513A7F"/>
</svg>
