<svg width="346" height="346" viewBox="0 0 346 346" fill="none" xmlns="http://www.w3.org/2000/svg">
<g filter="url(#filter0_d_7_15)">
<path d="M155.679 30C163.377 16.6667 182.623 16.6667 190.321 30L305.502 229.5C313.2 242.833 303.577 259.5 288.181 259.5H57.8187C42.4227 259.5 32.8001 242.833 40.4981 229.5L155.679 30Z" fill="#050111"/>
</g>
<path d="M133.165 153.909H141.063V172.545C141.063 174.761 140.533 176.679 139.472 178.298C138.421 179.908 136.953 181.153 135.069 182.034C133.184 182.905 130.997 183.341 128.506 183.341C125.997 183.341 123.8 182.905 121.915 182.034C120.031 181.153 118.563 179.908 117.512 178.298C116.47 176.679 115.949 174.761 115.949 172.545V153.909H123.847V171.864C123.847 172.763 124.046 173.568 124.444 174.278C124.841 174.979 125.391 175.528 126.091 175.926C126.801 176.324 127.606 176.523 128.506 176.523C129.415 176.523 130.22 176.324 130.921 175.926C131.622 175.528 132.171 174.979 132.569 174.278C132.966 173.568 133.165 172.763 133.165 171.864V153.909ZM169.987 153.909V183H163.396L152.885 167.716H152.714V183H144.816V153.909H151.521L161.862 169.136H162.089V153.909H169.987ZM184.916 183H173.723V153.909H184.802C187.795 153.909 190.38 154.491 192.558 155.656C194.745 156.812 196.431 158.478 197.615 160.656C198.808 162.825 199.404 165.424 199.404 168.455C199.404 171.485 198.813 174.089 197.629 176.267C196.445 178.436 194.769 180.102 192.6 181.267C190.432 182.422 187.87 183 184.916 183ZM181.62 176.295H184.632C186.071 176.295 187.297 176.063 188.311 175.599C189.333 175.135 190.11 174.335 190.64 173.199C191.18 172.062 191.45 170.481 191.45 168.455C191.45 166.428 191.175 164.847 190.626 163.71C190.086 162.574 189.291 161.774 188.24 161.31C187.198 160.846 185.92 160.614 184.404 160.614H181.62V176.295ZM230.218 164.818H222.206C222.15 164.155 221.998 163.554 221.752 163.014C221.515 162.474 221.184 162.01 220.757 161.622C220.341 161.224 219.834 160.921 219.238 160.713C218.641 160.495 217.964 160.386 217.206 160.386C215.881 160.386 214.758 160.708 213.84 161.352C212.931 161.996 212.239 162.92 211.766 164.122C211.302 165.325 211.07 166.769 211.07 168.455C211.07 170.235 211.307 171.726 211.78 172.929C212.263 174.122 212.959 175.022 213.868 175.628C214.777 176.224 215.871 176.523 217.15 176.523C217.879 176.523 218.532 176.433 219.11 176.253C219.687 176.063 220.189 175.794 220.615 175.443C221.042 175.093 221.387 174.671 221.652 174.179C221.927 173.677 222.112 173.114 222.206 172.489L230.218 172.545C230.123 173.777 229.777 175.031 229.181 176.31C228.584 177.579 227.737 178.753 226.638 179.832C225.549 180.902 224.2 181.764 222.59 182.418C220.98 183.071 219.11 183.398 216.979 183.398C214.309 183.398 211.913 182.825 209.792 181.679C207.68 180.533 206.008 178.848 204.777 176.622C203.556 174.397 202.945 171.674 202.945 168.455C202.945 165.216 203.57 162.489 204.82 160.273C206.07 158.047 207.756 156.366 209.877 155.23C211.998 154.084 214.365 153.511 216.979 153.511C218.816 153.511 220.507 153.762 222.05 154.264C223.594 154.766 224.948 155.5 226.113 156.466C227.277 157.422 228.215 158.601 228.925 160.003C229.635 161.404 230.066 163.009 230.218 164.818Z" fill="url(#paint0_linear_7_15)"/>
<defs>
<filter id="filter0_d_7_15" x="33.7888" y="20" width="278.422" height="247.5" filterUnits="userSpaceOnUse" color-interpolation-filters="sRGB">
<feFlood flood-opacity="0" result="BackgroundImageFix"/>
<feColorMatrix in="SourceAlpha" type="matrix" values="0 0 0 0 0 0 0 0 0 0 0 0 0 0 0 0 0 0 127 0" result="hardAlpha"/>
<feOffset dy="4"/>
<feGaussianBlur stdDeviation="2"/>
<feComposite in2="hardAlpha" operator="out"/>
<feColorMatrix type="matrix" values="0 0 0 0 0 0 0 0 0 0 0 0 0 0 0 0 0 0 0.25 0"/>
<feBlend mode="normal" in2="BackgroundImageFix" result="effect1_dropShadow_7_15"/>
<feBlend mode="normal" in="SourceGraphic" in2="effect1_dropShadow_7_15" result="shape"/>
</filter>
<linearGradient id="paint0_linear_7_15" x1="114" y1="168" x2="221" y2="168" gradientUnits="userSpaceOnUse">
<stop stop-color="#67A1FE"/>
<stop offset="1" stop-color="#BD34FE"/>
</linearGradient>
</defs>
</svg>
