<svg width="287" height="362" viewBox="0 0 287 362" fill="none" xmlns="http://www.w3.org/2000/svg">
<g filter="url(#filter0_d_109_4)">
<path d="M169.44 1.398C167.598 0.478601 165.568 0 163.509 0C161.45 0 159.42 0.478601 157.578 1.398L51.3472 54.5035C49.1423 55.6041 47.2873 57.2963 45.9897 59.3909C44.692 61.4856 44.0029 63.8999 43.9996 66.3638V273.971C43.9967 276.22 44.5655 278.433 45.6525 280.403C46.7396 282.372 48.3092 284.033 50.2141 285.229L156.445 351.965C158.455 353.228 160.768 353.929 163.141 353.995C165.514 354.061 167.862 353.489 169.94 352.339C172.017 351.19 173.748 349.504 174.952 347.458C176.157 345.412 176.791 343.081 176.788 340.707V233.894L275.671 184.453C277.873 183.349 279.725 181.654 281.02 179.558C282.314 177.462 283 175.047 283 172.584C283 170.12 282.314 167.705 281.02 165.609C279.725 163.513 277.873 161.818 275.671 160.715L193.2 119.469L275.671 78.2417C277.873 77.1379 279.725 75.4432 281.02 73.347C282.314 71.2509 283 68.8361 283 66.3726C283 63.9092 282.314 61.4943 281.02 59.3982C279.725 57.3021 277.873 55.6073 275.671 54.5035L169.44 1.398Z" fill="url(#paint0_linear_109_4)"/>
<path d="M65.7311 226.107C69.2026 225.024 72.0951 222.609 73.7722 219.393C75.4494 216.178 75.7738 212.425 74.6741 208.961C73.5745 205.497 71.1408 202.606 67.9085 200.922C64.6762 199.239 60.9101 198.901 57.4386 199.984C53.9671 201.068 51.0746 203.483 49.3974 206.698C47.7203 209.913 47.3959 213.666 48.4955 217.13C49.5952 220.594 52.0288 223.486 55.2611 225.169C58.4934 226.853 62.2596 227.19 65.7311 226.107Z" fill="#FFF500"/>
<path d="M67.0954 266.009C69.4098 265.287 71.3381 263.677 72.4562 261.533C73.5743 259.39 73.7906 256.888 73.0575 254.579C72.3244 252.27 70.7019 250.342 68.5471 249.219C66.3922 248.097 63.8814 247.872 61.5671 248.594C59.2528 249.316 57.3244 250.926 56.2063 253.07C55.0882 255.214 54.8719 257.715 55.605 260.025C56.3382 262.334 57.9606 264.262 60.1154 265.384C62.2703 266.506 64.7811 266.731 67.0954 266.009Z" fill="#FFF500"/>
<path d="M105.97 233.031C105.481 231.492 104.4 230.206 102.963 229.458C101.527 228.71 99.8528 228.56 98.3099 229.041C96.767 229.523 95.4814 230.596 94.736 232.025C93.9906 233.454 93.8464 235.122 94.3352 236.661C94.8239 238.201 95.9055 239.486 97.3421 240.235C98.7787 240.983 100.453 241.133 101.995 240.651C103.538 240.17 104.824 239.097 105.569 237.667C106.315 236.238 106.459 234.571 105.97 233.031Z" fill="#FFF500"/>
<path fill-rule="evenodd" clip-rule="evenodd" d="M29.1976 310.068L135.527 256.56C138.202 255.215 140.535 253.07 142.255 250.397C143.975 247.724 144.997 244.636 145.195 241.516C145.393 238.395 144.758 235.378 143.369 232.837C141.98 230.297 139.898 228.344 137.379 227.22L105.232 212.869L122.313 193.914C129.581 185.836 128.053 173.07 119.334 169.178L83.3044 153.094C79.314 151.321 74.9563 151.15 70.5002 152.263C66.044 153.376 61.6928 155.721 58.2965 159.339L10.3606 210.508C8.25984 212.751 6.6368 215.469 5.63348 218.427C4.63016 221.384 4.27716 224.49 4.60536 227.473C4.93356 230.456 5.93296 233.224 7.5161 235.536C9.09924 237.848 11.2179 239.633 13.6866 240.735L39.1145 252.086L12.6892 281.954C9.92361 285.08 8.12249 289.049 7.58943 293.193C7.05637 297.337 7.82395 301.403 9.76282 304.705C11.7017 308.007 14.6933 310.343 18.2334 311.32C21.7736 312.297 25.6459 311.855 29.1976 310.068ZM79.6311 210.052C80.2998 213.969 79.6691 217.991 77.8347 221.509C76.6285 223.822 74.9376 225.848 72.876 227.45C70.8144 229.053 68.4302 230.194 65.8844 230.798L67.6778 244.039C70.2938 244.703 72.6582 246.121 74.4758 248.114L90.0774 238.335C89.2066 235.855 89.2844 233.146 90.296 230.726C91.3076 228.307 93.1817 226.349 95.5583 225.228C97.9348 224.107 100.646 223.902 103.172 224.653C105.698 225.404 107.86 227.057 109.243 229.295C110.626 231.533 111.132 234.199 110.665 236.78C110.198 239.361 108.79 241.675 106.711 243.278C104.633 244.882 102.03 245.661 99.4038 245.467C96.7773 245.272 94.3118 244.118 92.4809 242.225L76.9496 251.961C78.0895 254.619 78.3582 257.565 77.7174 260.378C77.0766 263.191 75.5591 265.726 73.3818 267.622C71.2045 269.517 68.479 270.676 65.5951 270.932C62.7113 271.188 59.8167 270.528 57.3253 269.047C54.834 267.565 52.8735 265.338 51.7243 262.684C50.575 260.031 50.2959 257.085 50.9268 254.27C51.5577 251.455 53.0663 248.915 55.2369 247.012C57.4074 245.108 60.1288 243.94 63.0117 243.674L61.3323 231.291C57.3487 231.222 53.4918 229.86 50.3466 227.411C47.2015 224.962 44.9399 221.56 43.905 217.722C42.8702 213.884 43.1185 209.819 44.6124 206.143C46.1063 202.468 48.7641 199.383 52.1826 197.356C55.6012 195.33 59.5937 194.473 63.5545 194.915C67.5153 195.357 71.2281 197.074 74.1294 199.806C77.0308 202.538 78.9624 206.135 79.6311 210.052Z" fill="#FFF500"/>
</g>
<defs>
<filter id="filter0_d_109_4" x="0.486328" y="0" width="286.514" height="362" filterUnits="userSpaceOnUse" color-interpolation-filters="sRGB">
<feFlood flood-opacity="0" result="BackgroundImageFix"/>
<feColorMatrix in="SourceAlpha" type="matrix" values="0 0 0 0 0 0 0 0 0 0 0 0 0 0 0 0 0 0 127 0" result="hardAlpha"/>
<feOffset dy="4"/>
<feGaussianBlur stdDeviation="2"/>
<feComposite in2="hardAlpha" operator="out"/>
<feColorMatrix type="matrix" values="0 0 0 0 0 0 0 0 0 0 0 0 0 0 0 0 0 0 0.25 0"/>
<feBlend mode="normal" in2="BackgroundImageFix" result="effect1_dropShadow_109_4"/>
<feBlend mode="normal" in="SourceGraphic" in2="effect1_dropShadow_109_4" result="shape"/>
</filter>
<linearGradient id="paint0_linear_109_4" x1="143.743" y1="0" x2="143.743" y2="354" gradientUnits="userSpaceOnUse">
<stop offset="0.2" stop-color="#BD34FE"/>
<stop offset="1" stop-color="#67A1FE"/>
</linearGradient>
</defs>
</svg>
