<?xml version="1.0" encoding="UTF-8" standalone="no"?>
<svg
   width="672"
   height="591"
   viewBox="0 0 672 591"
   fill="none"
   version="1.1"
   id="svg47"
   sodipodi:docname="map-id.svg"
   inkscape:version="1.3.2 (091e20e, 2023-11-25, custom)"
   xmlns:inkscape="http://www.inkscape.org/namespaces/inkscape"
   xmlns:sodipodi="http://sodipodi.sourceforge.net/DTD/sodipodi-0.dtd"
   xmlns="http://www.w3.org/2000/svg"
   xmlns:svg="http://www.w3.org/2000/svg">
  <defs
     id="defs47" />
  <sodipodi:namedview
     id="namedview47"
     pagecolor="#505050"
     bordercolor="#eeeeee"
     borderopacity="1"
     inkscape:showpageshadow="0"
     inkscape:pageopacity="0"
     inkscape:pagecheckerboard="0"
     inkscape:deskcolor="#505050"
     showgrid="false"
     inkscape:zoom="1.3147208"
     inkscape:cx="335.81274"
     inkscape:cy="295.11969"
     inkscape:window-width="1554"
     inkscape:window-height="1020"
     inkscape:window-x="75"
     inkscape:window-y="11"
     inkscape:window-maximized="0"
     inkscape:current-layer="svg47" />
  <path
     d="M276.344 320.605C276.344 320.605 338.463 321.166 378.267 321.525M276.344 320.605L204.44 270.843M276.344 320.605L241.707 376.818M207.071 433.03L241.707 376.818M378.267 321.525C417.765 316.273 439.911 313.328 479.409 308.076M378.267 321.525C386.362 350.006 390.9 365.974 398.995 394.454M419.724 467.384L502.302 494.075M419.724 467.384C419.724 467.384 407.09 422.935 398.995 394.454M419.724 467.384L330.416 480.477M419.724 467.384L431.011 527.718M419.724 467.384L374.861 497.095M580.552 294.626C580.552 294.626 518.908 302.823 479.409 308.076M580.552 294.626L543.448 372.129M580.552 294.626L669.268 246.315M580.552 294.626L613.103 318.086M479.409 308.076C488.657 346.699 493.841 368.354 503.089 406.978M479.409 308.076C448.004 283.003 398.99 243.874 398.99 243.874M479.409 308.076C489.228 283.376 504.553 244.827 504.553 244.827M503.089 406.978C540.76 407.318 599.551 407.849 599.551 407.849M503.089 406.978C498.209 415.98 495.474 421.028 490.594 430.031M398.99 243.874L459.579 186.042M398.99 243.874L379.647 168.641M329.998 526.805C355.817 540.79 396.112 562.615 396.112 562.615M329.998 526.805C316.013 540.431 294.189 561.695 294.189 561.695M329.998 526.805C329.782 550.688 329.445 587.959 329.445 587.959M329.998 526.805C347.518 515.203 374.861 497.095 374.861 497.095M329.998 526.805C317.32 517.94 297.536 504.104 297.536 504.104M502.302 494.075L476.87 589.291M502.302 494.075L541.841 550.031M502.302 494.075L505.458 490.92M599.551 407.849L607.974 482.983M599.551 407.849L667.803 408.465M599.551 407.849L645.655 378.77M478.1 453.084C478.1 453.084 485.715 439.034 490.594 430.031M204.44 270.843L170.337 368.76M204.44 270.843L209.472 167.104M204.44 270.843L66.5711 269.598M204.44 270.843L123.537 209.88M170.337 368.76L85.7047 367.996M170.337 368.76L169.76 432.694M170.337 368.76L103.945 464.532M85.7047 367.996L85.1274 431.929M85.7047 367.996L2.67902 390.875M85.7047 367.996L67.6924 318.086M241.707 376.818C241.707 376.818 282.717 411.639 308.994 433.951M308.994 433.951C289.952 456.577 260.235 491.889 260.235 491.889M308.994 433.951C335.648 434.192 377.246 434.567 377.246 434.567M308.994 433.951C317.749 409.06 331.412 370.215 331.412 370.215M260.235 491.889L152.852 490.92M260.235 491.889L239.808 587.15M260.235 491.889L220.795 525.819M379.647 168.641L297.536 191.065M379.647 168.641C379.647 168.641 350.948 214.128 332.558 243.274M379.647 168.641L434.617 128.365M379.647 168.641L362.145 86.6053M297.536 191.065L278.201 114.906M297.536 191.065L267.812 194.98M332.558 243.274C305.193 243.027 262.486 242.641 262.486 242.641M332.558 243.274C344.113 262.558 362.145 292.654 362.145 292.654M332.558 243.274C318.525 262.327 296.624 292.062 296.624 292.062M66.5711 269.598L34.2767 318.419M66.5711 269.598L122.549 319.216M66.5711 269.598L3.77935 269.031M123.537 209.88L35.1386 222.982M123.537 209.88L141.22 166.488M123.537 209.88L67.6924 145.437M504.553 244.827L590.254 227.995M504.553 244.827L459.052 244.416M504.553 244.827L516.359 197.211M590.254 227.995L607.974 128.365M590.254 227.995L669.268 168.641M590.254 227.995L564.328 168.641M590.254 227.995L623.446 242.641M528.166 149.596L516.359 197.211M645.655 341.546L613.103 318.086M398.995 394.454C421.975 388.329 457.838 378.77 457.838 378.77M362.145 86.6053L347.799 39.7064M362.145 86.6053L278.201 71.046M362.145 86.6053L419.724 86.6053M362.145 86.6053C362.145 86.6053 383.682 74.1139 397.482 66.1101M141.22 166.488L67.6924 145.437M141.22 166.488L187.199 114.084M220.795 525.819L205.916 560.898M220.795 525.819L123.229 546.251M67.6924 145.437L67.6923 71.0461M67.6924 145.437L3.77937 166.488M67.6924 145.437L34.2768 114.084M103.945 464.532L35.1386 467.384M103.945 464.532L80.6998 504.104M542.711 453.668L505.458 490.92M431.011 39.7064C431.011 39.7064 410.576 55.7988 397.482 66.1101M278.201 71.046L239.808 20.4752M278.201 71.046L209.472 86.6053M278.201 71.046L318.597 14.0648M419.724 86.6053L490.965 114.906M419.724 86.6053L478.1 39.7064L528.166 71.0461M528.166 71.0461L479.409 39.7064L564.328 20.4752M528.166 71.0461L564.328 114.906M528.166 71.0461L580.552 60.3621M209.472 86.6053L152.852 39.7064M209.472 86.6053L123.537 86.6053M152.852 39.7064L187.199 14.0648M152.852 39.7064L109.903 31.1592M607.974 128.365L645.655 114.906M607.974 128.365L623.446 60.3621M613.103 318.086L667.803 294.626M516.359 197.211L490.965 166.488M397.482 66.1101C390.517 41.6128 379.647 3.3808 379.647 3.3808M505.458 490.92L564.328 494.075M505.458 490.92L459.052 527.718M490.594 430.031C468.734 421.609 434.617 408.465 434.617 408.465M374.861 497.095L398.995 525.819"
     stroke="black"
     stroke-opacity="0.44"
     id="path1" />
  <circle
     cx="613.26"
     cy="318.202"
     r="2.1368"
     transform="rotate(-90 613.26 318.202)"
     fill="#67A1FE"
     id="circle1" />
  <circle
     cx="399.581"
     cy="244.126"
     r="2.1368"
     transform="rotate(-90 399.581 244.126)"
     fill="#67A1FE"
     id="circle2" />
  <circle
     cx="399.581"
     cy="244.126"
     r="2.1368"
     transform="rotate(-90 399.581 244.126)"
     fill="#67A1FE"
     id="circle3" />
  <circle
     cx="298.439"
     cy="191.419"
     r="2.1368"
     transform="rotate(-90 298.439 191.419)"
     fill="#67A1FE"
     id="circle4" />
  <circle
     cx="516.393"
     cy="195.692"
     r="2.1368"
     transform="rotate(-90 516.393 195.692)"
     fill="#67A1FE"
     id="circle5" />
  <circle
     cx="170.231"
     cy="369.486"
     r="2.1368"
     transform="rotate(-90 170.231 369.486)"
     fill="#67A1FE"
     id="circle6" />
  <circle
     cx="67.6649"
     cy="269.768"
     r="2.1368"
     transform="rotate(-90 67.6649 269.768)"
     fill="#67A1FE"
     id="circle7" />
  <circle
     cx="123.222"
     cy="209.938"
     r="2.1368"
     transform="rotate(-90 123.222 209.938)"
     fill="#67A1FE"
     id="circle8" />
  <circle
     cx="140.316"
     cy="167.202"
     r="2.1368"
     transform="rotate(-90 140.316 167.202)"
     fill="#67A1FE"
     id="circle9" />
  <circle
     cx="241.458"
     cy="376.608"
     r="2.1368"
     transform="rotate(-90 241.458 376.608)"
     fill="#67A1FE"
     id="circle10" />
  <circle
     cx="399.581"
     cy="393.703"
     r="2.1368"
     transform="rotate(-90 399.581 393.703)"
     fill="#67A1FE"
     id="circle11" />
  <circle
     cx="378.213"
     cy="322.476"
     r="2.1368"
     transform="rotate(-90 378.213 322.476)"
     fill="#67A1FE"
     id="circle12" />
  <circle
     cx="503.572"
     cy="406.523"
     r="2.1368"
     transform="rotate(-90 503.572 406.523)"
     fill="#67A1FE"
     id="circle13" />
  <circle
     cx="490.751"
     cy="430.74"
     r="2.1368"
     transform="rotate(-90 490.751 430.74)"
     fill="#67A1FE"
     id="circle14" />
  <circle
     cx="375.363"
     cy="497.693"
     r="2.1368"
     transform="rotate(-90 375.363 497.693)"
     fill="#67A1FE"
     id="circle15" />
  <circle
     cx="258.552"
     cy="493.42"
     r="2.1368"
     transform="rotate(-90 258.552 493.42)"
     fill="#67A1FE"
     id="circle16" />
  <circle
     cx="590.468"
     cy="227.032"
     r="2.1368"
     transform="rotate(-90 590.468 227.032)"
     fill="#67A1FE"
     id="circle17" />
  <circle
     cx="529.213"
     cy="71.7587"
     r="2.1368"
     transform="rotate(-90 529.213 71.7587)"
     fill="#67A1FE"
     id="circle18" />
  <circle
     cx="419.524"
     cy="86.0033"
     r="2.1368"
     transform="rotate(-90 419.524 86.0033)"
     fill="#67A1FE"
     id="circle19" />
  <circle
     cx="278.496"
     cy="70.3339"
     r="2.1368"
     transform="rotate(-90 278.496 70.3339)"
     fill="#67A1FE"
     id="circle20" />
  <circle
     cx="153.137"
     cy="38.9941"
     r="2.1368"
     transform="rotate(-90 153.137 38.9941)"
     fill="#67A1FE"
     id="circle21" />
  <circle
     cx="398.156"
     cy="66.06"
     r="2.1368"
     transform="rotate(-90 398.156 66.06)"
     fill="#67A1FE"
     id="circle22" />
  <circle
     cx="502.147"
     cy="494.844"
     r="2.1368"
     transform="rotate(-90 502.147 494.844)"
     fill="#67A1FE"
     id="circle23" />
  <circle
     cx="600.44"
     cy="407.948"
     r="2.1368"
     transform="rotate(-90 600.44 407.948)"
     fill="#BD34FE"
     id="circle24" />
  <circle
     cx="332.628"
     cy="242.702"
     r="2.1368"
     transform="rotate(-90 332.628 242.702)"
     fill="#BD34FE"
     id="circle25" />
  <circle
     cx="103.278"
     cy="464.929"
     r="2.1368"
     transform="rotate(-90 103.278 464.929)"
     fill="#BD34FE"
     id="circle26" />
  <circle
     cx="86.1842"
     cy="368.061"
     r="2.1368"
     transform="rotate(-90 86.1842 368.061)"
     fill="#BD34FE"
     id="circle27" />
  <circle
     cx="379.637"
     cy="168.626"
     r="2.1368"
     transform="rotate(-90 379.637 168.626)"
     fill="#BD34FE"
     id="circle28" />
  <circle
     cx="275.647"
     cy="321.051"
     r="2.1368"
     transform="rotate(-90 275.647 321.051)"
     fill="#BD34FE"
     id="circle29" />
  <circle
     cx="204.42"
     cy="271.193"
     r="2.1368"
     transform="rotate(-90 204.42 271.193)"
     fill="#BD34FE"
     id="circle30" />
  <circle
     cx="208.693"
     cy="86.0033"
     r="2.1368"
     transform="rotate(-90 208.693 86.0033)"
     fill="#BD34FE"
     id="circle31" />
  <circle
     cx="67.6649"
     cy="145.834"
     r="2.1368"
     transform="rotate(-90 67.6649 145.834)"
     fill="#BD34FE"
     id="circle32" />
  <circle
     cx="220.09"
     cy="526.184"
     r="2.1368"
     transform="rotate(-90 220.09 526.184)"
     fill="#BD34FE"
     id="circle33" />
  <circle
     cx="506.421"
     cy="490.571"
     r="2.1368"
     transform="rotate(-90 506.421 490.571)"
     fill="#BD34FE"
     id="circle34" />
  <circle
     cx="580.496"
     cy="295.41"
     r="2.1368"
     transform="rotate(-90 580.496 295.41)"
     fill="#BD34FE"
     id="circle35" />
  <circle
     cx="504.996"
     cy="244.126"
     r="2.1368"
     transform="rotate(-90 504.996 244.126)"
     fill="#BD34FE"
     id="circle36" />
  <circle
     cx="362.137"
     cy="86.1366"
     r="2.1368"
     transform="rotate(-90 362.137 86.1366)"
     fill="#BD34FE"
     id="circle37" />
  <circle
     cx="479.355"
     cy="40.4184"
     r="2.1368"
     transform="rotate(-90 479.355 40.4184)"
     fill="#BD34FE"
     id="circle38" />
  <circle
     cx="322.137"
     cy="232.137"
     r="2.1368"
     transform="rotate(-90 322.137 232.137)"
     fill="#67A1FE"
     id="circle39" />
  <circle
     cx="309.137"
     cy="252.137"
     r="2.1368"
     transform="rotate(-90 309.137 252.137)"
     fill="#67A1FE"
     id="circle40" />
  <circle
     cx="347.137"
     cy="241.137"
     r="2.1368"
     transform="rotate(-90 347.137 241.137)"
     fill="#BD34FE"
     id="circle41" />
  <circle
     cx="333.137"
     cy="263.137"
     r="2.1368"
     transform="rotate(-90 333.137 263.137)"
     fill="#BD34FE"
     id="circle42" />
  <circle
     cx="608.987"
     cy="127.315"
     r="2.1368"
     transform="rotate(-90 608.987 127.315)"
     fill="#BD34FE"
     id="circle43" />
  <circle
     cx="479.355"
     cy="308.23"
     r="2.1368"
     transform="rotate(-90 479.355 308.23)"
     fill="#BD34FE"
     id="circle44" />
  <circle
     cx="419.524"
     cy="467.778"
     r="2.1368"
     transform="rotate(-90 419.524 467.778)"
     fill="#BD34FE"
     id="circle45" />
  <circle
     cx="308.411"
     cy="433.589"
     r="2.1368"
     transform="rotate(-90 308.411 433.589)"
     fill="#BD34FE"
     id="circle46" />
  <circle
     cx="329.779"
     cy="526.184"
     r="2.1368"
     transform="rotate(-90 329.779 526.184)"
     fill="#BD34FE"
     id="circle47" />
</svg>
