<?xml version="1.0" encoding="UTF-8" standalone="no"?>
<svg
   width="415"
   height="472"
   viewBox="0 0 415 472"
   fill="none"
   version="1.1"
   id="svg43"
   sodipodi:docname="svg-map.svg"
   inkscape:export-filename="svg-map1.svg"
   inkscape:export-xdpi="96"
   inkscape:export-ydpi="96"
   inkscape:version="1.3.2 (091e20e, 2023-11-25, custom)"
   xmlns:inkscape="http://www.inkscape.org/namespaces/inkscape"
   xmlns:sodipodi="http://sodipodi.sourceforge.net/DTD/sodipodi-0.dtd"
   xmlns="http://www.w3.org/2000/svg"
   xmlns:svg="http://www.w3.org/2000/svg">
  <defs
     id="defs43" />
  <sodipodi:namedview
     id="namedview43"
     pagecolor="#505050"
     bordercolor="#eeeeee"
     borderopacity="1"
     inkscape:showpageshadow="0"
     inkscape:pageopacity="0"
     inkscape:pagecheckerboard="0"
     inkscape:deskcolor="#505050"
     inkscape:zoom="1.6461864"
     inkscape:cx="229.92535"
     inkscape:cy="238.73359"
     inkscape:window-width="1554"
     inkscape:window-height="1020"
     inkscape:window-x="34"
     inkscape:window-y="148"
     inkscape:window-maximized="0"
     inkscape:current-layer="svg43" />
  <path
     d="M189.813 193.989C189.813 193.989 189.42 237.596 189.167 265.538M189.813 193.989L224.745 143.514M189.813 193.989L150.353 169.675M110.892 145.361L150.353 169.675M189.167 265.538C192.854 293.265 194.922 308.811 198.609 336.538M189.167 265.538C169.174 271.22 157.965 274.406 137.972 280.089M86.7769 294.64L68.0396 352.609M86.7769 294.64C86.7769 294.64 117.979 285.772 137.972 280.089M86.7769 294.64L77.5856 231.947M86.7769 294.64L44.4233 302.563M86.7769 294.64L65.9203 263.147M208.05 407.539C208.05 407.539 202.296 364.266 198.609 336.538M208.05 407.539L153.644 381.492M208.05 407.539L241.964 469.816M208.05 407.539L191.581 430.39M198.609 336.538C171.496 343.03 156.294 346.669 129.181 353.161M198.609 336.538C216.209 314.492 243.677 280.085 243.677 280.085M198.609 336.538C215.948 343.431 243.008 354.189 243.008 354.189M129.181 353.161C128.942 379.605 128.57 420.876 128.57 420.876M129.181 353.161C122.861 349.736 119.318 347.815 112.998 344.39M243.677 280.085L284.274 322.618M243.677 280.085L296.49 266.507M45.0636 231.654C35.2467 249.778 19.9257 278.065 19.9257 278.065M45.0636 231.654C35.499 221.837 20.5719 206.516 20.5719 206.516M45.0636 231.654C28.2988 231.502 2.13452 231.266 2.13452 231.266M45.0636 231.654C53.2086 243.952 65.9203 263.147 65.9203 263.147M45.0636 231.654C51.2872 222.754 61 208.866 61 208.866M68.0396 352.609L1.19995 334.756M68.0396 352.609L28.7593 380.365M68.0396 352.609L70.2549 354.824M128.57 420.876L75.8261 426.789M128.57 420.876L128.137 468.788M128.57 420.876L148.983 453.241M96.8147 335.619C96.8147 335.619 106.678 340.965 112.998 344.39M224.745 143.514L156.009 119.574M224.745 143.514L297.569 147.047M224.745 143.514L225.619 46.732M224.745 143.514L267.54 86.721M156.009 119.574L156.546 60.1635M156.009 119.574L111.129 119.169M156.009 119.574L88.7787 72.9679M156.546 60.1635L111.665 59.7582M156.546 60.1635L140.484 1.88069M156.546 60.1635L191.581 47.5191M150.353 169.675C150.353 169.675 125.909 198.463 110.246 216.909M110.246 216.909C94.3627 203.542 69.5741 182.681 69.5741 182.681M110.246 216.909C110.077 235.62 109.813 264.821 109.813 264.821M110.246 216.909C127.719 223.055 154.988 232.646 154.988 232.646M69.5741 182.681L70.2549 107.3M69.5741 182.681L2.70277 168.342M69.5741 182.681L45.7559 154.995M296.49 266.507L280.748 208.866M296.49 266.507C296.49 266.507 264.559 246.36 244.098 233.451M296.49 266.507L324.763 305.095M296.49 266.507L354.078 254.221M280.748 208.866L334.211 195.293M280.748 208.866L278 188M244.098 233.451C244.272 214.241 244.543 184.261 244.543 184.261M244.098 233.451C230.561 241.562 209.435 254.221 209.435 254.221M244.098 233.451C230.724 223.6 209.85 208.225 209.85 208.225M225.619 46.732L191.348 24.0618M225.619 46.732L190.788 86.0279M225.619 46.732L226.017 2.6531M267.54 86.721L258.343 24.6668M267.54 86.721L298.001 99.1347M267.54 86.721L312.778 47.5191M243.008 354.189L254.824 414.35M243.008 354.189L243.297 322.248M243.008 354.189L276.434 362.477M254.824 414.35L324.763 426.789M254.824 414.35L296.49 469.816M254.824 414.35L296.49 396.15M254.824 414.35L244.543 437.65M309.859 370.765L276.434 362.477M175.113 453.241L191.581 430.39M137.972 280.089C142.272 296.22 148.983 321.396 148.983 321.396M354.078 254.221L387 244.15M354.078 254.221L365 195.293M354.078 254.221L354.078 294.64M354.078 254.221C354.078 254.221 362.846 269.339 368.465 279.026M298.001 99.1347L312.778 47.5191M298.001 99.1347L334.788 131.411M45.7559 154.995L21.1314 144.55M45.7559 154.995L31.413 86.5052M312.778 47.5191L365 47.5191M312.778 47.5191L298.001 2.65311M312.778 47.5191L334.788 24.0618M88.7787 72.9679L86.7769 24.6668M88.7787 72.9679L61 56.6501M96.4051 380.976L70.2549 354.824M387 302.563C387 302.563 375.703 288.218 368.465 279.026M365 195.293L400.5 168.342M365 195.293L354.078 147.047M365 195.293L405 223.65M354.078 294.64L334.211 344.65M354.078 294.64L387 335.619L365 370.765M365 370.765L387 336.538L400.5 396.15M365 370.765L334.211 396.15M365 370.765L372.5 407.539M354.078 147.047L387 107.3M354.078 147.047L354.078 86.721M387 107.3L405 131.411M387 107.3L393 77.1502M324.763 426.789L334.211 453.241M324.763 426.789L372.5 437.65M191.581 430.39L208.05 468.788M276.434 362.477L298.001 344.65M368.465 279.026C385.662 274.137 412.5 266.507 412.5 266.507M70.2549 354.824L68.0396 396.15M70.2549 354.824L44.4233 322.248M112.998 344.39C118.91 329.044 128.137 305.095 128.137 305.095M65.9203 263.147L45.7559 280.089"
     stroke="#7C7C7C"
     stroke-opacity="0.44"
     id="path1" />
  <circle
     cx="191.5"
     cy="430.5"
     r="1.5"
     fill="#67A1FE"
     id="circle1" />
  <circle
     cx="243.5"
     cy="280.5"
     r="1.5"
     fill="#67A1FE"
     id="circle2" />
  <circle
     cx="243.5"
     cy="280.5"
     r="1.5"
     fill="#67A1FE"
     id="circle3" />
  <circle
     cx="280.5"
     cy="209.5"
     r="1.5"
     fill="#67A1FE"
     id="circle4" />
  <circle
     cx="277.5"
     cy="362.5"
     r="1.5"
     fill="#67A1FE"
     id="circle5" />
  <circle
     cx="155.5"
     cy="119.5"
     r="1.5"
     fill="#67A1FE"
     id="circle6" />
  <circle
     cx="225.5"
     cy="47.5"
     r="1.5"
     fill="#67A1FE"
     id="circle7" />
  <circle
     cx="267.5"
     cy="86.5"
     r="1.5"
     fill="#67A1FE"
     id="circle8" />
  <circle
     cx="297.5"
     cy="98.5"
     r="1.5"
     fill="#67A1FE"
     id="circle9" />
  <circle
     cx="150.5"
     cy="169.5"
     r="1.5"
     fill="#67A1FE"
     id="circle10" />
  <circle
     cx="138.5"
     cy="280.5"
     r="1.5"
     fill="#67A1FE"
     id="circle11" />
  <circle
     cx="188.5"
     cy="265.5"
     r="1.5"
     fill="#67A1FE"
     id="circle12" />
  <circle
     cx="129.5"
     cy="353.5"
     r="1.5"
     fill="#67A1FE"
     id="circle13" />
  <circle
     cx="112.5"
     cy="344.5"
     r="1.5"
     fill="#67A1FE"
     id="circle14" />
  <circle
     cx="65.5"
     cy="263.5"
     r="1.5"
     fill="#67A1FE"
     id="circle15" />
  <circle
     cx="68.5"
     cy="181.5"
     r="1.5"
     fill="#67A1FE"
     id="circle16" />
  <circle
     cx="255.5"
     cy="414.5"
     r="1.5"
     fill="#67A1FE"
     id="circle17" />
  <circle
     cx="364.5"
     cy="371.5"
     r="1.5"
     fill="#67A1FE"
     id="circle18" />
  <circle
     cx="354.5"
     cy="294.5"
     r="1.5"
     fill="#67A1FE"
     id="circle19" />
  <circle
     cx="365.5"
     cy="195.5"
     r="1.5"
     fill="#67A1FE"
     id="circle20" />
  <circle
     cx="387.5"
     cy="107.5"
     r="1.5"
     fill="#67A1FE"
     id="circle21" />
  <circle
     cx="368.5"
     cy="279.5"
     r="1.5"
     fill="#67A1FE"
     id="circle22" />
  <circle
     cx="67.5"
     cy="352.5"
     r="1.5"
     fill="#67A1FE"
     id="circle23" />
  <circle
     cx="128.5"
     cy="421.5"
     r="1.5"
     fill="#BD34FE"
     id="circle24" />
  <circle
     cx="244.5"
     cy="233.5"
     r="1.5"
     fill="#BD34FE"
     id="circle25" />
  <circle
     cx="88.5"
     cy="72.5"
     r="1.5"
     fill="#BD34FE"
     id="circle26" />
  <circle
     cx="156.5"
     cy="60.5"
     r="1.5"
     fill="#BD34FE"
     id="circle27" />
  <circle
     cx="296.5"
     cy="266.5"
     r="1.5"
     fill="#BD34FE"
     id="circle28" />
  <circle
     cx="189.5"
     cy="193.5"
     r="1.5"
     fill="#BD34FE"
     id="circle29" />
  <circle
     cx="224.5"
     cy="143.5"
     r="1.5"
     fill="#BD34FE"
     id="circle30" />
  <circle
     cx="354.5"
     cy="146.5"
     r="1.5"
     fill="#BD34FE"
     id="circle31" />
  <circle
     cx="312.5"
     cy="47.5"
     r="1.5"
     fill="#BD34FE"
     id="circle32" />
  <circle
     cx="45.5"
     cy="154.5"
     r="1.5"
     fill="#BD34FE"
     id="circle33" />
  <circle
     cx="70.5"
     cy="355.5"
     r="1.5"
     fill="#BD34FE"
     id="circle34" />
  <circle
     cx="207.5"
     cy="407.5"
     r="1.5"
     fill="#BD34FE"
     id="circle35" />
  <circle
     cx="243.5"
     cy="354.5"
     r="1.5"
     fill="#BD34FE"
     id="circle36" />
  <circle
     cx="354.5"
     cy="254.5"
     r="1.5"
     fill="#BD34FE"
     id="circle37" />
  <circle
     cx="386.5"
     cy="336.5"
     r="1.5"
     fill="#BD34FE"
     id="circle38" />
  <circle
     cx="325.5"
     cy="427.5"
     r="1.5"
     fill="#BD34FE"
     id="circle39" />
  <circle
     cx="198.5"
     cy="336.5"
     r="1.5"
     fill="#BD34FE"
     id="circle40" />
  <circle
     cx="86.5"
     cy="294.5"
     r="1.5"
     fill="#BD34FE"
     id="circle41" />
  <circle
     cx="110.5"
     cy="216.5"
     r="1.5"
     fill="#BD34FE"
     id="circle42" />
  <circle
     cx="45.5"
     cy="231.5"
     r="1.5"
     fill="#BD34FE"
     id="circle43" />
</svg>
