<svg width="124" height="39" viewBox="0 0 124 39" fill="none" xmlns="http://www.w3.org/2000/svg">
<g filter="url(#filter0_d_1_25)">
<path d="M22.1651 0.90909H30.0629V19.5455C30.0629 21.7614 29.5326 23.679 28.4719 25.2983C27.4208 26.9081 25.953 28.1534 24.0685 29.0341C22.1841 29.9053 19.9966 30.3409 17.506 30.3409C14.9966 30.3409 12.7996 29.9053 10.9151 29.0341C9.03066 28.1534 7.56286 26.9081 6.51172 25.2983C5.47005 23.679 4.94922 21.7614 4.94922 19.5455V0.90909H12.8469V18.8636C12.8469 19.7633 13.0458 20.5682 13.4435 21.2784C13.8413 21.9792 14.3905 22.5284 15.0913 22.9261C15.8015 23.3239 16.6064 23.5227 17.506 23.5227C18.4151 23.5227 19.2201 23.3239 19.9208 22.9261C20.6216 22.5284 21.1708 21.9792 21.5685 21.2784C21.9663 20.5682 22.1651 19.7633 22.1651 18.8636V0.90909ZM58.9869 0.90909V30H52.396L41.8846 14.7159H41.7141V30H33.8164V0.90909H40.521L50.8619 16.1364H51.0891V0.90909H58.9869ZM73.9158 30H62.7227V0.90909H73.8022C76.7946 0.90909 79.3799 1.49148 81.5579 2.65625C83.7454 3.81155 85.431 5.47822 86.6147 7.65625C87.8079 9.82481 88.4045 12.4242 88.4045 15.4545C88.4045 18.4848 87.8126 21.089 86.6289 23.267C85.4452 25.4356 83.7691 27.1023 81.6005 28.267C79.4319 29.4223 76.8704 30 73.9158 30ZM70.6204 23.2955H73.6317C75.0711 23.2955 76.2975 23.0634 77.3107 22.5994C78.3335 22.1354 79.11 21.3352 79.6403 20.1989C80.18 19.0625 80.4499 17.4811 80.4499 15.4545C80.4499 13.428 80.1753 11.8466 79.6261 10.7102C79.0863 9.57386 78.2908 8.77367 77.2397 8.30966C76.198 7.84564 74.9196 7.61364 73.4045 7.61364H70.6204V23.2955ZM119.218 11.8182H111.206C111.15 11.1553 110.998 10.554 110.752 10.0142C110.515 9.47443 110.184 9.01042 109.757 8.62216C109.341 8.22443 108.834 7.9214 108.238 7.71307C107.641 7.49526 106.964 7.38636 106.206 7.38636C104.881 7.38636 103.758 7.70833 102.84 8.35227C101.931 8.99621 101.239 9.91951 100.766 11.1222C100.302 12.3248 100.07 13.7689 100.07 15.4545C100.07 17.2348 100.307 18.7263 100.78 19.929C101.263 21.1222 101.959 22.0218 102.868 22.6278C103.777 23.2244 104.871 23.5227 106.15 23.5227C106.879 23.5227 107.532 23.4328 108.11 23.2528C108.687 23.0634 109.189 22.7936 109.615 22.4432C110.042 22.0928 110.387 21.6714 110.652 21.179C110.927 20.6771 111.112 20.1136 111.206 19.4886L119.218 19.5455C119.123 20.7765 118.777 22.0312 118.181 23.3097C117.584 24.5786 116.737 25.7528 115.638 26.8324C114.549 27.9025 113.2 28.7642 111.59 29.4176C109.98 30.071 108.11 30.3977 105.979 30.3977C103.309 30.3977 100.913 29.8248 98.7915 28.679C96.6798 27.5331 95.0084 25.8475 93.7773 23.6222C92.5558 21.3968 91.945 18.6742 91.945 15.4545C91.945 12.2159 92.57 9.48864 93.82 7.27273C95.07 5.04735 96.7556 3.36648 98.8768 2.23011C100.998 1.08428 103.365 0.511363 105.979 0.511363C107.816 0.511363 109.507 0.762309 111.05 1.2642C112.594 1.7661 113.948 2.5 115.113 3.46591C116.277 4.42235 117.215 5.60133 117.925 7.00284C118.635 8.40436 119.066 10.0095 119.218 11.8182Z" fill="url(#paint0_linear_1_25)"/>
</g>
<defs>
<filter id="filter0_d_1_25" x="0.949219" y="0.511353" width="122.268" height="37.8864" filterUnits="userSpaceOnUse" color-interpolation-filters="sRGB">
<feFlood flood-opacity="0" result="BackgroundImageFix"/>
<feColorMatrix in="SourceAlpha" type="matrix" values="0 0 0 0 0 0 0 0 0 0 0 0 0 0 0 0 0 0 127 0" result="hardAlpha"/>
<feOffset dy="4"/>
<feGaussianBlur stdDeviation="2"/>
<feComposite in2="hardAlpha" operator="out"/>
<feColorMatrix type="matrix" values="0 0 0 0 0 0 0 0 0 0 0 0 0 0 0 0 0 0 0.25 0"/>
<feBlend mode="normal" in2="BackgroundImageFix" result="effect1_dropShadow_1_25"/>
<feBlend mode="normal" in="SourceGraphic" in2="effect1_dropShadow_1_25" result="shape"/>
</filter>
<linearGradient id="paint0_linear_1_25" x1="3" y1="15" x2="110" y2="15" gradientUnits="userSpaceOnUse">
<stop stop-color="#67A1FE"/>
<stop offset="1" stop-color="#BD34FE"/>
</linearGradient>
</defs>
</svg>
